<?xml version="1.0" encoding="utf-8"?>
<!-- Generator: Adobe Illustrator 18.0.0, SVG Export Plug-In . SVG Version: 6.00 Build 0)  -->
<!DOCTYPE svg PUBLIC "-//W3C//DTD SVG 1.1//EN" "http://www.w3.org/Graphics/SVG/1.1/DTD/svg11.dtd">
<svg version="1.1" id="Layer_1" xmlns="http://www.w3.org/2000/svg" xmlns:xlink="http://www.w3.org/1999/xlink" x="0px" y="0px"
	 viewBox="0 0 200 200" enable-background="new 0 0 200 200" xml:space="preserve">
<g>
	<path fill="#999999" d="M168.4,118.5l-19.6-39.3c-0.2-0.4-0.5-0.8-0.9-1.2c-0.4-0.3-0.8-0.6-1.2-0.7l-23-8.3
		c-1.6-0.6-3.3-0.9-5.1-0.9c-1.8,0-3.5,0.4-5.1,1L96,75.8c-1.2,0.5-2.4,1-3.7,1.6c-0.4,0.2-0.8,0.4-1.2,0.7
		c-1.3-0.7-2.7-1.3-4.1-1.9c-4.6-1.7-9.3-2.3-13.8-1.9l-11.7,1c-0.5,0-1,0.2-1.5,0.5c-0.5,0.3-0.9,0.7-1.2,1.1l-26.5,37.6
		c-0.5,0.8-0.8,1.8-0.7,2.8s0.5,2,1.2,2.6l11.5,11.4c-0.6,1.2-1,2.5-1.1,3.8c-0.2,2.5,0.7,4.9,2.3,6.8c1.6,1.9,3.9,3,6.4,3.2
		c0.1,0,0.3,0,0.4,0c-1,3.3-0.2,7.1,2.5,9.6c1.6,1.5,3.6,2.4,5.8,2.5c-1.4,3.5-0.6,7.6,2.2,10.3c1.7,1.7,4,2.6,6.4,2.6
		c2.5,0,4.8-1,6.6-2.7c0.7,4.2,4.2,7.6,8.6,7.9c0.2,0,0.4,0,0.6,0c1.1,0,2.2-0.2,3.2-0.6c1.7,1.1,3.6,1.7,5.7,1.6
		c2.6-0.1,4.9-1.2,6.6-3l-6.2-6.3c0-0.1,0-0.3,0-0.4c0.1-1.2-0.1-2.4-0.5-3.6l12.9,12.9c1.6,0.7,3.4,1,5.3,0.9
		c3.7-0.2,7-1.9,9.3-4.6l1.3-1.5c0.1-0.1,0.2-0.3,0.3-0.5l-20-19.8c-0.5-0.5-0.6-1.4-0.1-1.9c0.5-0.5,1.2-0.5,1.8,0l23.7,23.6
		c1.3,0.5,2.7,0.7,4.1,0.6c3.3-0.1,6.2-1.7,8.2-4.1l3.1-3.6c0.7-0.8,1.1-2,1.1-3.2L124.1,141c-0.5-0.5-0.6-1.4-0.1-1.9
		c0.5-0.5,1.3-0.5,1.8,0l20.9,20.8c0.9,0.2,1.8,0.3,2.7,0.3c2.7-0.1,5-1.4,6.7-3.3l0.8-1c1.7-1.9,2.7-4.6,2.6-7.5
		c-0.1-2.9-1.3-5.4-3.1-7.2l-5.6-5.6l1.4,1.4l15.1-13.6c0.6-0.6,1.1-1.4,1.3-2.3C168.9,120.3,168.7,119.3,168.4,118.5z M52.1,141.1
		c-1.4-0.1-2.7-0.7-3.6-1.8c-0.9-1.1-1.4-2.4-1.3-3.8c0.2-2.8,2.5-5,5.3-5c0.1,0,0.2,0,0.4,0c1.4,0.1,2.7,0.7,3.6,1.8
		c0.9,1.1,1.4,2.4,1.3,3.9C57.5,139.1,55,141.3,52.1,141.1z M61.1,153.3c-1.4,0-2.7-0.5-3.6-1.5c-2.1-2-2.2-5.3-0.3-7.4
		c0.1-0.1,2.2-2.3,3.2-3.3l0.5-0.6c1-1.1,2.4-1.7,3.9-1.7c1.4,0,2.7,0.5,3.6,1.5c1,1,1.6,2.3,1.7,3.7c0,1.4-0.5,2.8-1.5,3.8
		l-1.5,1.6c-0.3,0.3-0.7,0.7-1,1.1c-0.1,0.1-0.1,0.1-0.2,0.2c-0.3,0.3-0.5,0.5-0.7,0.7c-0.1,0.1-0.2,0.2-0.3,0.3v0.1
		C63.9,152.7,62.6,153.3,61.1,153.3z M73,164.5c-1,1-2.4,1.6-3.8,1.6c-1.4,0-2.7-0.5-3.7-1.5c-2.1-2-2.2-5.3-0.3-7.4
		c0-0.1,1.3-1.3,2.6-2.8l0,0l1-1.1c1.8-1.9,2.4-2.5,2.6-2.7c0,0,0.1,0,0.1-0.1l0,0l0,0c0.2-0.2,0.3-0.3,0.3-0.3
		c1-1.1,2.4-1.7,3.9-1.7c1.4,0,2.7,0.5,3.6,1.5c1,1,1.6,2.3,1.7,3.7c0,1.4-0.5,2.8-1.5,3.8C79.5,157.7,73.2,164.3,73,164.5z
		 M84.7,171.3c-2.9-0.2-5.1-2.7-5-5.6c0.2-2.8,2.5-5,5.3-5c0.1,0,0.2,0,0.4,0c2.9,0.2,5.1,2.7,5,5.6
		C90.1,169.3,87.6,171.5,84.7,171.3z M149.6,134.5l-41.3-41.2l0,0l0.5-1.2c0.2-0.6,0.2-1.3-0.1-1.9c-0.4-0.6-0.9-1-1.6-1l-3.1-0.2
		l0,0l-3.4-0.2l-0.3,4c0,0.1-0.7,9.1-5.3,17.3c-4.7,8.4-11,11.3-11.9,11.5c-1.1,0.2-2.2,0.4-3.1,0.4c-0.6,0-1.1-0.1-1.6-0.3
		l-1.6-0.7c-0.7-0.3-1.2-0.9-1.4-1.6c-0.3-0.7-0.3-1.4,0-2.1L91,82.7l2.7-1.8l1.1-0.4l0,0l19.8-7.5c1.2-0.5,2.5-0.7,3.9-0.7h0.1
		c1.3,0,2.6,0.2,3.8,0.7l23,8.3l19.6,39.3L149.6,134.5z"/>
	<path fill="#999999" d="M171.9,54.1l-15.5,7.7c-2.2,1.1-4,3.1-4.9,5.6c-0.9,2.6-0.6,5.2,0.5,7.5l20.3,40.8c1.1,2.2,3.1,4,5.6,4.9
		c2.6,0.9,5.2,0.6,7.5-0.5l15.5-7.7L171.9,54.1z M185.4,112.3c-2.1,0-3.7-1.7-3.7-3.7c0-2.1,1.7-3.7,3.7-3.7c2.1,0,3.7,1.7,3.7,3.7
		C189.2,110.7,187.5,112.3,185.4,112.3z"/>
	<path fill="#999999" d="M1,103.5l14.2,10c2,1.4,4.6,2.1,7.3,1.6c2.7-0.5,4.9-2,6.3-4L55,73.7c1.4-2,2.1-4.6,1.6-7.3
		c-0.5-2.7-2-4.9-4-6.3l-14.2-10L1,103.5z M13.3,101.5c0.3-2,2.2-3.5,4.3-3.1c2,0.3,3.5,2.2,3.1,4.3c-0.3,2-2.2,3.5-4.3,3.1
		C14.3,105.5,12.9,103.5,13.3,101.5z"/>
</g>
</svg>
