<?xml version="1.0" encoding="utf-8"?>
<!-- Generator: Adobe Illustrator 18.0.0, SVG Export Plug-In . SVG Version: 6.00 Build 0)  -->
<!DOCTYPE svg PUBLIC "-//W3C//DTD SVG 1.1//EN" "http://www.w3.org/Graphics/SVG/1.1/DTD/svg11.dtd">
<svg version="1.1" id="Layer_1" xmlns="http://www.w3.org/2000/svg" xmlns:xlink="http://www.w3.org/1999/xlink" x="0px" y="0px"
	 viewBox="0 0 520 520" enable-background="new 0 0 520 520" xml:space="preserve">
<g>
	<rect x="162.6" y="417.7" fill="#1DB6EC" width="194.9" height="92.1"/>
	<path fill="#1DB6EC" d="M394.2,211.4l97.6-97.3c23.8-23.8,23.8-62.3,0-86.1l0,0c-23.8-23.8-62.3-23.8-86.1,0L222.2,211.5
		L394.2,211.4z"/>
</g>
<path fill="#1DB6EC" d="M10.3,211.4c0,137.9,111.8,249.7,249.7,249.7s249.7-111.8,249.7-249.7H10.3z"/>
<path fill="#263195" d="M394.9,381c-2.9,0-5.7-1.2-7.8-3.6c-3.6-4.3-3.1-10.7,1.2-14.3c25.7-21.8,45.6-49.9,57.5-81.3
	c2-5.2,7.8-7.9,13.1-5.9c5.2,2,7.9,7.8,5.9,13.1c-13.1,34.6-35,65.6-63.4,89.6C399.6,380.2,397.2,381,394.9,381z"/>
<path fill="#263195" d="M368.7,399.9c-3.4,0-6.8-1.7-8.7-4.9c-2.9-4.8-1.4-11,3.4-13.9c0,0,0,0,0,0c4.7-3,11-1.5,14,3.2
	c3,4.7,1.5,11-3.2,14c0,0-0.1,0.1-0.2,0.1C372.3,399.5,370.5,399.9,368.7,399.9z"/>
<path fill="#263195" d="M225.2,520c-5.6,0-10.2-4.5-10.2-10.1s4.5-10.1,10.1-10.1h0.1c5.6,0,10.1,4.5,10.1,10.1S230.8,520,225.2,520
	z"/>
<path fill="#263195" d="M519.9,211.4c0-5.6-4.5-10.1-10.1-10.1h-90.6l79.9-79.9c13.4-13.4,20.8-31.3,20.8-50.2s-7.4-36.8-20.8-50.2
	C485.6,7.4,467.8,0,448.8,0c-19,0-36.8,7.4-50.2,20.8L218.1,201.2H10.3c-5.6,0-10.1,4.5-10.1,10.1c0,69.4,27,134.7,76.1,183.8
	c22.4,22.4,48.2,40.2,76.2,52.9v61.8c0,5.6,4.5,10.1,10.1,10.1h30.1c5.6,0,10.1-4.5,10.1-10.1c0-5.6-4.5-10.1-10.1-10.1h-19.9v-43.4
	c27.6,9.8,57.1,15,87.3,15c30.2,0,59.6-5.1,87.3-15v43.4h-89c-5.6,0-10.1,4.5-10.1,10.1c0,5.6,4.5,10.1,10.1,10.1h99.1
	c5.6,0,10.1-4.5,10.1-10.1v-61.8c28-12.7,53.8-30.5,76.2-52.9C492.8,346,519.9,280.8,519.9,211.4z M412.9,35.2
	c9.6-9.6,22.3-14.9,35.9-14.9s26.3,5.3,35.9,14.9c9.6,9.6,14.9,22.3,14.9,35.9s-5.3,26.3-14.9,35.9L390.6,201
	c-0.1,0.1-0.1,0.2-0.2,0.2H246.8L412.9,35.2z M260,450.9c-128.7,0-234-102-239.4-229.4h478.7C494,348.9,388.7,450.9,260,450.9z"/>
<path fill="#263195" d="M67,167c-8.3-6.7-29.4-37.4-24.6-41.7c4.9-4.3,40.8,1.4,50.8,5.4c10,4,42.8,20.1,26.4,40.8
	S75.3,173.7,67,167z"/>
<path fill="#263195" d="M95.7,106.2c-7.5-8.7-24.1-45.2-18.1-48.8c5.9-3.6,42.9,9.2,52.7,15.3c9.8,6.1,41.5,29.3,20.3,48.2
	S103.2,114.9,95.7,106.2z"/>
<path fill="#263195" d="M154.1,61.9c-5.3-10.2-12.9-49.5-6.3-51.7s39.6,18.9,47.7,27.2S229,75.6,204,89S159.4,72.1,154.1,61.9z"/>
</svg>
