<?xml version="1.0" encoding="utf-8"?>
<!-- Generator: Adobe Illustrator 18.0.0, SVG Export Plug-In . SVG Version: 6.00 Build 0)  -->
<!DOCTYPE svg PUBLIC "-//W3C//DTD SVG 1.1//EN" "http://www.w3.org/Graphics/SVG/1.1/DTD/svg11.dtd">
<svg version="1.1" id="Layer_1" xmlns="http://www.w3.org/2000/svg" xmlns:xlink="http://www.w3.org/1999/xlink" x="0px" y="0px"
	 viewBox="0 0 520 520" enable-background="new 0 0 520 520" xml:space="preserve">
<g>
	<g display="none">
		<path fill="#4F7FBA" d="M555,313.5H240.1c-31.8,0-57.8,31.1-57.8,69.1v164.8c0,38,26,69.1,57.8,69.1h252.1l87.6,68.6v-75.4
			c19.5-11.2,33-35,33-62.4V382.6C612.8,344.6,586.8,313.5,555,313.5z"/>
		<path display="inline" fill="#1DB6EC" d="M454.7,83.5H139.8C108,83.5,82,114.6,82,152.6v164.8c0,38,26,69.1,57.8,69.1h252.1
			l87.6,68.6v-75.4c19.5-11.2,33-35,33-62.4V152.6C512.5,114.6,486.5,83.5,454.7,83.5z"/>
	</g>
	<g>
		<path fill="#263195" d="M395.7,46.6H80.8C49,46.6,23,77.7,23,115.7v164.8c0,27.4,13.5,51.2,33,62.4v75.4l87.6-68.6h252.1
			c31.8,0,57.8-31.1,57.8-69.1V115.7C453.5,77.7,427.5,46.6,395.7,46.6z"/>
		<path display="none" fill="#0071CE" d="M395.7,20.4H80.8C49,20.4,23,51.5,23,89.5v164.8c0,27.4,13.5,51.2,33,62.4v75.4l87.6-68.6
			h252.1c31.8,0,57.8-31.1,57.8-69.1V89.5C453.5,51.5,427.5,20.4,395.7,20.4z"/>
		<g>
			<path fill="#FFFFFF" d="M360.6,158H115.9c-4.3,0-7.7-6.4-7.7-14.4s3.4-14.4,7.7-14.4h244.7c4.3,0,7.7,6.4,7.7,14.4
				C368.3,151.6,364.8,158,360.6,158z"/>
			<path display="none" fill="#FFFFFF" d="M360.6,181.1H115.9c-4.3,0-7.7-4.1-7.7-9.2s3.4-9.2,7.7-9.2h244.7c4.3,0,7.7,4.1,7.7,9.2
				C368.3,177,364.8,181.1,360.6,181.1z"/>
			<path fill="#FFFFFF" d="M265.2,228.6H113c-2.6,0-4.8-6.9-4.8-15.3c0-8.4,2.1-15.3,4.8-15.3h152.2c2.6,0,4.8,6.9,4.8,15.3
				C270,221.7,267.9,228.6,265.2,228.6z"/>
		</g>
	</g>
</g>
<path fill="#25B7D3" d="M518,344.3c0-81.4-66-147.3-147.3-147.3c-81.4,0-147.3,65.9-147.3,147.3c0,81.4,66,147.3,147.3,147.3
	C452,491.6,518,425.7,518,344.3z"/>
<path fill="#FFFFFF" d="M305.5,300.1c0-8.3,2.7-16.6,8-25.1c5.3-8.5,13-15.5,23.2-21.1c10.2-5.6,22.1-8.3,35.6-8.3
	c12.6,0,23.7,2.3,33.4,7c9.7,4.7,17.1,11,22.4,19c5.3,8,7.9,16.7,7.9,26.1c0,7.4-1.5,13.9-4.5,19.4c-3,5.6-6.6,10.4-10.7,14.4
	c-4.1,4-11.5,10.9-22.2,20.4c-3,2.7-5.3,5.1-7.1,7.1c-1.8,2-3.1,3.9-4,5.6c-0.9,1.7-1.5,3.4-2,5.1c-0.5,1.7-1.2,4.7-2.2,8.9
	c-1.7,9-6.8,13.6-15.5,13.6c-4.5,0-8.3-1.5-11.4-4.4c-3.1-3-4.6-7.3-4.6-13.2c0-7.3,1.1-13.6,3.4-19c2.3-5.4,5.3-10,9-14.1
	c3.7-4,8.8-8.8,15.1-14.4c5.6-4.9,9.6-8.5,12.1-11c2.5-2.5,4.6-5.2,6.3-8.3c1.7-3,2.5-6.3,2.5-9.9c0-7-2.6-12.8-7.8-17.6
	c-5.2-4.8-11.9-7.2-20-7.2c-9.6,0-16.6,2.4-21.1,7.2c-4.5,4.8-8.3,11.9-11.5,21.3c-3,9.8-8.6,14.7-16.8,14.7c-4.9,0-9-1.7-12.3-5.2
	C307.1,307.8,305.5,304.1,305.5,300.1z M369.1,443.1c-5.3,0-9.9-1.7-13.9-5.2c-4-3.4-5.9-8.2-5.9-14.4c0-5.5,1.9-10.1,5.7-13.8
	c3.8-3.7,8.5-5.6,14.1-5.6c5.5,0,10.1,1.9,13.8,5.6c3.7,3.7,5.6,8.3,5.6,13.8c0,6.1-2,10.9-5.9,14.4
	C378.8,441.3,374.3,443.1,369.1,443.1z"/>
</svg>
