<?xml version="1.0" encoding="utf-8"?>
<!-- Generator: Adobe Illustrator 18.0.0, SVG Export Plug-In . SVG Version: 6.00 Build 0)  -->
<!DOCTYPE svg PUBLIC "-//W3C//DTD SVG 1.1//EN" "http://www.w3.org/Graphics/SVG/1.1/DTD/svg11.dtd">
<svg version="1.1" id="Layer_1" xmlns="http://www.w3.org/2000/svg" xmlns:xlink="http://www.w3.org/1999/xlink" x="0px" y="0px"
	 viewBox="0 0 320 480" enable-background="new 0 0 320 480" xml:space="preserve">
<g id="Background" display="none">
	<rect y="80" display="inline" fill="#F6F6F6" width="320" height="320"/>
	<g display="inline">
		<g>
			<path fill="#1D1D1B" d="M124.4,394.3L124.4,394.3c-0.1,0-0.2,0.1-0.3,0.2s-0.2,0.1-0.3,0.2s-0.2,0-0.4,0c-0.2,0-0.4,0-0.5-0.1
				c-0.2-0.1-0.3-0.2-0.4-0.3s-0.2-0.3-0.2-0.5c0-0.2-0.1-0.4-0.1-0.6c0-0.5,0.1-0.8,0.3-1.1c0.2-0.2,0.5-0.4,0.9-0.4
				c0.2,0,0.4,0,0.5,0.1c0.2,0.1,0.3,0.2,0.4,0.3V391c0-0.2,0-0.3,0.1-0.4c0.1-0.1,0.2-0.1,0.2-0.1c0.1,0,0.2,0,0.2,0.1
				c0.1,0.1,0.1,0.2,0.1,0.3v3.3c0,0.2,0,0.2-0.1,0.3c-0.1,0.1-0.2,0.1-0.2,0.1c-0.1,0-0.2,0-0.2-0.1
				C124.4,394.5,124.4,394.4,124.4,394.3z M122.9,393.2c0,0.2,0,0.4,0.1,0.5c0.1,0.2,0.2,0.2,0.2,0.3c0.1,0.1,0.2,0.1,0.4,0.1
				s0.2,0,0.4-0.1c0.1-0.1,0.2-0.2,0.2-0.3c0.1-0.2,0.1-0.3,0.1-0.5c0-0.2,0-0.4-0.1-0.5c-0.1-0.2-0.2-0.2-0.3-0.3
				c-0.1-0.1-0.2-0.1-0.4-0.1s-0.2,0-0.4,0.1c-0.1,0.1-0.2,0.2-0.2,0.3C122.9,392.8,122.9,393,122.9,393.2z"/>
			<path fill="#1D1D1B" d="M127.9,393.4h-1.4c0,0.2,0,0.3,0.1,0.4c0.1,0.1,0.2,0.2,0.3,0.3c0.1,0.1,0.2,0.1,0.4,0.1
				c0.1,0,0.2,0,0.2,0c0.1,0,0.2,0,0.2-0.1c0.1,0,0.1-0.1,0.2-0.2c0,0,0.1-0.1,0.2-0.2c0,0,0.1,0,0.2,0c0.1,0,0.1,0,0.2,0.1
				c0,0,0.1,0.1,0.1,0.2c0,0.1,0,0.2-0.1,0.2c0,0.1-0.1,0.2-0.2,0.2c-0.1,0.1-0.2,0.2-0.4,0.2c-0.2,0-0.4,0.1-0.6,0.1
				c-0.5,0-0.8-0.1-1.1-0.4c-0.3-0.3-0.4-0.6-0.4-1.1c0-0.2,0-0.4,0.1-0.6c0.1-0.2,0.2-0.4,0.3-0.5c0.1-0.1,0.3-0.2,0.5-0.3
				c0.2-0.1,0.4-0.1,0.6-0.1c0.3,0,0.5,0,0.8,0.2c0.2,0.1,0.4,0.3,0.5,0.5c0.1,0.2,0.2,0.4,0.2,0.6s0,0.3-0.2,0.4
				C128.2,393.3,128.1,393.4,127.9,393.4z M126.4,393h1.4c0-0.2-0.1-0.4-0.2-0.6c-0.1-0.1-0.3-0.2-0.5-0.2c-0.2,0-0.3,0.1-0.4,0.2
				C126.5,392.5,126.4,392.7,126.4,393z"/>
			<path fill="#1D1D1B" d="M131.5,393.7c0,0.2,0,0.4-0.2,0.5c-0.1,0.2-0.2,0.2-0.4,0.3c-0.2,0.1-0.4,0.1-0.7,0.1
				c-0.3,0-0.5,0-0.7-0.1c-0.2-0.1-0.3-0.2-0.4-0.3c-0.1-0.1-0.1-0.2-0.1-0.4c0-0.1,0-0.2,0.1-0.2c0,0,0.1-0.1,0.2-0.1
				c0.1,0,0.1,0,0.2,0c0,0,0.1,0.1,0.1,0.2c0.1,0.1,0.2,0.2,0.3,0.3c0.1,0.1,0.2,0.1,0.4,0.1c0.2,0,0.3,0,0.4-0.1
				c0.1-0.1,0.2-0.2,0.2-0.2c0-0.1,0-0.2-0.2-0.3c-0.1-0.1-0.3-0.1-0.5-0.2c-0.2-0.1-0.5-0.1-0.6-0.2c-0.2-0.1-0.3-0.2-0.4-0.3
				c-0.1-0.1-0.2-0.2-0.2-0.4c0-0.2,0-0.3,0.1-0.4c0.1-0.1,0.2-0.2,0.4-0.3c0.2-0.1,0.4-0.1,0.6-0.1c0.2,0,0.4,0,0.5,0
				c0.2,0,0.3,0.1,0.4,0.2s0.2,0.2,0.2,0.2c0,0.1,0.1,0.2,0.1,0.2c0,0.1,0,0.2-0.1,0.2c0,0-0.1,0.1-0.2,0.1c-0.1,0-0.2,0-0.2-0.1
				c0,0-0.1-0.1-0.2-0.2c0-0.1-0.1-0.1-0.2-0.2s-0.2-0.1-0.3-0.1c-0.1,0-0.2,0-0.3,0.1c-0.1,0-0.1,0.1-0.1,0.2c0,0.1,0,0.2,0.1,0.2
				c0.1,0,0.2,0.1,0.3,0.1s0.3,0.1,0.4,0.1c0.2,0,0.4,0.1,0.6,0.2c0.2,0.1,0.2,0.2,0.3,0.3C131.4,393.5,131.5,393.6,131.5,393.7z"/>
			<path fill="#1D1D1B" d="M132.5,391.3c-0.1,0-0.2,0-0.3-0.1c-0.1-0.1-0.1-0.2-0.1-0.3s0-0.2,0.1-0.2c0.1-0.1,0.2-0.1,0.3-0.1
				c0.1,0,0.2,0,0.2,0.1c0.1,0.1,0.1,0.2,0.1,0.3s0,0.2-0.1,0.3C132.7,391.3,132.6,391.3,132.5,391.3z M132.8,392.1v2.1
				c0,0.2,0,0.2-0.1,0.3c-0.1,0.1-0.2,0.1-0.3,0.1c-0.1,0-0.2,0-0.3-0.1c-0.1-0.1-0.1-0.2-0.1-0.3v-2.1c0-0.2,0-0.2,0.1-0.3
				c0.1-0.1,0.2-0.1,0.3-0.1c0.1,0,0.2,0,0.3,0.1C132.8,391.9,132.8,392,132.8,392.1z"/>
			<path fill="#1D1D1B" d="M136.4,392.2v2.2c0,0.2,0,0.4-0.1,0.6c0,0.2-0.1,0.3-0.2,0.4c-0.1,0.1-0.3,0.2-0.4,0.2
				c-0.2,0-0.4,0.1-0.7,0.1s-0.5,0-0.7-0.1c-0.2-0.1-0.4-0.2-0.5-0.3c-0.1-0.1-0.2-0.2-0.2-0.4c0-0.1,0-0.2,0.1-0.2
				c0.1,0,0.1-0.1,0.2-0.1c0.1,0,0.2,0,0.3,0.2c0,0,0.1,0.1,0.1,0.2c0,0,0.1,0.1,0.2,0.1c0,0,0.1,0.1,0.2,0.1c0.1,0,0.2,0,0.2,0
				c0.2,0,0.4,0,0.4-0.1c0.1,0,0.2-0.1,0.2-0.2c0-0.1,0.1-0.2,0.1-0.3s0-0.3,0-0.5c-0.1,0.2-0.2,0.3-0.4,0.4
				c-0.2,0.1-0.3,0.1-0.5,0.1c-0.2,0-0.5-0.1-0.6-0.2c-0.2-0.1-0.3-0.3-0.4-0.5c-0.1-0.2-0.2-0.5-0.2-0.8c0-0.2,0-0.4,0.1-0.6
				c0.1-0.2,0.2-0.3,0.2-0.4c0.1-0.1,0.2-0.2,0.4-0.3c0.2-0.1,0.3-0.1,0.5-0.1c0.2,0,0.4,0,0.6,0.1c0.2,0.1,0.3,0.2,0.4,0.4V392
				c0-0.1,0-0.2,0.1-0.3c0.1-0.1,0.2-0.1,0.2-0.1c0.2,0,0.2,0,0.3,0.1C136.3,391.9,136.4,392,136.4,392.2z M134.2,393.2
				c0,0.3,0.1,0.5,0.2,0.7s0.3,0.2,0.5,0.2c0.1,0,0.2,0,0.4-0.1c0.1-0.1,0.2-0.2,0.3-0.3s0.1-0.3,0.1-0.5c0-0.3-0.1-0.5-0.2-0.7
				c-0.1-0.2-0.3-0.2-0.5-0.2c-0.2,0-0.4,0.1-0.5,0.2C134.3,392.6,134.2,392.8,134.2,393.2z"/>
			<path fill="#1D1D1B" d="M137.8,392.1L137.8,392.1c0.1-0.1,0.3-0.2,0.4-0.3c0.2-0.1,0.3-0.1,0.5-0.1s0.4,0,0.5,0.1
				c0.2,0.1,0.3,0.2,0.4,0.4c0,0.1,0.1,0.2,0.1,0.3c0,0.1,0,0.2,0,0.4v1.4c0,0.2,0,0.2-0.1,0.3c-0.1,0.1-0.2,0.1-0.3,0.1
				c-0.1,0-0.2,0-0.3-0.1c-0.1-0.1-0.1-0.2-0.1-0.3V393c0-0.2,0-0.4-0.1-0.6c-0.1-0.1-0.2-0.2-0.4-0.2c-0.1,0-0.2,0-0.4,0.1
				c-0.1,0.1-0.2,0.2-0.2,0.3s0,0.3,0,0.6v0.9c0,0.2,0,0.3-0.1,0.3c-0.1,0.1-0.2,0.1-0.3,0.1c-0.1,0-0.2,0-0.3-0.1
				c-0.1-0.1-0.1-0.2-0.1-0.3V392c0-0.2,0-0.2,0.1-0.3c0.1-0.1,0.2-0.1,0.2-0.1c0.1,0,0.1,0,0.2,0c0,0,0.1,0.1,0.1,0.1
				C137.8,391.9,137.8,392,137.8,392.1z"/>
			<path fill="#1D1D1B" d="M142.5,393.4h-1.4c0,0.2,0,0.3,0.1,0.4s0.2,0.2,0.3,0.3c0.1,0.1,0.2,0.1,0.4,0.1c0.1,0,0.2,0,0.2,0
				c0.1,0,0.2,0,0.2-0.1c0.1,0,0.1-0.1,0.2-0.2c0,0,0.1-0.1,0.2-0.2c0,0,0.1,0,0.2,0c0.1,0,0.1,0,0.2,0.1c0,0,0.1,0.1,0.1,0.2
				c0,0.1,0,0.2-0.1,0.2c0,0.1-0.1,0.2-0.2,0.2c-0.1,0.1-0.2,0.2-0.4,0.2c-0.2,0-0.4,0.1-0.6,0.1c-0.5,0-0.8-0.1-1.1-0.4
				s-0.4-0.6-0.4-1.1c0-0.2,0-0.4,0.1-0.6c0.1-0.2,0.2-0.4,0.3-0.5c0.1-0.1,0.3-0.2,0.5-0.3c0.2-0.1,0.4-0.1,0.6-0.1
				c0.3,0,0.5,0,0.8,0.2c0.2,0.1,0.4,0.3,0.5,0.5c0.1,0.2,0.2,0.4,0.2,0.6s0,0.3-0.2,0.4C142.8,393.3,142.7,393.4,142.5,393.4z
				 M141.1,393h1.4c0-0.2-0.1-0.4-0.2-0.6c-0.1-0.1-0.3-0.2-0.5-0.2c-0.2,0-0.3,0.1-0.4,0.2C141.2,392.5,141.1,392.7,141.1,393z"/>
			<path fill="#1D1D1B" d="M145.8,394.3L145.8,394.3c-0.1,0-0.2,0.1-0.3,0.2s-0.2,0.1-0.3,0.2s-0.2,0-0.4,0c-0.2,0-0.4,0-0.5-0.1
				c-0.2-0.1-0.3-0.2-0.4-0.3s-0.2-0.3-0.2-0.5c0-0.2-0.1-0.4-0.1-0.6c0-0.5,0.1-0.8,0.3-1.1c0.2-0.2,0.5-0.4,0.9-0.4
				c0.2,0,0.4,0,0.5,0.1c0.2,0.1,0.3,0.2,0.4,0.3V391c0-0.2,0-0.3,0.1-0.4c0.1-0.1,0.2-0.1,0.2-0.1c0.1,0,0.2,0,0.2,0.1
				c0,0.1,0.1,0.2,0.1,0.3v3.3c0,0.2,0,0.2-0.1,0.3c-0.1,0.1-0.2,0.1-0.2,0.1c-0.1,0-0.2,0-0.2-0.1
				C145.8,394.5,145.8,394.4,145.8,394.3z M144.3,393.2c0,0.2,0,0.4,0.1,0.5c0.1,0.2,0.2,0.2,0.2,0.3c0.1,0.1,0.2,0.1,0.4,0.1
				s0.2,0,0.4-0.1c0.1-0.1,0.2-0.2,0.2-0.3c0.1-0.2,0.1-0.3,0.1-0.5c0-0.2,0-0.4-0.1-0.5c-0.1-0.2-0.2-0.2-0.3-0.3
				c-0.1-0.1-0.2-0.1-0.4-0.1s-0.2,0-0.4,0.1c-0.1,0.1-0.2,0.2-0.2,0.3C144.4,392.8,144.3,393,144.3,393.2z"/>
			<path fill="#1D1D1B" d="M149.3,391v1.1c0.1-0.2,0.3-0.2,0.4-0.3c0.2-0.1,0.3-0.1,0.5-0.1c0.2,0,0.5,0,0.6,0.2
				c0.2,0.1,0.3,0.3,0.4,0.5c0.1,0.2,0.2,0.5,0.2,0.8c0,0.2,0,0.4-0.1,0.6c0,0.2-0.2,0.4-0.2,0.5c-0.1,0.1-0.2,0.2-0.4,0.3
				c-0.2,0.1-0.3,0.1-0.5,0.1c-0.1,0-0.2,0-0.3,0c-0.1,0-0.2-0.1-0.2-0.1c-0.1,0-0.1-0.1-0.2-0.1c0,0-0.1-0.1-0.2-0.2v0.1
				c0,0.1,0,0.2-0.1,0.3c-0.1,0.1-0.2,0.1-0.2,0.1c-0.1,0-0.2,0-0.2-0.1c-0.1-0.1-0.1-0.2-0.1-0.3V391c0-0.2,0-0.3,0.1-0.3
				c0.1-0.1,0.2-0.1,0.2-0.1c0.1,0,0.2,0,0.3,0.1C149.2,390.8,149.3,390.9,149.3,391z M149.3,393.2c0,0.3,0.1,0.5,0.2,0.7
				s0.3,0.2,0.5,0.2s0.4-0.1,0.5-0.2c0.1-0.2,0.2-0.4,0.2-0.7c0-0.2,0-0.4-0.1-0.5c0-0.1-0.1-0.2-0.2-0.3c-0.1-0.1-0.2-0.1-0.4-0.1
				c-0.2,0-0.3,0-0.4,0.1c-0.1,0.1-0.2,0.2-0.3,0.3C149.4,392.8,149.3,393,149.3,393.2z"/>
			<path fill="#1D1D1B" d="M152.7,394.8l0.1-0.2l-0.9-2.3c0-0.1-0.1-0.2-0.1-0.3c0,0,0-0.1,0-0.2c0,0,0.1-0.1,0.1-0.1
				c0,0,0.1,0,0.2,0c0.1,0,0.2,0,0.2,0.1c0,0.1,0.1,0.2,0.2,0.3l0.6,1.8l0.6-1.7c0-0.1,0.1-0.2,0.1-0.3c0-0.1,0.1-0.1,0.1-0.2
				c0,0,0.1,0,0.2,0c0,0,0.1,0,0.2,0c0,0,0.1,0.1,0.1,0.1c0,0,0,0.1,0,0.2c0,0,0,0.1,0,0.2c0,0.1,0,0.1-0.1,0.2l-1,2.5
				c-0.1,0.2-0.2,0.4-0.2,0.5s-0.2,0.2-0.3,0.3c-0.1,0.1-0.3,0.1-0.5,0.1c-0.2,0-0.4,0-0.5-0.1c-0.1,0-0.2-0.1-0.2-0.2
				c0-0.1,0-0.2,0.1-0.2c0,0,0.1-0.1,0.2-0.1c0,0,0.1,0,0.1,0c0,0,0.1,0,0.1,0c0.1,0,0.2,0,0.2,0c0,0,0.1-0.1,0.1-0.1
				C152.6,395,152.6,394.9,152.7,394.8z"/>
		</g>
		<g>
			<path fill="#1D1D1B" d="M166.4,391.7h0.2v-0.2c0-0.2,0-0.4,0.1-0.6c0-0.1,0.2-0.2,0.3-0.3c0.1-0.1,0.3-0.1,0.6-0.1
				c0.4,0,0.6,0.1,0.6,0.3c0,0.1,0,0.1-0.1,0.2c0,0-0.1,0.1-0.2,0.1c0,0-0.1,0-0.2,0c-0.1,0-0.1,0-0.2,0c-0.1,0-0.2,0-0.2,0.1
				c0,0.1,0,0.2,0,0.3v0.2h0.2c0.3,0,0.4,0.1,0.4,0.2c0,0.1,0,0.2-0.1,0.2s-0.2,0-0.3,0h-0.2v2c0,0.2,0,0.2-0.1,0.3
				c-0.1,0.1-0.2,0.1-0.3,0.1c-0.1,0-0.2,0-0.3-0.1c-0.1-0.1-0.1-0.2-0.1-0.3v-2h-0.2c-0.1,0-0.2,0-0.2-0.1c-0.1,0-0.1-0.1-0.1-0.2
				C166,391.8,166.1,391.7,166.4,391.7z"/>
			<path fill="#1D1D1B" d="M169,393.6v0.6c0,0.2,0,0.3-0.1,0.3c-0.1,0.1-0.2,0.1-0.3,0.1c-0.1,0-0.2,0-0.3-0.1
				c-0.1-0.1-0.1-0.2-0.1-0.3v-2.1c0-0.3,0.1-0.5,0.4-0.5c0.1,0,0.2,0,0.3,0.1c0,0.1,0.1,0.2,0.1,0.4c0.1-0.2,0.2-0.3,0.3-0.4
				c0.1-0.1,0.2-0.1,0.4-0.1s0.3,0,0.4,0.1c0.2,0.1,0.2,0.2,0.2,0.3c0,0.1,0,0.2-0.1,0.2c-0.1,0-0.1,0.1-0.2,0.1c0,0-0.1,0-0.2,0
				c-0.1,0-0.2,0-0.3,0c-0.1,0-0.2,0-0.3,0.1c-0.1,0-0.1,0.2-0.2,0.2c0,0.1-0.1,0.2-0.1,0.4C169,393.2,169,393.4,169,393.6z"/>
			<path fill="#1D1D1B" d="M172.6,393.4h-1.4c0,0.2,0,0.3,0.1,0.4c0.1,0.1,0.2,0.2,0.3,0.3c0.1,0.1,0.2,0.1,0.4,0.1
				c0.1,0,0.2,0,0.2,0c0.1,0,0.2,0,0.2-0.1c0.1,0,0.1-0.1,0.2-0.2c0,0,0.1-0.1,0.2-0.2c0,0,0.1,0,0.2,0c0.1,0,0.1,0,0.2,0.1
				c0,0,0.1,0.1,0.1,0.2c0,0.1,0,0.2-0.1,0.2c0,0.1-0.1,0.2-0.2,0.2c-0.1,0.1-0.2,0.2-0.4,0.2c-0.2,0-0.4,0.1-0.6,0.1
				c-0.5,0-0.8-0.1-1.1-0.4s-0.4-0.6-0.4-1.1c0-0.2,0-0.4,0.1-0.6c0.1-0.2,0.2-0.4,0.3-0.5s0.3-0.2,0.5-0.3c0.2-0.1,0.4-0.1,0.6-0.1
				c0.3,0,0.5,0,0.8,0.2c0.2,0.1,0.4,0.3,0.5,0.5c0.1,0.2,0.2,0.4,0.2,0.6s0,0.3-0.2,0.4C173,393.3,172.8,393.4,172.6,393.4z
				 M171.2,393h1.4c0-0.2-0.1-0.4-0.2-0.6c-0.1-0.1-0.3-0.2-0.5-0.2c-0.2,0-0.3,0.1-0.4,0.2C171.3,392.5,171.2,392.7,171.2,393z"/>
			<path fill="#1D1D1B" d="M175.9,393.4h-1.4c0,0.2,0,0.3,0.1,0.4c0.1,0.1,0.2,0.2,0.3,0.3c0.1,0.1,0.2,0.1,0.4,0.1
				c0.1,0,0.2,0,0.2,0s0.2,0,0.2-0.1c0.1,0,0.1-0.1,0.2-0.2c0,0,0.1-0.1,0.2-0.2c0,0,0.1,0,0.2,0s0.1,0,0.2,0.1c0,0,0.1,0.1,0.1,0.2
				c0,0.1,0,0.2-0.1,0.2c0,0.1-0.1,0.2-0.2,0.2c-0.1,0.1-0.2,0.2-0.4,0.2c-0.2,0-0.4,0.1-0.6,0.1c-0.5,0-0.8-0.1-1.1-0.4
				c-0.3-0.3-0.4-0.6-0.4-1.1c0-0.2,0-0.4,0.1-0.6c0.1-0.2,0.2-0.4,0.3-0.5c0.1-0.1,0.3-0.2,0.5-0.3c0.2-0.1,0.4-0.1,0.6-0.1
				c0.3,0,0.5,0,0.8,0.2c0.2,0.1,0.4,0.3,0.5,0.5c0.1,0.2,0.2,0.4,0.2,0.6s0,0.3-0.2,0.4C176.3,393.3,176.1,393.4,175.9,393.4z
				 M174.5,393h1.4c0-0.2-0.1-0.4-0.2-0.6c-0.1-0.1-0.3-0.2-0.5-0.2s-0.3,0.1-0.4,0.2C174.6,392.5,174.5,392.7,174.5,393z"/>
			<path fill="#1D1D1B" d="M177.8,392.1L177.8,392.1c0.2-0.1,0.3-0.2,0.4-0.3c0.2-0.1,0.3-0.1,0.5-0.1c0.2,0,0.4,0,0.6,0.2
				c0.2,0.1,0.4,0.3,0.4,0.5c0.1,0.2,0.2,0.5,0.2,0.8c0,0.2,0,0.4-0.1,0.6c-0.1,0.2-0.2,0.4-0.3,0.5s-0.2,0.2-0.4,0.3
				c-0.2,0.1-0.3,0.1-0.5,0.1c-0.2,0-0.4,0-0.5-0.1c-0.2-0.1-0.3-0.2-0.4-0.4v1.1c0,0.3-0.1,0.5-0.4,0.5c-0.2,0-0.2,0-0.3-0.1
				c0-0.1-0.1-0.2-0.1-0.4v-3.2c0-0.2,0-0.2,0.1-0.3c0.1-0.1,0.2-0.1,0.2-0.1c0.1,0,0.2,0,0.2,0.1
				C177.8,391.8,177.8,392,177.8,392.1z M179.2,393.2c0-0.2,0-0.4-0.1-0.5c-0.1-0.2-0.2-0.2-0.2-0.3c-0.1-0.1-0.2-0.1-0.4-0.1
				c-0.2,0-0.4,0.1-0.5,0.2c-0.1,0.2-0.2,0.4-0.2,0.7c0,0.3,0.1,0.5,0.2,0.7s0.3,0.2,0.5,0.2c0.1,0,0.2,0,0.4-0.1
				c0.1-0.1,0.2-0.2,0.2-0.3C179.2,393.5,179.2,393.4,179.2,393.2z"/>
			<path fill="#1D1D1B" d="M181,391.3c-0.1,0-0.2,0-0.3-0.1c-0.1-0.1-0.1-0.2-0.1-0.3s0-0.2,0.1-0.2c0.1-0.1,0.2-0.1,0.3-0.1
				c0.1,0,0.2,0,0.2,0.1c0.1,0.1,0.1,0.2,0.1,0.3s0,0.2-0.1,0.3C181.1,391.3,181,391.3,181,391.3z M181.3,392.1v2.1
				c0,0.2,0,0.2-0.1,0.3c-0.1,0.1-0.2,0.1-0.3,0.1c-0.1,0-0.2,0-0.3-0.1c-0.1-0.1-0.1-0.2-0.1-0.3v-2.1c0-0.2,0-0.2,0.1-0.3
				c0.1-0.1,0.2-0.1,0.3-0.1c0.1,0,0.2,0,0.3,0.1C181.3,391.9,181.3,392,181.3,392.1z"/>
			<path fill="#1D1D1B" d="M183.9,394.4l-0.6-1.1l-0.4,0.4v0.6c0,0.2,0,0.2-0.1,0.3s-0.2,0.1-0.2,0.1c-0.1,0-0.2,0-0.3-0.1
				s-0.1-0.2-0.1-0.3v-3.2c0-0.2,0-0.3,0.1-0.4c0.1-0.1,0.2-0.1,0.3-0.1c0.1,0,0.2,0,0.3,0.1c0.1,0.1,0.1,0.2,0.1,0.4v1.8l0.8-0.9
				c0.1-0.1,0.2-0.2,0.2-0.2c0,0,0.1,0,0.2,0c0.1,0,0.2,0,0.2,0.1c0.1,0,0.1,0.1,0.1,0.2s-0.1,0.2-0.3,0.4l-0.4,0.4l0.8,1.2
				c0,0.1,0.1,0.2,0.1,0.2c0,0,0,0.1,0,0.1c0,0.1,0,0.2-0.1,0.3c-0.1,0.1-0.2,0.1-0.2,0.1s-0.2,0-0.2-0.1
				C184.1,394.6,184,394.5,183.9,394.4z"/>
			<path fill="#1D1D1B" d="M185.8,394.7c-0.1,0-0.2,0-0.3-0.1c-0.1-0.1-0.1-0.2-0.1-0.3c0-0.1,0-0.2,0.1-0.3
				c0.1-0.1,0.2-0.1,0.3-0.1s0.2,0,0.3,0.1c0.1,0.1,0.1,0.2,0.1,0.3s0,0.2-0.1,0.3C186,394.6,185.8,394.7,185.8,394.7z"/>
			<path fill="#1D1D1B" d="M189.6,393.8c0,0.1,0,0.2-0.1,0.3c0,0.1-0.1,0.2-0.2,0.3c-0.1,0.1-0.2,0.2-0.4,0.2
				c-0.2,0-0.4,0.1-0.6,0.1c-0.4,0-0.8-0.1-1.1-0.4c-0.2-0.3-0.4-0.6-0.4-1.1c0-0.3,0-0.6,0.2-0.8s0.3-0.4,0.5-0.6
				c0.2-0.1,0.5-0.2,0.8-0.2c0.2,0,0.4,0,0.5,0.1c0.2,0,0.3,0.1,0.4,0.2c0.1,0.1,0.2,0.2,0.2,0.3c0,0.1,0.1,0.2,0.1,0.3
				s0,0.2-0.1,0.2c-0.1,0.1-0.2,0.1-0.2,0.1s-0.1,0-0.2,0c0,0-0.1-0.1-0.1-0.2c-0.1-0.1-0.2-0.2-0.3-0.3c-0.1-0.1-0.2-0.1-0.4-0.1
				c-0.2,0-0.4,0.1-0.5,0.2c-0.1,0.2-0.2,0.4-0.2,0.7c0,0.1,0,0.3,0,0.4c0,0.1,0.1,0.2,0.2,0.3c0.1,0.1,0.2,0.2,0.2,0.2
				c0.1,0,0.2,0.1,0.3,0.1c0.2,0,0.3,0,0.4-0.1c0.1-0.1,0.2-0.2,0.3-0.3c0-0.1,0.1-0.2,0.2-0.2c0,0,0.1-0.1,0.2-0.1
				c0.1,0,0.2,0,0.2,0.1C189.6,393.6,189.6,393.7,189.6,393.8z"/>
			<path fill="#1D1D1B" d="M193.1,393.2c0,0.2,0,0.4-0.1,0.6c-0.1,0.2-0.2,0.4-0.3,0.5c-0.1,0.1-0.3,0.2-0.5,0.3
				c-0.2,0.1-0.4,0.1-0.6,0.1c-0.2,0-0.4,0-0.6-0.1c-0.2-0.1-0.3-0.2-0.5-0.3c-0.1-0.1-0.2-0.3-0.3-0.5c-0.1-0.2-0.1-0.4-0.1-0.6
				c0-0.2,0-0.4,0.1-0.6c0.1-0.2,0.2-0.4,0.3-0.5c0.1-0.1,0.3-0.2,0.5-0.3c0.2-0.1,0.4-0.1,0.6-0.1c0.2,0,0.4,0,0.6,0.1
				c0.2,0.1,0.3,0.2,0.5,0.3c0.1,0.1,0.2,0.3,0.3,0.5C193,392.8,193.1,393,193.1,393.2z M192.3,393.2c0-0.3-0.1-0.5-0.2-0.7
				c-0.1-0.2-0.3-0.2-0.5-0.2c-0.2,0-0.3,0-0.4,0.1c-0.1,0.1-0.2,0.2-0.2,0.3c0,0.2-0.1,0.3-0.1,0.5c0,0.2,0,0.4,0.1,0.5
				c0,0.2,0.2,0.2,0.2,0.3c0.1,0.1,0.2,0.1,0.4,0.1c0.2,0,0.4-0.1,0.5-0.2C192.2,393.7,192.3,393.5,192.3,393.2z"/>
			<path fill="#1D1D1B" d="M196.1,393.2v1c0,0.2,0,0.3-0.1,0.4s-0.2,0.1-0.3,0.1c-0.1,0-0.2,0-0.3-0.1c-0.1-0.1-0.1-0.2-0.1-0.4
				v-1.2c0-0.2,0-0.3,0-0.4s0-0.2-0.1-0.2c0-0.1-0.2-0.1-0.3-0.1c-0.2,0-0.4,0.1-0.5,0.2c-0.1,0.2-0.1,0.4-0.1,0.7v1
				c0,0.2,0,0.3-0.1,0.4c-0.1,0.1-0.2,0.1-0.3,0.1c-0.1,0-0.2,0-0.3-0.1c-0.1-0.1-0.1-0.2-0.1-0.4v-2.1c0-0.1,0-0.2,0.1-0.3
				c0.1-0.1,0.2-0.1,0.2-0.1c0.1,0,0.2,0,0.2,0.1c0.1,0.1,0.1,0.2,0.1,0.3v0.1c0.1-0.2,0.3-0.3,0.4-0.3c0.2-0.1,0.3-0.1,0.5-0.1
				c0.2,0,0.4,0,0.5,0.1c0.1,0.1,0.2,0.2,0.3,0.3c0.1-0.2,0.2-0.3,0.4-0.3c0.2-0.1,0.3-0.1,0.5-0.1c0.2,0,0.4,0,0.5,0.1
				c0.2,0.1,0.2,0.2,0.3,0.4c0.1,0.1,0.1,0.4,0.1,0.6v1.4c0,0.2,0,0.3-0.1,0.4c-0.1,0.1-0.2,0.1-0.3,0.1s-0.2,0-0.3-0.1
				c-0.1-0.1-0.1-0.2-0.1-0.4V393c0-0.2,0-0.3,0-0.4c0-0.1,0-0.2-0.1-0.2c-0.1-0.1-0.2-0.1-0.3-0.1c-0.1,0-0.2,0-0.3,0.1
				s-0.2,0.1-0.2,0.2C196.1,392.7,196.1,392.9,196.1,393.2z"/>
		</g>
		<g>
			<path fill="#1D1D1B" d="M160.6,389.8c0,0,0-0.1,0-0.2c0.2,0,0.4-0.3,0.3-0.6s-0.5-0.3-0.6,0c-0.2,0.2,0,0.5,0.2,0.6
				c0,0,0,0.1,0,0.2c-0.4,0-0.8,0.1-1.1,0.3c0,0.1,0.1,0.2,0.1,0.3c0.6-0.3,1.3-0.2,2-0.2c0-0.1,0-0.2,0.1-0.3
				C161.2,389.8,160.9,389.8,160.6,389.8z"/>
			<path fill="#1D1D1B" d="M164.3,390.8c-0.1,0-0.1,0.2-0.1,0.3c-0.1,0.1,0,0.3-0.1,0.4c0,0.1-0.1,0.1-0.2,0.1
				c-0.1-0.1-0.2-0.3-0.3-0.4l0,0c-0.1-0.1-0.3-0.2-0.4-0.3c-0.1,0.1-0.2,0.2-0.4,0.4c0.2,0.2,0.4,0.5,0.6,0.8
				c0.1,0.2,0.2,0.4,0.3,0.7c0.2-0.1,0.4-0.2,0.6-0.3c-0.1-0.2-0.2-0.4-0.3-0.7c0.1,0,0.2-0.1,0.2-0.2s0-0.2,0-0.4
				c0.2,0.1,0.4,0,0.4-0.2C164.7,390.8,164.4,390.7,164.3,390.8z"/>
			<path fill="#1D1D1B" d="M163.3,392.2c-0.2-0.4-0.5-0.8-0.9-1.1c-0.4-0.4-1-0.6-1.5-0.6c-0.7,0-1.4,0.1-2.1,0.4
				c-0.6,0.3-1.2,0.8-1.4,1.4c-0.3,0.6-0.2,1.2-0.1,1.8c0.6,0.2,1.3,0.3,2,0.3c0.7,0,1.3,0,2,0c0.9-0.1,1.8-0.4,2.6-0.9
				C163.8,393.4,163.7,392.8,163.3,392.2z M160.1,393c-0.1,0.2-0.3,0.3-0.5,0.4c-0.4,0.2-0.8,0-1.1-0.2c-0.2-0.2-0.3-0.5-0.3-0.8
				c0-0.4,0.2-0.7,0.6-0.8c0.2-0.1,0.5-0.2,0.8-0.1c0.1,0,0.2,0.1,0.3,0.1c0.2,0.1,0.3,0.3,0.4,0.6
				C160.3,392.4,160.2,392.7,160.1,393z M162.8,392.3c0,0.3-0.3,0.6-0.6,0.6c-0.2,0-0.4-0.1-0.5-0.2c-0.1-0.1-0.2-0.2-0.2-0.4
				c0-0.3,0.2-0.6,0.5-0.7c0.1,0,0.3,0,0.4,0C162.7,391.7,162.9,392,162.8,392.3z"/>
			<path fill="#1D1D1B" d="M157.4,391.2c-0.3,0.2-0.5,0.4-0.7,0.6c0-0.1-0.1-0.2-0.1-0.3c0,0-0.1,0-0.2,0c-0.1,0-0.1,0-0.2,0
				c0.1-0.1,0-0.3-0.1-0.4c-0.1-0.1-0.3,0-0.4,0.1c0,0.2,0.1,0.3,0.3,0.3c0.1,0.1,0.2,0.1,0.4,0.1c0,0.1,0.1,0.2,0.2,0.3
				c-0.2,0.3-0.2,0.6-0.2,0.9c0.2,0.1,0.4,0.2,0.6,0.2c0-0.2,0-0.4,0.1-0.6c0.1-0.4,0.3-0.8,0.6-1.1
				C157.6,391.4,157.5,391.3,157.4,391.2z"/>
			<path fill="#1D1D1B" d="M161.7,394.4c-0.7,0.2-1.4,0.2-2,0.2c-0.5,0-0.9-0.1-1.4-0.2c-0.3-0.1-0.6-0.2-1-0.2
				c0,0.4,0.2,0.8,0.4,1.1c0.3,0.4,0.6,0.7,1.1,0.9c0.4,0.1,0.8,0.2,1.5,0.2c0.6,0,1.2-0.1,1.7-0.3c0.4-0.2,0.7-0.4,1-0.6
				c0.2-0.2,0.4-0.5,0.6-0.8c0.1-0.3,0.2-0.8,0.2-1C163.2,394,162.4,394.3,161.7,394.4z"/>
		</g>
	</g>
</g>
<g id="Objects">
	<path fill="#828282" d="M300.6,297.5h-9.5V173c0-11.4-9.2-20.6-20.6-20.6h-35v-16.2h-58.7c2.1-1.2,3.5-3.4,3.5-5.9v-28.9
		c0-3.8-3-6.8-6.8-6.8H146c-3.8,0-6.8,3-6.8,6.8v28.9c0,2.6,1.4,4.8,3.5,5.9h-59v16.2H50.4c-11.4,0-20.6,9.2-20.6,20.6v124.5
		c0,0-4.3,0-9.5,0c-5.3,0-9.5,4.4-9.5,10v10h299.4c0,0,0-4.4,0-10C310.1,302,305.9,297.5,300.6,297.5z M150.3,106
		c0-0.9,0.8-1.7,1.7-1.7h1.8c0.9,0,1.7,0.8,1.7,1.7v7.2h8.6V106c0-0.9,0.8-1.7,1.7-1.7h1.8c0.9,0,1.7,0.8,1.7,1.7v19.6l0,0
		c0,0.9-0.8,1.7-1.7,1.7h-1.8c-0.9,0-1.7-0.8-1.7-1.7v-7.9h-8.6v7.9c0,0.9-0.8,1.7-1.7,1.7H152c-0.9,0-1.7-0.8-1.7-1.7V106z
		 M72.5,259H51.8v-20.7h20.7V259z M72.5,223.9H51.8v-20.7h20.7V223.9z M72.5,188.9H51.8v-20.7h20.7V188.9z M95.8,259H75v-20.7h20.7
		V259z M95.8,223.9H75v-20.7h20.7V223.9z M95.8,188.9H75v-20.7h20.7V188.9z M145.9,259h-20.7v-20.7h20.7V259z M145.9,223.9h-20.7
		v-20.7h20.7V223.9z M145.9,188.9h-20.7v-20.7h20.7V188.9z M170.1,259h-20.7v-20.7h20.7V259z M170.1,223.9h-20.7v-20.7h20.7V223.9z
		 M170.1,188.9h-20.7v-20.7h20.7V188.9z M194.3,259h-20.7v-20.7h20.7V259z M194.3,223.9h-20.7v-20.7h20.7V223.9z M194.3,188.9h-20.7
		v-20.7h20.7V188.9z M246.3,259h-20.7v-20.7h20.7V259z M246.3,223.9h-20.7v-20.7h20.7V223.9z M246.3,188.9h-20.7v-20.7h20.7V188.9z
		 M269.5,259h-20.7v-20.7h20.7V259z M269.5,223.9h-20.7v-20.7h20.7V223.9z M269.5,188.9h-20.7v-20.7h20.7V188.9z"/>
	<path fill="#575756" d="M239.8,337.4c0,1.3-1,2.3-2.3,2.3s-2.3-1-2.3-2.3c0-1.3,1-2.3,2.3-2.3C238.7,335.1,239.8,336.1,239.8,337.4
		z M237.7,353.2l0.5,8.6c0,0.3,0.2,0.6,0.6,0.6c0.3,0,0.6-0.2,0.6-0.6l0.5-8.6h1.5l-1.6-9.6l3.2,6.3c0.1,0.3,0.4,0.4,0.7,0.3
		c0.3-0.1,0.4-0.4,0.3-0.7c0,0-2.3-6.2-2.9-7.4c-0.6-1.2-1.1-1.9-3.3-1.9h-0.6c-2.2,0-2.7,0.7-3.3,1.9s-2.9,7.4-2.9,7.4
		c-0.1,0.3,0,0.6,0.3,0.7c0.3,0.1,0.6,0,0.7-0.3l3.2-6.3l-1.6,9.6h1.5l0.5,8.6c0,0.3,0.2,0.6,0.6,0.6s0.6-0.2,0.6-0.6l0.5-8.6H237.7
		z M256.1,335.1c-1.3,0-2.3,1-2.3,2.3c0,1.3,1,2.3,2.3,2.3s2.3-1,2.3-2.3C258.4,336.1,257.4,335.1,256.1,335.1z M258.5,348.7l0.2-5
		l2.8,6.3c0.1,0.3,0.4,0.4,0.7,0.3s0.4-0.4,0.3-0.7c0,0-2-6.2-2.6-7.4c-0.6-1.2-1.4-1.9-3.6-1.9h-0.4c-2.2,0-3,0.7-3.6,1.9
		c-0.6,1.2-2.6,7.4-2.6,7.4c-0.1,0.3,0,0.6,0.3,0.7s0.6,0,0.7-0.3l2.8-6.3l0.2,5l-0.4,12.7c0,0.5,0.4,0.9,0.8,1c0,0,0,0,0.1,0
		c0.5,0,0.9-0.4,0.9-0.8l1-10.4l1,10.4c0,0.5,0.4,0.8,0.9,0.8c0,0,0,0,0.1,0c0.5,0,0.9-0.5,0.8-1L258.5,348.7L258.5,348.7z
		 M246.8,349.2c-0.8,0-1.4,0.6-1.4,1.4c0,0.8,0.6,1.4,1.4,1.4s1.4-0.6,1.4-1.4C248.2,349.8,247.6,349.2,246.8,349.2z M246.8,357.5
		l0.6,4.4c0.1,0.2,0.3,0.4,0.6,0.4c0.2,0,0.5-0.2,0.6-0.4c0,0,0-0.3,0-0.3l-0.3-5.5l0.1-1.9c0.1-0.6,0.1-0.4,0.8-0.9
		c0.8-0.4,2-2.4,2.1-2.5c0.1-0.1,0.2-0.3,0.2-0.4c0-0.2-0.1-0.4-0.3-0.4c-0.2,0-0.3,0-0.4,0.2c-0.1,0.1-1.6,2-2.6,2.2
		c-0.2,0-0.5-0.2-1.2-0.2h-0.3c-0.7,0-1,0.1-1.2,0.2c-1.1-0.2-2.5-2.1-2.6-2.2c-0.1-0.1-0.2-0.2-0.4-0.2c-0.2,0-0.3,0.2-0.3,0.4
		c0,0.1,0.1,0.3,0.2,0.4c0.1,0.1,1.3,2,2.1,2.5c0.7,0.4,0.8,0.2,0.8,0.9l0.1,1.9l-0.3,5.5c0,0,0,0.3,0,0.3c0.1,0.2,0.3,0.4,0.6,0.4
		c0.2,0,0.4-0.2,0.5-0.4C246.1,362,246.8,357.5,246.8,357.5"/>
	<g>
		<path fill="#575756" d="M83.8,320.6C83.8,320.6,83.8,320.6,83.8,320.6L81.1,335l0.6,0.1l2.7-14.2c1.6,0.6,3.4,0.9,4.9-0.2
			c0.6-0.5,1.2-1.2,1.6-1.9c1.2,1.5,1.4,3.7,1.5,5.6c0,0.1,0,0.1,0,0.2c-1.4,1-2.6,2.2-3.2,3.7c-1,2.4,0.3,5,1.5,7.1
			c1.1,1.9,3.8,0,2.8-1.9c-0.6-1.1-2-3.2-1-4.4c0.3-0.4,0.6-0.7,0.9-1c0,2.9,0.4,5.9,1.5,8.6c0.8,2,4,0.9,3.1-1.1
			c-1.2-3-1.5-6.4-1.3-9.6c0.3-0.2,0.5-0.6,0.6-1c0.2-0.4,0.3-0.8,0.2-1.3c-0.1-3.4-1.2-7.7-4.2-9.7c-1.2-0.8-2.6-0.9-3.6,0.2
			c-0.6,0.7-0.8,1.8-0.5,2.7c-0.4,0.6-0.7,1.3-1.2,1.8c-0.8,0.9-2.2,0.3-3.2-0.1C83.4,317.8,82.3,320,83.8,320.6z"/>
		<circle fill="#575756" cx="89.1" cy="310.9" r="2.5"/>
	</g>
	<g>
		<path fill="#575756" d="M38.6,362.3c-0.4,0.7-0.4,1.6,0.3,2.1c0.6,0.4,1.7,0.4,2.1-0.3c0.8-1.5,2.4-2.6,2.4-2.6s-0.6-1.3-0.8-3.6
			C42.6,357.9,39.5,360.6,38.6,362.3z"/>
		<path fill="#575756" d="M50.8,349.6c-1.8-1.6-3.6-3-5.7-4.1c-0.2-0.2-0.5-0.3-0.8-0.4c-0.2-0.1-0.4-0.1-0.5-0.1
			c-0.3,0-0.6,0-0.8,0c-0.7,0.2-1.2,0.6-1.4,1.1c-1.3,1.5-2.3,3.1-3.3,4.8c-1,1.7,1.6,3.2,2.6,1.5c0.3-0.5,0.6-1,0.9-1.6
			c0.3,1.8,0.6,3.7,0.8,5.6c0,0.4,0.2,0.7,0.5,1c0.4,2.6,1.1,5.2,2.3,7.6c0.8,1.8,3.4,0.2,2.6-1.5c-0.9-1.8-1.4-3.8-1.8-5.8
			c0.8-0.6,1.1-1.5,0.9-2.5c-0.3-1.8-0.6-3.6-0.8-5.5c0.8,0.6,1.6,1.2,2.4,1.9C50.1,353,52.2,350.8,50.8,349.6z"/>
		<circle fill="#575756" cx="43.6" cy="341.7" r="2.6"/>
	</g>
	<g>
		<g>
			<circle fill="#1D1D1B" cx="148.8" cy="325.5" r="7"/>
		</g>
		<rect x="136.2" y="280.1" fill="none" width="50.2" height="50.2"/>
		<g>
			<circle fill="#B1B1B1" cx="148.8" cy="325.5" r="4.5"/>
		</g>
		<g>
			<circle fill="#1D1D1B" cx="175.9" cy="325.5" r="7"/>
		</g>
		<g>
			<circle fill="#B1B1B1" cx="175.8" cy="325.5" r="4.5"/>
		</g>
		<g>
			<path fill="#1D1D1B" d="M164.9,293.8c0-0.6,0-3.2,0-3.9c0-1.9-1.6-3.5-3.5-3.5c-1.9,0-3.5,1.6-3.5,3.5c0,0.7,0,3.2,0,3.9H164.9z"
				/>
		</g>
		<path fill="#1D1D1B" d="M185,311l-12-15.4c-0.9-1.1-1.5-1.9-2.9-1.9h-31.9c-1.1,0-1.9,0.9-1.9,1.9v27c0,1.1,0.9,1.9,1.9,1.9h3.8
			c0.5-3.3,3.3-5.9,6.8-5.9s6.3,2.6,6.8,5.9h13.6c0.5-3.3,3.3-5.8,6.7-5.8c3.4,0,6.2,2.6,6.7,5.8h2c1.1,0,1.9-0.9,1.9-1.9
			c0,0,0-5.9,0-7.7C186.5,313.1,185,311,185,311z"/>
		<path fill="#F5F5F5" d="M151.7,313.4c-4.5,0-8.1-3.6-8.1-8.1c0-4.5,3.6-8.1,8.1-8.1s8.1,3.6,8.1,8.1
			C159.8,309.7,156.2,313.4,151.7,313.4z"/>
		<path fill="#F5F5F5" d="M167.2,311v-11.6h4.9c0.3,0,0.8,0.4,0.8,0.4l7.3,9.5c0.4,0.5,0.8,1.2,0.8,1.6L167.2,311L167.2,311z"/>
		<rect x="149.8" y="299.4" fill="#1D1D1B" width="3.9" height="11.6"/>
		<rect x="145.9" y="303.3" fill="#1D1D1B" width="11.6" height="3.9"/>
	</g>
</g>
</svg>
