<?xml version="1.0" encoding="utf-8"?>
<!-- Generator: Adobe Illustrator 18.0.0, SVG Export Plug-In . SVG Version: 6.00 Build 0)  -->
<!DOCTYPE svg PUBLIC "-//W3C//DTD SVG 1.1//EN" "http://www.w3.org/Graphics/SVG/1.1/DTD/svg11.dtd">
<svg version="1.1" id="Layer_1" xmlns="http://www.w3.org/2000/svg" xmlns:xlink="http://www.w3.org/1999/xlink" x="0px" y="0px"
	 viewBox="0 0 520 520" enable-background="new 0 0 520 520" xml:space="preserve">
<g>
	<g id="XMLID_1_">
		<g>
			<path fill="#263195" d="M450,121.2v257.4c0,5.5-7.9,9.9-17.6,9.9H67.1c-9.7,0-17.6-4.4-17.6-9.9V121.2c0-5.5,7.9-9.9,17.6-9.9
				h66.5h35.2h63.3h35.2h63.4h35.2h66.5C442.1,111.3,450,115.8,450,121.2z M414.8,368.7V131.1h-48.9h-35.2h-63.4h-35.2h-63.3h-35.2
				H84.7v237.6H414.8z"/>
			<path fill="#263195" d="M414.8,131.1v237.6H84.7V131.1h48.9h35.2h63.3h35.2h63.4h35.2H414.8z M371.5,207.5
				c0-5.5-7.9-9.9-17.6-9.9H145.5c-9.7,0-17.6,4.4-17.6,9.9c0,5.5,7.9,9.9,17.6,9.9h208.4C363.6,217.4,371.5,212.9,371.5,207.5z
				 M371.5,262.9c0-5.5-7.9-9.9-17.6-9.9H145.5c-9.7,0-17.6,4.4-17.6,9.9c0,5.5,7.9,9.9,17.6,9.9h208.4
				C363.6,272.8,371.5,268.4,371.5,262.9z M281,318.4c0-5.5-5-9.9-11.1-9.9H139c-6.1,0-11.1,4.4-11.1,9.9c0,5.5,4.9,9.9,11.1,9.9
				h130.9C276,328.3,281,323.8,281,318.4z"/>
			<path fill="#FFFFFF" d="M353.9,197.6c9.7,0,17.6,4.4,17.6,9.9c0,5.5-7.9,9.9-17.6,9.9H145.5c-9.7,0-17.6-4.4-17.6-9.9
				c0-5.5,7.9-9.9,17.6-9.9H353.9z"/>
			<path fill="#FFFFFF" d="M353.9,253c9.7,0,17.6,4.4,17.6,9.9c0,5.5-7.9,9.9-17.6,9.9H145.5c-9.7,0-17.6-4.4-17.6-9.9
				c0-5.5,7.9-9.9,17.6-9.9H353.9z"/>
			<path fill="#FFFFFF" d="M269.9,308.5c6.1,0,11.1,4.4,11.1,9.9c0,5.5-5,9.9-11.1,9.9H139c-6.1,0-11.1-4.4-11.1-9.9
				c0-5.5,4.9-9.9,11.1-9.9H269.9z"/>
		</g>
		<g>
		</g>
	</g>
</g>
<path fill="#1DB6EC" d="M151.7,102.5c0.7-7.7-6.2-24.5,17.5-24.5s17.6,20,17.6,24.5c-0.1,32.4,0.8,25.2-0.1,32.5
	c2.3,6.3-22.7,18.8-34.7,0C151.3,138,151.7,102.5,151.7,102.5z"/>
<path fill="#1DB6EC" d="M318.7,102.5c0.7-7.7-6.2-24.5,17.5-24.5s17.6,20,17.6,24.5c-0.1,32.4,0.8,25.2-0.1,32.5
	c2.3,6.3-22.7,18.8-34.7,0C318.3,138,318.7,102.5,318.7,102.5z"/>
<g>
	<g id="XMLID_2_">
		<g>
			<path fill="#1DB6EC" d="M492.4,335.5c6.6,11.3,9.9,23.6,9.9,36.9s-3.3,25.7-9.9,36.9c-6.6,11.3-15.5,20.2-26.8,26.8
				c-11.3,6.6-23.6,9.9-36.9,9.9s-25.7-3.3-36.9-9.9c-11.3-6.6-20.2-15.5-26.8-26.8c-6.6-11.3-9.9-23.6-9.9-36.9s3.3-25.7,9.9-36.9
				c6.6-11.3,15.5-20.2,26.8-26.8c11.3-6.6,23.6-9.9,36.9-9.9s25.7,3.3,36.9,9.9C476.9,315.3,485.8,324.2,492.4,335.5z M471.6,378.5
				v-12.3c0-1.7-0.6-3.1-1.8-4.3c-1.2-1.2-2.7-1.8-4.3-1.8h-24.5v-24.5c0-1.7-0.6-3.1-1.8-4.3c-1.2-1.2-2.7-1.8-4.3-1.8h-12.3
				c-1.7,0-3.1,0.6-4.3,1.8c-1.2,1.2-1.8,2.6-1.8,4.3v24.5h-24.5c-1.7,0-3.1,0.6-4.3,1.8c-1.2,1.2-1.8,2.6-1.8,4.3v12.3
				c0,1.7,0.6,3.1,1.8,4.3c1.2,1.2,2.7,1.8,4.3,1.8h24.5v24.5c0,1.7,0.6,3.1,1.8,4.3c1.2,1.2,2.6,1.8,4.3,1.8h12.3
				c1.7,0,3.1-0.6,4.3-1.8c1.2-1.2,1.8-2.6,1.8-4.3v-24.5h24.5c1.7,0,3.1-0.6,4.3-1.8C471,381.6,471.6,380.2,471.6,378.5z"/>
			<path fill="#FCFCFC" d="M471.6,366.3v12.3c0,1.7-0.6,3.1-1.8,4.3c-1.2,1.2-2.7,1.8-4.3,1.8h-24.5v24.5c0,1.7-0.6,3.1-1.8,4.3
				c-1.2,1.2-2.7,1.8-4.3,1.8h-12.3c-1.7,0-3.1-0.6-4.3-1.8c-1.2-1.2-1.8-2.6-1.8-4.3v-24.5h-24.5c-1.7,0-3.1-0.6-4.3-1.8
				c-1.2-1.2-1.8-2.6-1.8-4.3v-12.3c0-1.7,0.6-3.1,1.8-4.3c1.2-1.2,2.7-1.8,4.3-1.8h24.5v-24.5c0-1.7,0.6-3.1,1.8-4.3
				c1.2-1.2,2.6-1.8,4.3-1.8h12.3c1.7,0,3.1,0.6,4.3,1.8c1.2,1.2,1.8,2.6,1.8,4.3v24.5h24.5c1.7,0,3.1,0.6,4.3,1.8
				C471,363.2,471.6,364.6,471.6,366.3z"/>
		</g>
		<g>
		</g>
	</g>
</g>
</svg>
