<?xml version="1.0" encoding="utf-8"?>
<!-- Generator: Adobe Illustrator 18.0.0, SVG Export Plug-In . SVG Version: 6.00 Build 0)  -->
<!DOCTYPE svg PUBLIC "-//W3C//DTD SVG 1.1//EN" "http://www.w3.org/Graphics/SVG/1.1/DTD/svg11.dtd">
<svg version="1.1" id="Layer_1" xmlns="http://www.w3.org/2000/svg" xmlns:xlink="http://www.w3.org/1999/xlink" x="0px" y="0px"
	 viewBox="0 0 20 20" enable-background="new 0 0 20 20" xml:space="preserve">
<g>
	<g>
		<path fill="none" stroke="#9C9C9C" stroke-width="0.8" stroke-miterlimit="10" d="M17.5,5.5h-3.8V4.8c0-0.8-0.7-1.5-1.5-1.5H7.7
			c-0.8,0-1.5,0.7-1.5,1.5v0.8H2.5C1.6,5.5,1,6.2,1,7v9.8c0,0.8,0.7,1.5,1.5,1.5h15.1c0.8,0,1.5-0.7,1.5-1.5V7
			C19,6.2,18.4,5.5,17.5,5.5z M7,4.8C7,4.4,7.3,4,7.7,4h4.5C12.7,4,13,4.4,13,4.8v0.8H7V4.8z M18.3,16.8c0,0.4-0.3,0.8-0.8,0.8H2.5
			c-0.4,0-0.8-0.3-0.8-0.8v-6.4c1.6,1.4,5.5,1.8,6.8,1.9v0c0,0.8,0.7,1.5,1.5,1.5s1.5-0.7,1.5-1.5v0c1.3-0.1,5.1-0.5,6.8-1.9
			L18.3,16.8L18.3,16.8z M9.2,12.3v-0.8c0-0.4,0.3-0.8,0.8-0.8s0.8,0.3,0.8,0.8v0.8c0,0.4-0.3,0.8-0.8,0.8
			C9.6,13.1,9.2,12.7,9.2,12.3z M18.3,8.9c0,1.6-4,2.4-6.8,2.6c0-0.8-0.7-1.5-1.5-1.5s-1.5,0.7-1.5,1.5c-2.8-0.2-6.8-1-6.8-2.6V7
			c0-0.4,0.3-0.8,0.8-0.8h15.1c0.4,0,0.8,0.3,0.8,0.8L18.3,8.9L18.3,8.9z"/>
	</g>
</g>
</svg>
