<?xml version="1.0" encoding="utf-8"?>
<!-- Generator: Adobe Illustrator 18.0.0, SVG Export Plug-In . SVG Version: 6.00 Build 0)  -->
<!DOCTYPE svg PUBLIC "-//W3C//DTD SVG 1.1//EN" "http://www.w3.org/Graphics/SVG/1.1/DTD/svg11.dtd">
<svg version="1.1" id="Capa_1" xmlns="http://www.w3.org/2000/svg" xmlns:xlink="http://www.w3.org/1999/xlink" x="0px" y="0px"
	 viewBox="0 0 50 50" enable-background="new 0 0 50 50" xml:space="preserve">
<g>
	<path fill="#B3B3BF" d="M46.6,12.5c-2.2-3.8-5.3-6.9-9.1-9.1C33.7,1.1,29.5,0,25,0s-8.7,1.1-12.6,3.4s-6.9,5.3-9.1,9.1S0,20.5,0,25
		s1.1,8.7,3.4,12.6s5.3,6.9,9.1,9.1c3.8,2.2,8,3.4,12.6,3.4s8.7-1.1,12.6-3.4c3.8-2.2,6.9-5.3,9.1-9.1c2.2-3.8,3.4-8,3.4-12.6
		C50,20.5,48.9,16.3,46.6,12.5z"/>
</g>
</svg>
