<?xml version="1.0" encoding="utf-8"?>
<!-- Generator: Adobe Illustrator 18.0.0, SVG Export Plug-In . SVG Version: 6.00 Build 0)  -->
<!DOCTYPE svg PUBLIC "-//W3C//DTD SVG 1.1//EN" "http://www.w3.org/Graphics/SVG/1.1/DTD/svg11.dtd">
<svg version="1.1" id="Capa_1" xmlns="http://www.w3.org/2000/svg" xmlns:xlink="http://www.w3.org/1999/xlink" x="0px" y="0px"
	 viewBox="0 45 200 155" enable-background="new 0 45 200 155" xml:space="preserve">
<g>
	<path fill="none" stroke="#666666" stroke-width="12" stroke-miterlimit="10" d="M192.5,173.2c0,11.5-9.4,21-21,21h-143
		c-11.5,0-21-9.4-21-21V97.4c0-11.5,9.4-21,21-21h25.2c5.5,0,10.2-3.5,11.9-8.7l2.6-8c1.7-5.2,6.5-8.7,11.9-8.7h39.3
		c5.5,0,10.2,3.5,11.9,8.7l2.6,8c1.7,5.2,6.5,8.7,11.9,8.7h25.2c11.5,0,21,9.4,21,21L192.5,173.2L192.5,173.2z"/>
	<g display="none">
		<path display="inline" fill="#666666" d="M101.6,106.2c-17.8,0-32.4,14.6-32.4,32.4c0,2.2,1.7,4.1,4.1,4.1s4.1-1.7,4.1-4.1
			c0-13.4,10.9-24.2,24.2-24.2c2.2,0,4.1-1.7,4.1-4.1C105.6,107.9,103.7,106.2,101.6,106.2z"/>
	</g>
</g>
<path fill="none" stroke="#666666" stroke-width="12" stroke-miterlimit="10" d="M100,100.8c-19.8,0-36,16.1-36,36s16.1,36,36,36
	s36-16.1,36-36S119.9,100.8,100,100.8z"/>
</svg>
