<?xml version="1.0" encoding="utf-8"?>
<!-- Generator: Adobe Illustrator 18.0.0, SVG Export Plug-In . SVG Version: 6.00 Build 0)  -->
<!DOCTYPE svg PUBLIC "-//W3C//DTD SVG 1.1//EN" "http://www.w3.org/Graphics/SVG/1.1/DTD/svg11.dtd">
<svg version="1.1" id="Layer_1" xmlns="http://www.w3.org/2000/svg" xmlns:xlink="http://www.w3.org/1999/xlink" x="0px" y="0px"
	 viewBox="0 0 500 500" enable-background="new 0 0 500 500" xml:space="preserve">
<g id="Layer_2" display="none">
	<g display="inline">
		<path fill="#777777" d="M2618.9,657c-497.8,106.6-1036.9,606.5-1543.3,606.5C314.7,1263.6,184.3,702.8-493.9,657
			c-747.8-37-1462.9,260.8-1684.7,345.6s-193.4,189.2-180.4,221.8c28.2,63,52.2,93.4,208.6,67.4c0,0,1026-426,1730.3-354.3
			c352.2,50,741.2,606.5,1489.1,613c528.2,4.4,1078.1-519.5,1597.7-630.4c789.1-167.4,1510.7,408.6,1510.7,408.6
			c87,0,200-87,91.2-243.4C4216.6,1011.4,3444.9,481,2618.9,657z"/>
	</g>
	<g display="inline">
		<path fill="#777777" d="M2621.1,1352.6c-497.8,106.6-1036.9,606.5-1543.3,606.5c-760.8,0-891.2-560.8-1569.5-606.5
			c-747.8-37-1462.9,260.8-1684.7,345.6s-193.4,189.2-180.4,221.8c28.2,63,50,102.2,208.6,67.4c0,0,1026-426,1730.3-354.3
			c352.2,50,741.2,606.5,1489.1,613c528.2,4.4,1078.1-519.5,1597.7-630.4c789.1-167.4,1510.7,408.6,1510.7,408.6
			c87,0,200-87,91.2-243.4C4218.8,1707,3447.1,1176.6,2621.1,1352.6z"/>
	</g>
</g>
<g id="Capa_1">
	<circle fill="none" stroke="#E22020" stroke-width="34" stroke-miterlimit="10" cx="250.2" cy="250.2" r="228.1"/>
</g>
<path fill="none" stroke="#E22020" stroke-width="34" stroke-miterlimit="10" d="M147.2,138.2c-10.8-10.8,219.7,219.7,213.1,213.1"
	/>
<path fill="none" stroke="#E22020" stroke-width="34" stroke-miterlimit="10" d="M129.1,360.3C117.3,371.5,367.6,133.1,360.4,140"/>
</svg>
