<?xml version="1.0" encoding="utf-8"?>
<!-- Generator: Adobe Illustrator 18.0.0, SVG Export Plug-In . SVG Version: 6.00 Build 0)  -->
<!DOCTYPE svg PUBLIC "-//W3C//DTD SVG 1.1//EN" "http://www.w3.org/Graphics/SVG/1.1/DTD/svg11.dtd">
<svg version="1.1" id="Capa_1" xmlns="http://www.w3.org/2000/svg" xmlns:xlink="http://www.w3.org/1999/xlink" x="0px" y="0px"
	 viewBox="240 240 20 20" enable-background="new 240 240 20 20" xml:space="preserve">
<g id="Close">
	<path fill="#F90303" d="M251.7,250l5.2-5.2c0.5-0.5,0.5-1.2,0-1.7c-0.5-0.5-1.2-0.5-1.7,0l-5.2,5.2l-5.2-5.2
		c-0.5-0.5-1.2-0.5-1.7,0c-0.5,0.5-0.5,1.2,0,1.7l5.2,5.2l-5.2,5.2c-0.5,0.5-0.5,1.2,0,1.7c0.5,0.5,1.2,0.5,1.7,0l5.2-5.2l5.2,5.2
		c0.5,0.5,1.2,0.5,1.7,0c0.5-0.5,0.5-1.2,0-1.7L251.7,250z"/>
</g>
</svg>
