<?xml version="1.0" encoding="utf-8"?>
<!-- Generator: Adobe Illustrator 18.0.0, SVG Export Plug-In . SVG Version: 6.00 Build 0)  -->
<!DOCTYPE svg PUBLIC "-//W3C//DTD SVG 1.1//EN" "http://www.w3.org/Graphics/SVG/1.1/DTD/svg11.dtd">
<svg version="1.1" id="Layer_1" xmlns="http://www.w3.org/2000/svg" xmlns:xlink="http://www.w3.org/1999/xlink" x="0px" y="0px"
	 viewBox="0 0 520 520" enable-background="new 0 0 520 520" xml:space="preserve">
<g>
	<g>
		<path display="none" fill="#4F7FBA" d="M555,313.5H240.1c-31.8,0-57.8,31.1-57.8,69.1v164.8c0,38,26,69.1,57.8,69.1h252.1
			l87.6,68.6v-75.4c19.5-11.2,33-35,33-62.4V382.6C612.8,344.6,586.8,313.5,555,313.5z"/>
		<path fill="#1DB6EC" d="M454.7,83.5H139.8C108,83.5,82,114.6,82,152.6v164.8c0,38,26,69.1,57.8,69.1h252.1l87.6,68.6v-75.4
			c19.5-11.2,33-35,33-62.4V152.6C512.5,114.6,486.5,83.5,454.7,83.5z"/>
	</g>
	<g>
		<path fill="#263195" d="M395.7,46.6H80.8C49,46.6,23,77.7,23,115.7v164.8c0,27.4,13.5,51.2,33,62.4v75.4l87.6-68.6h252.1
			c31.8,0,57.8-31.1,57.8-69.1V115.7C453.5,77.7,427.5,46.6,395.7,46.6z"/>
		<path display="none" fill="#0071CE" d="M395.7,20.4H80.8C49,20.4,23,51.5,23,89.5v164.8c0,27.4,13.5,51.2,33,62.4v75.4l87.6-68.6
			h252.1c31.8,0,57.8-31.1,57.8-69.1V89.5C453.5,51.5,427.5,20.4,395.7,20.4z"/>
		<g>
			<path fill="#FFFFFF" d="M360.6,158H115.9c-4.3,0-7.7-6.4-7.7-14.4s3.4-14.4,7.7-14.4h244.7c4.3,0,7.7,6.4,7.7,14.4
				C368.3,151.6,364.8,158,360.6,158z"/>
			<path display="none" fill="#FFFFFF" d="M360.6,181.1H115.9c-4.3,0-7.7-4.1-7.7-9.2s3.4-9.2,7.7-9.2h244.7c4.3,0,7.7,4.1,7.7,9.2
				C368.3,177,364.8,181.1,360.6,181.1z"/>
			<path fill="#FFFFFF" d="M360.6,228.6H115.9c-4.3,0-7.7-6.9-7.7-15.3c0-8.4,3.4-15.3,7.7-15.3h244.7c4.3,0,7.7,6.9,7.7,15.3
				C368.3,221.7,364.8,228.6,360.6,228.6z"/>
		</g>
	</g>
</g>
</svg>
