<?xml version="1.0" encoding="utf-8"?>
<!-- Generator: Adobe Illustrator 18.0.0, SVG Export Plug-In . SVG Version: 6.00 Build 0)  -->
<!DOCTYPE svg PUBLIC "-//W3C//DTD SVG 1.1//EN" "http://www.w3.org/Graphics/SVG/1.1/DTD/svg11.dtd">
<svg version="1.1" id="Layer_1" xmlns="http://www.w3.org/2000/svg" xmlns:xlink="http://www.w3.org/1999/xlink" x="0px" y="0px"
	 viewBox="4.5 1 195.5 197" enable-background="new 4.5 1 195.5 197" xml:space="preserve">
<g>
	<rect x="91.7" y="108.3" fill="none" stroke="#666666" stroke-width="6" stroke-miterlimit="10" width="16.7" height="16.7"/>
	<rect x="41.7" y="108.3" fill="none" stroke="#666666" stroke-width="6" stroke-miterlimit="10" width="16.7" height="16.7"/>
	<rect x="141.7" y="108.3" fill="none" stroke="#666666" stroke-width="6" stroke-miterlimit="10" width="16.7" height="16.7"/>
	<rect x="141.7" y="150" fill="none" stroke="#666666" stroke-width="6" stroke-miterlimit="10" width="16.7" height="16.7"/>
	<rect x="41.7" y="150" fill="none" stroke="#666666" stroke-width="6" stroke-miterlimit="10" width="16.7" height="16.7"/>
	<polygon fill="none" stroke="#666666" stroke-width="6" stroke-miterlimit="10" points="105.8,40 94.2,40 94.2,52.5 81.7,52.5 
		81.7,64.2 94.2,64.2 94.2,76.7 105.8,76.7 105.8,64.2 118.3,64.2 118.3,52.5 105.8,52.5 	"/>
</g>
<path display="none" fill="#666666" d="M191.7,66.7h-33.3V8.3c0-5-5.8-8.3-10-8.3h-100c-5,0-6.7,3.3-6.7,8.3v58.3H8.3
	C3.3,66.7,0,70,0,75v125h200V75C200,70,196.7,66.7,191.7,66.7z M-21.7,83.3H-55V25c0-5-5.8-8.3-10-8.3h-100c-5,0-6.7,3.3-6.7,8.3
	v58.3h-33.4c-5,0.1-8.3,3.4-8.3,8.4v125h200v-125C-13.4,86.7-16.7,83.3-21.7,83.3z M116.5,188.8l-33.3-0.3l0.1-38.5h33.3
	L116.5,188.8L116.5,188.8z M187.6,187.6L125,188v-46.4H75l0.8,46.9L11,188.8l0.5-112.1h41L53.1,13l94,0.7l1.5,65.3l38.8,0.5l0.4,108
	H187.6z"/>
<polygon fill="none" stroke="#666666" stroke-width="12" stroke-linecap="square" stroke-miterlimit="10" points="156,68.8 156,7 
	49,7 49,69 26.8,69 11,69 11,192 195,192 195,68.5 "/>
</svg>
