<?xml version="1.0" encoding="utf-8"?>
<!-- Generator: Adobe Illustrator 18.0.0, SVG Export Plug-In . SVG Version: 6.00 Build 0)  -->
<!DOCTYPE svg PUBLIC "-//W3C//DTD SVG 1.1//EN" "http://www.w3.org/Graphics/SVG/1.1/DTD/svg11.dtd">
<svg version="1.1" id="Capa_1" xmlns="http://www.w3.org/2000/svg" xmlns:xlink="http://www.w3.org/1999/xlink" x="0px" y="0px"
	 viewBox="0 0 200 200" enable-background="new 0 0 200 200" xml:space="preserve">
<g>
	<g>
		<path fill="#666666" d="M190.5,60.4C180,35.9,162.2,18,137.5,7.5c-12.4-5.2-25.3-7.9-38.8-7.9S72.3,2.2,60,7.5
			C35.5,18,17.5,35.8,7,60.4C1.7,72.7-0.9,85.6-0.9,99.1s2.6,26.5,7.9,38.8c10.5,24.5,28.5,42.4,52.9,52.9
			c12.3,5.3,25.2,7.9,38.7,7.9s26.4-2.7,38.8-7.9c24.7-10.6,42.6-28.5,53.1-52.9c5.3-12.3,7.9-25.3,7.9-38.8
			C198.5,85.6,195.8,72.7,190.5,60.4z M174.6,143.1c-7.8,13.4-18.5,24.1-32,31.9c-13.4,7.8-28.1,11.8-43.9,11.8
			c-11.9,0-23.2-2.3-34-7s-20.1-10.9-27.9-18.6c-7.8-7.8-14-17.2-18.6-28s-6.9-22.2-6.9-34.1c0-15.8,3.9-30.4,11.7-43.8
			s18.5-24.1,31.9-31.9c13.4-7.9,28-11.8,43.8-11.8s30.5,3.9,43.9,11.8c13.5,7.9,24.2,18.5,32,31.9s11.8,28,11.8,43.8
			C186.4,114.9,182.5,129.6,174.6,143.1z"/>
		<path fill="#666666" d="M105,98.2V41.8c0-3.4-3-6.1-6.3-6.1c-3.2,0-6,2.7-6,6.1v57.3c0,0.1,0.2,0.5,0.2,0.9
			c-0.2,1.9,0.3,3.6,1.6,4.9l32.6,32.6c2.2,2.2,6.2,2.2,8.4,0c2.5-2.5,2.3-6.2,0-8.5L105,98.2z"/>
	</g>
</g>
</svg>
