<?xml version="1.0" encoding="utf-8"?>
<!-- Generator: Adobe Illustrator 18.0.0, SVG Export Plug-In . SVG Version: 6.00 Build 0)  -->
<!DOCTYPE svg PUBLIC "-//W3C//DTD SVG 1.1//EN" "http://www.w3.org/Graphics/SVG/1.1/DTD/svg11.dtd">
<svg version="1.1" id="Capa_1" xmlns="http://www.w3.org/2000/svg" xmlns:xlink="http://www.w3.org/1999/xlink" x="0px" y="0px"
	 viewBox="0 0 512 512" enable-background="new 0 0 512 512" xml:space="preserve">
<g>
	<path fill="#8C8C8E" d="M102.4,145.1h128c4.7,0,8.5-3.8,8.5-8.5s-3.8-8.5-8.5-8.5h-128c-4.7,0-8.5,3.8-8.5,8.5
		S97.7,145.1,102.4,145.1z"/>
	<path fill="#8C8C8E" d="M392.5,196.3H102.4c-4.7,0-8.5,3.8-8.5,8.5c0,4.7,3.8,8.5,8.5,8.5h290.1c4.7,0,8.5-3.8,8.5-8.5
		C401.1,200.1,397.3,196.3,392.5,196.3z"/>
	<path fill="#8C8C8E" d="M392.5,264.5H102.4c-4.7,0-8.5,3.8-8.5,8.5c0,4.7,3.8,8.5,8.5,8.5h290.1c4.7,0,8.5-3.8,8.5-8.5
		S397.3,264.5,392.5,264.5z"/>
	<path fill="#8C8C8E" d="M460.8,17.1H51.2C23.4,17.1,0,40.5,0,68.3v281.6c0,27.8,23.4,51.2,51.2,51.2h68.3v85.3c0,3.5,2.2,6.7,5.5,8
		c1,0.4,2,0.6,3.1,0.6c2.4,0,4.7-1,6.3-2.8l82.8-91.1h243.7c27.8,0,51.2-23.4,51.2-51.2V68.3C512,40.5,488.6,17.1,460.8,17.1z
		 M494.9,349.9c0,18.5-15.6,34.1-34.1,34.1H231.9l30.5-35.5c3.1-3.6,2.7-9-0.9-12c-3.6-3.1-9-2.7-12,0.9L207,386.8l0,0l-70.5,77.5
		v-71.8c0-4.7-3.8-8.5-8.5-8.5H51.2c-18.5,0-34.1-15.6-34.1-34.1V68.3c0-18.5,15.6-34.1,34.1-34.1h409.6c18.5,0,34.1,15.6,34.1,34.1
		V349.9z"/>
</g>
</svg>
