<?xml version="1.0" encoding="utf-8"?>
<!-- Generator: Adobe Illustrator 18.0.0, SVG Export Plug-In . SVG Version: 6.00 Build 0)  -->
<!DOCTYPE svg PUBLIC "-//W3C//DTD SVG 1.1//EN" "http://www.w3.org/Graphics/SVG/1.1/DTD/svg11.dtd">
<svg version="1.1" id="Capa_1" xmlns="http://www.w3.org/2000/svg" xmlns:xlink="http://www.w3.org/1999/xlink" x="0px" y="0px"
	 viewBox="0 0 500 500" enable-background="new 0 0 500 500" xml:space="preserve">
<g>
	<g>
		<path fill="#777777" d="M434.5,379.4c-9.6,1.3-19.3,1.9-28.9,1.9c-121,0-219.4-98.4-219.4-219.4c0-48.9,15.7-95.1,45.5-133.7
			L253.2,0l-35.2,4.6c-59.3,7.8-113.9,36.9-153.7,82C24.2,132,2,190.5,2,251.2c0,66.4,25.9,128.9,72.9,175.9
			c47,47,109.5,72.9,175.9,72.9c39.3,0,76.8-8.9,111.7-26.4c33.2-16.7,62.8-41.2,85.5-70.7l21.6-28.1L434.5,379.4z M250,476.3
			c-121,0-224.8-110.3-224.8-231.3C25.2,147,100.5,53,209.7,23c-20.6,36.8-42.3,76.3-46.2,126.3c-5.1,66.2,25.4,137.7,72.4,184.7
			c46.1,46.1,122.5,70,187.5,71C382.8,443.5,307,476.3,250,476.3z"/>
	</g>
</g>
</svg>
