<?xml version="1.0" encoding="utf-8"?>
<!-- Generator: Adobe Illustrator 18.0.0, SVG Export Plug-In . SVG Version: 6.00 Build 0)  -->
<!DOCTYPE svg PUBLIC "-//W3C//DTD SVG 1.1//EN" "http://www.w3.org/Graphics/SVG/1.1/DTD/svg11.dtd">
<svg version="1.1" id="Layer_1" xmlns="http://www.w3.org/2000/svg" xmlns:xlink="http://www.w3.org/1999/xlink" x="0px" y="0px"
	 viewBox="15.7 0 468.6 500" enable-background="new 15.7 0 468.6 500" xml:space="preserve">
<path fill="#09215B" stroke="#000000" stroke-miterlimit="10" d="M460.3,255.9H43.9c-13.5,0-24.6,11-24.8,24.4l-3.4,195.3
	c-0.2,13.5,10.5,24.4,24,24.4h416.3c13.5,0,24.6-11,24.8-24.4l3.4-195.3C484.5,266.9,473.7,255.9,460.3,255.9z"/>
<g>
	<g id="XMLID_1_">
		<g>
			<path fill="#213596" d="M193.9,406.1c22.7-75.2,31.7-101.2,55.9-101.4h0.1l0,0h0.1c24.2,0,33.3,26.1,56.1,101.4
				c5.4,17.8,10.9,36.2,16,50.9c3.5,9.9,6.1,16.1,7.9,20c3.4-2,6.8-5.4,10.3-10.2c13.7-18.6,54.8-205.5,54.8-205.5l21.1-77.2V184
				v-0.1c7.1-15.2,10.7-31.6,10.7-48.6c0-30.6-11.9-59.4-33.6-81.1s-50.4-33.6-81.1-33.6c-18.7,0-36.4,4.4-52.8,12.9l-9.7,5l-9.7-5
				c-16.4-8.6-34.3-12.9-52.8-12.9c-30.6,0-59.4,11.9-81.1,33.6s-33.6,50.4-33.6,81.1c0,17,3.6,33.3,10.8,48.6v0.1v0.1
				c0,0,26,135.5,32,178.3c6.3,44.3,30.2,85.8,43.8,104.4c3.5,4.8,6.9,8.1,10.4,10.2c1.9-3.9,4.5-10.2,7.9-20
				C183,442.3,188.6,423.8,193.9,406.1z M250,325.6L250,325.6c-20.1,0.1-52.4,174.4-72.9,174.4c-65.3,0-93.9-177.7-94.6-219.7
				l-23.1-86.5c-5.8-19.6-7.2-37.8-7.2-58.3C52.1,60.6,112.7,0,187.5,0c22.6,0,43.8,5.6,62.5,15.2C268.8,5.6,289.9,0,312.5,0
				c74.8,0,135.4,60.6,135.4,135.4c0,20.5-6.4,48.6-10.8,60.1l-18.8,91.6c-0.9,41.6-30.1,212.9-95.3,212.9
				C302.3,500,270.1,325.6,250,325.6z"/>
			<path fill="#0FBCF9" d="M330,477.1c-1.9-3.9-4.4-10.2-7.9-20c-5.2-14.7-10.6-33.1-16-50.9c-22.7-75.4-31.8-101.5-56.1-101.5h-0.1
				l0,0h-0.1c-24.1,0.2-33.2,26.2-55.9,101.4c-5.4,17.8-10.9,36.2-16.1,51c-3.5,9.9-6.1,16.1-7.9,20c-3.3-2-6.8-5.4-10.4-10.2
				c-13.7-18.6-37.5-60.1-43.8-104.4c-6.1-42.9-32-178.3-32-178.3v-0.1V184c-7.1-15.2-10.8-31.6-10.8-48.6
				c0-30.6,11.9-59.4,33.6-81.1s50.4-33.6,81.1-33.6c18.7,0,36.4,4.4,52.8,12.9l9.7,5l9.7-5c16.4-8.6,34.3-12.9,52.8-12.9
				c30.6,0,59.4,11.9,81.1,33.6s33.6,50.4,33.6,81.1c0,17-3.6,33.3-10.7,48.6v0.1v0.1l-21.1,77.2c0,0-41.1,186.9-54.8,205.5
				C336.8,471.6,333.4,475,330,477.1z M197.9,52.1c0-5.8-4.7-10.4-10.4-10.4c-51.8,0-93.8,42-93.8,93.8c0,5.8,4.7,10.4,10.4,10.4
				s10.4-4.7,10.4-10.4c0-19.4,7.6-37.8,21.4-51.6c13.7-13.7,32-21.3,51.5-21.3C193.3,62.5,197.9,57.8,197.9,52.1z"/>
			<path fill="#213596" d="M187.5,41.7c5.8,0,10.4,4.7,10.4,10.4s-4.7,10.4-10.4,10.4c-19.4,0-37.8,7.6-51.6,21.4
				s-21.4,32.1-21.4,51.6c0,5.8-4.7,10.4-10.4,10.4c-5.8,0-10.4-4.7-10.4-10.4C93.8,83.6,135.7,41.7,187.5,41.7z"/>
		</g>
	</g>
</g>
</svg>
