<?xml version="1.0" encoding="utf-8"?>
<!-- Generator: Adobe Illustrator 18.0.0, SVG Export Plug-In . SVG Version: 6.00 Build 0)  -->
<!DOCTYPE svg PUBLIC "-//W3C//DTD SVG 1.1//EN" "http://www.w3.org/Graphics/SVG/1.1/DTD/svg11.dtd">
<svg version="1.1" id="Capa_1" xmlns="http://www.w3.org/2000/svg" xmlns:xlink="http://www.w3.org/1999/xlink" x="0px" y="0px"
	 viewBox="0 0 520 520" enable-background="new 0 0 520 520" xml:space="preserve">
<g>
	<g>
		<g>
			<path fill="#C25D43" d="M179.1,76.6v172.8c0,29.7-24.2,54-54,54H54c-29.7,0-54-24.2-54-54V76.6c0-29.7,24.2-54,54-54h71.9
				c29.7,0,54,24.2,54,54H179.1z M147.8,249.4V76.6c0-12.5-10.2-22.7-22.7-22.7H54c-12.5,0-22.7,10.2-22.7,22.7v172.8
				c0,12.5,10.2,22.7,22.7,22.7h71.9c12.5,0,22.7-10.2,22.7-22.7H147.8z"/>
		</g>
		<path display="none" fill="#C25D43" d="M101.7,94.6c0,7.8-6.3,14.1-14.1,14.1h-3.9c-7.8,0-14.1-6.3-14.1-14.1v-3.9
			c0-7.8,6.3-14.1,14.1-14.1h3.9c7.8,0,14.1,6.3,14.1,14.1V94.6z"/>
		<g>
			<path fill="#C25D43" d="M329.2,21.9c10.9,0.8,22.7,0.8,35.2,0.8c10.2,0,18.8,0,26.6,0c6.3,0,11.7,0,17.2,0l0,0
				c14.9,0,26.6,0.8,36,5.5c14.9,4.7,25.8,18,28.2,33.6c1.6,7.8,0,15.6-2.3,21.9c10.2,8.6,17.2,20.3,18.8,32.8
				c0.8,8.6-0.8,18-3.9,25.8v0.8c10.2,8.6,17.2,21.1,18.8,35.2c1.6,11.7-0.8,24.2-6.3,34.4c12.5,10.2,21.1,25,23.5,41.4
				c2.3,17.2-2.3,34.4-12.5,47.7c-10.2,13.3-25,21.9-42.2,24.2c-3.1,0.8-5.5,0.8-8.6,0.8c-3.9,0-9.4,0-18,0c-6.3,0-14.9,0-24.2,0
				c-15.6,0-32.8,1.6-50,3.1c0,3.1,0,7.8,0.8,9.4c1.6,7.8,5.5,16.4,9.4,25c5.5,13.3,11.7,27.4,13.3,42.2
				c4.7,46.9-19.5,69.6-41.4,83.7c-7.8,5.5-16.4,7.8-26.6,7.8c-14.9,0-26.6-7-28.2-7.8c-5.5-3.1-8.6-8.6-7.8-14.9
				c0.8-8.6,0.8-34.4-7-54c-4.7-10.9-18.8-33.6-32.8-55.5c-20.3-31.3-32.8-52.4-37.5-65.7l-2.3-7c-1.6-1.6-0.8-3.9-0.8-6.3V89.9
				c0-1.6-0.8-2.3-0.8-3.9c14.1-59.4,55.5-64.1,94.6-64.1C306.5,21.9,315.9,22.7,329.2,21.9z M234.6,91.5v192.4l3.1,7
				c0.8,0,0,0.8,0,1.6c3.1,10.2,20.3,36.8,34.4,58.6c15.6,24.2,30.5,46.9,36,61c7.8,19.5,9.4,42.2,9.4,55.5c4.7,0.8,10.2,0,14.1-2.3
				c15.6-10.9,30.5-23.5,27.4-54.7c-0.8-9.4-5.5-20.3-10.9-32.1c-4.7-9.4-9.4-19.5-11.7-29.7c-1.6-5.5-1.6-11.7-1.6-18
				c0-4.7,0-8.6-0.8-12.5c-0.8-3.9,0.8-8.6,3.1-11.7c3.1-3.1,7-5.5,10.9-5.5l4.7-0.8c21.1-2.3,43-3.9,62.6-3.9c9.4,0,18,0,24.2,0
				c7,0,12.5,0,16.4,0h0.8c0.8,0,2.3,0,3.9,0c8.6-0.8,16.4-5.5,21.9-12.5c5.5-7,7-15.6,6.3-24.2c-1.6-9.4-6.3-17.2-14.1-22.7
				c-10.2-7-14.1-25.8-7-36c3.1-4.7,4.7-10.9,3.9-17.2c-0.8-7-4.7-13.3-10.2-17.2c-10.9-8.6-10.2-27.4-6.3-35.2
				c1.6-3.1,2.3-7,1.6-10.2c-0.8-6.3-3.9-10.9-9.4-14.1c-4.7-3.1-8.6-7.8-10.2-14.1c-1.6-6.3-0.8-14.1,2.3-19.5
				c0.8-1.6,0.8-4.7,0.8-6.3c-0.8-4.7-4.7-7.8-7.8-8.6c-0.8-0.8-2.3-0.8-3.1-1.6c-4.7-2.3-18-2.3-22.7-2.3l0,0c-5.5,0-10.9,0-17.2,0
				c-8.6,0-17.2,0-27.4,0c-12.5,0-24.2-0.8-36-0.8c-10.2-0.8-18.8-0.8-27.4-0.8C259.6,53.2,242.4,58.6,234.6,91.5L234.6,91.5z"/>
		</g>
		<g display="none">
			<path display="inline" fill="#C25D43" d="M373.8,80.5c0.8,0.8,0.8,0.8,0.8,1.6c0,7.8-7.8,7.8-10.2,7.8c-4.7,0-7.8-3.1-7.8-7.8
				c0-3.9,3.9-7,7.8-7c0.8,0,1.6,1.6,2.3,1.6l0,0C370.6,76.6,373,77.4,373.8,80.5z"/>
		</g>
		<g display="none">
			<path display="inline" fill="#C25D43" d="M332.3,72.7c3.1,0,7,0.8,10.9,0.8c3.9,0.8,7.8,4.7,7,8.6s-4.7,7-8.6,7
				c-3.9,0-7-0.8-10.9-0.8c-28.2-1.6-43.8-3.1-59.4,14.9c-3.1,3.1-7.8,3.9-10.9,0.8c-3.1-3.1-3.9-7.8-0.8-10.9
				c14.9-17.2,31.3-21.1,50-21.1C316.7,71.9,324.5,71.9,332.3,72.7z"/>
		</g>
	</g>
</g>
</svg>
