<?xml version="1.0" encoding="utf-8"?>
<!-- Generator: Adobe Illustrator 18.0.0, SVG Export Plug-In . SVG Version: 6.00 Build 0)  -->
<!DOCTYPE svg PUBLIC "-//W3C//DTD SVG 1.1//EN" "http://www.w3.org/Graphics/SVG/1.1/DTD/svg11.dtd">
<svg version="1.1" id="Layer_1" xmlns="http://www.w3.org/2000/svg" xmlns:xlink="http://www.w3.org/1999/xlink" x="0px" y="0px"
	 viewBox="0 41.5 500 416.7" enable-background="new 0 41.5 500 416.7" xml:space="preserve">
<g>
	<g id="XMLID_1_">
		<g>
			<path fill="#0FBCF9" d="M479.2,145.8v270.8c0,11.5-9.4,20.8-20.8,20.8H41.7c-11.5,0-20.8-9.4-20.8-20.8V145.8
				c0-11.5,9.4-20.8,20.8-20.8h416.7C469.8,125,479.2,134.4,479.2,145.8z M354.2,323v-62.5c0-5.8-4.7-10.5-10.5-10.5h-52v-52
				c0-5.8-4.7-10.5-10.5-10.5h-62.5c-5.8,0-10.5,4.7-10.5,10.5v52h-52c-5.8,0-10.5,4.7-10.5,10.5V323c0,5.8,4.7,10.5,10.5,10.5h52
				v52c0,5.8,4.7,10.5,10.5,10.5h62.5c5.8,0,10.5-4.7,10.5-10.5v-52h52C349.5,333.3,354.2,328.7,354.2,323z"/>
			<path fill="#26318A" d="M354.2,260.5V323c0,5.8-4.7,10.4-10.5,10.5h-52v52c0,5.8-4.7,10.5-10.5,10.5h-62.5
				c-5.8,0-10.5-4.7-10.5-10.5v-52h-52c-5.8,0-10.5-4.7-10.5-10.5v-62.5c0-5.8,4.7-10.5,10.5-10.5h52v-52c0-5.8,4.7-10.5,10.5-10.5
				h62.5c5.8,0,10.5,4.7,10.5,10.5v52h52C349.5,250,354.2,254.7,354.2,260.5z"/>
		</g>
	</g>
	<path fill="#26318A" d="M500,145.8v270.8c0,23-18.7,41.7-41.7,41.7H41.7C18.7,458.3,0,439.6,0,416.6V145.8
		c0-23,18.7-41.7,41.7-41.7H146V83.3c0-23,18.7-41.7,41.7-41.7h125c23,0,41.7,18.7,41.7,41.7V104h104.2
		C481.3,104.2,500,122.9,500,145.8z M479.2,416.7v-271c0-11.5-9.4-20.8-20.8-20.8H41.7c-11.5,0-20.8,9.4-20.8,20.8v270.8
		c0,11.5,9.4,20.8,20.8,20.8h416.7C469.8,437.5,479.2,428.2,479.2,416.7z M333.3,104.2v-21c0-11.5-9.4-20.8-20.8-20.8h-125
		c-11.5,0-20.8,9.4-20.8,20.8V104h166.6L333.3,104.2L333.3,104.2z"/>
	<path fill="#26318A" d="M354.2,260.5V323c0,5.8-4.7,10.5-10.5,10.5h-52v52c0,5.8-4.7,10.5-10.5,10.5h-62.5
		c-5.8,0-10.5-4.7-10.5-10.5v-52h-52c-5.8,0-10.5-4.7-10.5-10.5v-62.5c0-5.8,4.7-10.5,10.5-10.5h52v-52c0-5.8,4.7-10.5,10.5-10.5
		h62.5c5.8,0,10.5,4.7,10.5,10.5v52h52C349.5,250,354.2,254.7,354.2,260.5z M333.3,312.5v-41.7h-52c-5.8,0-10.5-4.7-10.5-10.5v-52
		H229v52c0,5.8-4.7,10.5-10.5,10.5h-52v41.7h52.1c5.8,0,10.5,4.7,10.5,10.5v52h41.7v-52c0-5.8,4.7-10.5,10.5-10.5H333.3z"/>
</g>
</svg>
