<?xml version="1.0" encoding="utf-8"?>
<!-- Generator: Adobe Illustrator 18.0.0, SVG Export Plug-In . SVG Version: 6.00 Build 0)  -->
<!DOCTYPE svg PUBLIC "-//W3C//DTD SVG 1.1//EN" "http://www.w3.org/Graphics/SVG/1.1/DTD/svg11.dtd">
<svg version="1.1" id="Layer_1" xmlns:sketch="http://www.bohemiancoding.com/sketch/ns"
	 xmlns="http://www.w3.org/2000/svg" xmlns:xlink="http://www.w3.org/1999/xlink" x="0px" y="0px" viewBox="0 0 16 16"
	 enable-background="new 0 0 16 16" xml:space="preserve">
<title></title>
<g id="Icons_with_numbers">
	<g id="Group" transform="translate(-576.000000, -576.000000)">
		<path id="Oval_12_copy_2" fill="#FFFFFF" d="M584,590c3.3,0,6-2.7,6-6s-2.7-6-6-6s-6,2.7-6,6S580.7,590,584,590z M584,592
			c-4.4,0-8-3.6-8-8s3.6-8,8-8s8,3.6,8,8S588.4,592,584,592z M584,588c-2.2,0-4-1.8-4-4s1.8-4,4-4s4,1.8,4,4S586.2,588,584,588z"/>
	</g>
</g>
</svg>
