<?xml version="1.0" encoding="utf-8"?>
<!-- Generator: Adobe Illustrator 18.0.0, SVG Export Plug-In . SVG Version: 6.00 Build 0)  -->
<!DOCTYPE svg PUBLIC "-//W3C//DTD SVG 1.1//EN" "http://www.w3.org/Graphics/SVG/1.1/DTD/svg11.dtd">
<svg version="1.1" id="Layer_1" xmlns="http://www.w3.org/2000/svg" xmlns:xlink="http://www.w3.org/1999/xlink" x="0px" y="0px"
	 viewBox="0 0 512 512" enable-background="new 0 0 512 512" xml:space="preserve">
<g>
	<g>
		<path fill="#999999" d="M444.3,47.1H67.7C30.4,47.1,0,77.5,0,114.8v282.4c0,37.4,30.4,67.7,67.7,67.7h376.5
			c37.4,0,67.7-30.4,67.7-67.7V114.8C512,77.5,481.6,47.1,444.3,47.1z M470.6,397.2c0,14.5-11.8,26.4-26.4,26.4H67.7
			c-14.5,0-26.4-11.8-26.4-26.4V114.8c0-14.5,11.8-26.4,26.4-26.4h376.5c14.5,0,26.4,11.8,26.4,26.4L470.6,397.2L470.6,397.2z"/>
	</g>
</g>
<g>
	<g>
		<path fill="#999999" d="M508.3,102.9c-6.5-9.4-19.4-11.6-28.8-5.1L256,254.3L32.5,97.9c-9.4-6.6-22.3-4.3-28.8,5.1
			s-4.3,22.3,5.1,28.8l235.3,164.7c3.6,2.5,7.7,3.7,11.9,3.7c4.1,0,8.3-1.2,11.9-3.7l235.3-164.7
			C512.5,125.2,514.8,112.3,508.3,102.9z"/>
	</g>
</g>
</svg>
