<?xml version="1.0" encoding="utf-8"?>
<!-- Generator: Adobe Illustrator 18.0.0, SVG Export Plug-In . SVG Version: 6.00 Build 0)  -->
<!DOCTYPE svg PUBLIC "-//W3C//DTD SVG 1.1//EN" "http://www.w3.org/Graphics/SVG/1.1/DTD/svg11.dtd">
<svg version="1.1" xmlns="http://www.w3.org/2000/svg" xmlns:xlink="http://www.w3.org/1999/xlink" x="0px" y="0px"
	 viewBox="118.5 134.5 25.7 26.5" enable-background="new 118.5 134.5 25.7 26.5" xml:space="preserve">
<g id="Layer_2" display="none">
	<g display="inline">
		<path fill="#777777" d="M232.3,157.6c-22.9,4.9-47.7,27.9-71,27.9c-35,0-41-25.8-72.2-27.9c-34.4-1.7-67.3,12-77.5,15.9
			s-8.9,8.7-8.3,10.2c1.3,2.9,2.4,4.3,9.6,3.1c0,0,47.2-19.6,79.6-16.3c16.2,2.3,34.1,27.9,68.5,28.2c24.3,0.2,49.6-23.9,73.5-29
			c36.3-7.7,69.5,18.8,69.5,18.8c4,0,9.2-4,4.2-11.2C305.8,173.9,270.3,149.5,232.3,157.6z"/>
	</g>
	<g display="inline">
		<path fill="#777777" d="M232.4,189.6c-22.9,4.9-47.7,27.9-71,27.9c-35,0-41-25.8-72.2-27.9c-34.4-1.7-67.3,12-77.5,15.9
			s-8.9,8.7-8.3,10.2c1.3,2.9,2.3,4.7,9.6,3.1c0,0,47.2-19.6,79.6-16.3c16.2,2.3,34.1,27.9,68.5,28.2c24.3,0.2,49.6-23.9,73.5-29
			c36.3-7.7,69.5,18.8,69.5,18.8c4,0,9.2-4,4.2-11.2C305.9,205.9,270.4,181.5,232.4,189.6z"/>
	</g>
</g>
<g id="Capa_1">
	<circle fill="none" stroke="#EC4D52" stroke-width="2" stroke-miterlimit="10" cx="131.3" cy="147.8" r="11.5"/>
	<path fill="none" stroke="#EC4D52" stroke-width="2" stroke-miterlimit="10" d="M125.4,141.8c-1-1,12.7,12.7,11.9,11.9"/>
	<path fill="none" stroke="#EC4D52" stroke-width="2" stroke-miterlimit="10" d="M137.3,141.8c1-1-12.7,12.7-11.9,11.9"/>
</g>
</svg>
