<?xml version="1.0" encoding="utf-8"?>
<!-- Generator: Adobe Illustrator 18.0.0, SVG Export Plug-In . SVG Version: 6.00 Build 0)  -->
<!DOCTYPE svg PUBLIC "-//W3C//DTD SVG 1.1//EN" "http://www.w3.org/Graphics/SVG/1.1/DTD/svg11.dtd">
<svg version="1.1" id="Layer_1" xmlns="http://www.w3.org/2000/svg" xmlns:xlink="http://www.w3.org/1999/xlink" x="0px" y="0px"
	 viewBox="0 0 59.5 59.5" enable-background="new 0 0 59.5 59.5" xml:space="preserve">
<g>
	<g>
		<path fill="#FFFFFF" d="M29.7,0C13.3,0,0,13.3,0,29.7c0,16.4,13.3,29.7,29.7,29.7c16.4,0,29.7-13.3,29.7-29.7
			C59.5,13.3,46.2,0,29.7,0z M31.6,47.8c-0.6,0.6-1.4,0.9-2.5,0.9c-1.1,0-1.9-0.3-2.5-0.9c-0.6-0.6-0.9-1.4-0.9-2.3
			c0-1,0.3-1.8,0.9-2.4c0.6-0.6,1.4-0.9,2.5-0.9c1,0,1.9,0.3,2.5,0.9c0.6,0.6,0.9,1.4,0.9,2.3C32.5,46.5,32.2,47.2,31.6,47.8z
			 M36.4,29.4l-3,3c-1.1,1.2-1.7,3-1.7,5.4h-5.6c0-2.2,0.3-3.9,0.8-5.2c0.5-1.3,1.6-2.7,3.2-4.3c1.6-1.6,2.6-2.7,3-3.3
			c0.7-1,1-2.1,1-3.2c0-1.6-0.4-2.7-1.2-3.6c-0.8-0.8-1.9-1.2-3.4-1.2c-1.4,0-2.6,0.4-3.4,1.2c-0.9,0.8-1.3,1.9-1.3,3.3h-6
			c0-2.9,1-5.2,3-6.9c2-1.7,4.5-2.6,7.8-2.6c3.3,0,5.9,0.8,7.8,2.5c1.9,1.7,2.8,4,2.8,7.1C40.2,24.2,38.9,26.8,36.4,29.4z"/>
	</g>
</g>
</svg>
