<?xml version="1.0" encoding="utf-8"?>
<!-- Generator: Adobe Illustrator 18.0.0, SVG Export Plug-In . SVG Version: 6.00 Build 0)  -->
<!DOCTYPE svg PUBLIC "-//W3C//DTD SVG 1.1//EN" "http://www.w3.org/Graphics/SVG/1.1/DTD/svg11.dtd">
<svg version="1.1" id="Layer_1" xmlns="http://www.w3.org/2000/svg" xmlns:xlink="http://www.w3.org/1999/xlink" x="0px" y="0px"
	 viewBox="22 35 447 449" enable-background="new 22 35 447 449" xml:space="preserve">
<circle fill="#15BBF2" stroke="#041596" stroke-width="11" stroke-miterlimit="10" cx="244.5" cy="259.3" r="218.4"/>
<path fill="none" stroke="#041596" stroke-width="11" stroke-miterlimit="10" d="M252.6,41c89.1,39.1,56.5,109.7,58.6,157.7
	c49.9,71.5,33.2,173.4,22.5,198.8c-5.3,15.1-1,14.7-19.6,23.5c-137.1,16.6-238-22.7-238-22.7"/>
<path fill="none" stroke="#041596" stroke-width="11" stroke-miterlimit="10" d="M178.7,51.1c-115.6,117.5,36.5,276.8,36.5,276.8
	C150.1,323,99.1,336.6,47,344.5"/>
<path fill="none" stroke="#041596" stroke-width="11" stroke-miterlimit="10" d="M167.1,266.2c-16.3,3.6-24.7,14.7-59.7,0
	c-27,9.6-58.1,10.1-81.2,0"/>
<line fill="none" stroke="#041596" stroke-width="11" stroke-miterlimit="10" x1="388.5" y1="176.1" x2="345.1" y2="198.7"/>
<line fill="none" stroke="#041596" stroke-width="11" stroke-miterlimit="10" x1="361.1" y1="225.1" x2="413.9" y2="225.1"/>
<line fill="none" stroke="#041596" stroke-width="11" stroke-miterlimit="10" x1="361.1" y1="266.2" x2="431.5" y2="266.2"/>
<line fill="none" stroke="#041596" stroke-width="11" stroke-miterlimit="10" x1="366.8" y1="303.4" x2="424.7" y2="333.8"/>
</svg>
