<?xml version="1.0" encoding="utf-8"?>
<!-- Generator: Adobe Illustrator 18.0.0, SVG Export Plug-In . SVG Version: 6.00 Build 0)  -->
<!DOCTYPE svg PUBLIC "-//W3C//DTD SVG 1.1//EN" "http://www.w3.org/Graphics/SVG/1.1/DTD/svg11.dtd">
<svg version="1.1" id="Layer_1" xmlns="http://www.w3.org/2000/svg" xmlns:xlink="http://www.w3.org/1999/xlink" x="0px" y="0px"
	 viewBox="0 0 500 378.9" enable-background="new 0 0 500 378.9" xml:space="preserve">
<g>
	<g>
		<path fill="#999999" d="M17.6,372.9c0-3.1,0-6.2,0-9.3c2.8,0.3,5.5-0.6,8.2-1.2c1.4-0.3,3.4-0.7,3.4-2.6c0-7,4.9-5.4,9-5.5
			c8.4-0.1,7.4,1,7.4-7.5c0-83.8,0.1-167.6-0.1-251.4c0-4.8,0.9-6.6,6.2-6.5c18.7,0.3,37.3,0,56,0c23,0,46-0.1,68.9,0.1
			c3.7,0,4.5-0.9,4.2-4.5c-0.4-4.3-0.2-8.6,0.3-12.9c0.6-5.9,0.7-6-4.7-4.2c-0.9,0.3-2.2,0.8-3,0.5c-5-2-10.2-3.8-14.6-7.1
			c0.4-0.5,0.6-0.9,0.9-1c21.9-10.4,43.9-20.7,65.8-31.2c8.9-4.3,17.7-8.9,26.6-13.3c0.3,0,0.7,0,1,0c0.6,0.5,1.2,1.1,2,1.5
			c25.1,11.9,50.2,23.8,75.3,35.7c4.7,2.2,9.4,4.3,14,6.5c1,0.5,3.3,1.7,1,2.7c-5.2,2.3-9.6,7.2-16,5.9c-3.2-0.6-2.6,1.3-2.6,2.9
			c-0.1,5.9,0.2,11.8-0.1,17.6c-0.3,4.6,1,6.1,5.9,6.1c35.1-0.2,70.2-0.1,105.3-0.1c8.3,0,16.6,0.1,24.9,0c2.8,0,3.9,0.8,4.1,3.8
			c0.2,4.1-0.8,5.7-5.3,5.7c-42.9-0.2-85.8-0.1-128.6-0.1c-1.9,0-4-0.4-6.4,1c2.5,1.5,4.5,1,6.5,1c42.2,0,84.4,0,126.6,0
			c8.2,0,7.3-0.9,7.3,7.1c0.1,59.1,0.2,118.2,0.2,177.4c0,21.4,0,42.9-0.3,64.3c-0.1,5.1,0.9,7.5,6.7,7.1c3.6-0.3,7.6-0.9,11.1,1.4
			c0,3.5,0,6.9,0,10.4c-60.2,0-120.3,0-180.5,0c-37.3,0-74.7,0.1-112,0.1c-13.2,0-26.4,0-39.5,0C107.5,373,62.5,373,17.6,372.9z
			 M252.9,149c4.6-0.1,9.3-0.1,13.9-1.2c21.8-5.2,37-17.9,43.5-39.6c6.1-20.2,0-37.8-14.1-52.6c-18.1-19-51.4-22.9-74-9.1
			c-22.1,13.4-34.7,40.1-24.2,66.7C206,133.2,228.5,149.7,252.9,149z M298.9,317.9c0-8.6-0.1-17.3,0-25.9c0-3.1-0.9-4.3-4.1-4.2
			c-7.4,0.2-14.9,0.2-22.3,0c-2.9-0.1-3.9,0.9-3.9,3.8c0.1,17.3,0.1,34.6,0,51.8c0,3.3,1,4.7,4.4,4.6c7.3-0.2,14.5-0.2,21.8,0
			c3.2,0.1,4.2-1.2,4.1-4.2C298.8,335.2,298.9,326.6,298.9,317.9z M133.1,328.3c0-7.9,0-15.9,0-23.8c0-2.5-0.2-4.4-3.5-4.3
			c-7.2,0.1-14.5,0.1-21.7,0c-2.5,0-3.2,1.1-3.2,3.5c0.1,16,0.1,32.1,0,48.1c0,2.7,1,3.6,3.6,3.6c6.9-0.1,13.8-0.2,20.7,0
			c3.3,0.1,4.2-1.3,4.1-4.3C133.1,343.5,133.1,335.9,133.1,328.3z M116.3,232.8c-18.5,0-37,0.1-55.5-0.1c-3.2,0-5,0.3-5,4.4
			c0,3.9,1.9,4,4.8,4c36.8,0,73.6-0.1,110.4,0c3.6,0,5.4-0.6,5.4-4.7c0-4.3-2.6-3.6-5.2-3.6C153,232.8,134.7,232.8,116.3,232.8z
			 M116.2,274.3c18.5,0,36.9,0,55.4,0c2.9,0,4.8-0.1,4.8-4c0-4-1.7-4.4-5-4.4c-36.9,0.1-73.9,0.1-110.8,0c-2.9,0-4.8,0.1-4.8,4
			c0,4,1.8,4.4,5,4.4C79.3,274.3,97.8,274.3,116.2,274.3z M116.1,249.4c-18.5,0-37,0.2-55.4-0.1c-4.7-0.1-5.3,2.1-4.6,5.6
			c0.7,3.4,3.6,2.1,5.5,2.1c36.3,0.1,72.5,0.1,108.8,0c2.3,0,5.9,1.6,5.9-3.3c0.1-4.5-2.7-4.3-5.8-4.3
			C152.4,249.5,134.2,249.4,116.1,249.4z M115.6,289.9c18.6,0,37.3,0,55.9,0c2.8,0,5,0.1,4.9-3.9c-0.1-3.9-2.5-3.4-4.8-3.4
			c-37,0-73.9,0-110.9,0c-2.8,0-5-0.1-4.9,3.9c0.1,3.9,2.5,3.4,4.8,3.4C79,289.9,97.3,289.9,115.6,289.9z M437.9,308.3
			c2.4,0,4.8-0.2,7.2,0c3.6,0.3,5-1.1,4.8-4.7c-0.2-3.6-0.2-7.2,0-10.8c0.1-3.2-1.2-4.2-4.3-4.1c-4.5,0.2-8.9,0-13.4,0
			c-6.9,0-6.9,0-6.9,7C425.3,308.3,425.3,308.3,437.9,308.3z M378.7,308.6c2.8,0,5.5-0.2,8.3,0c3.2,0.2,4.3-1,4.1-4.1
			c-0.2-3.8-0.3-7.6,0-11.4c0.3-3.6-1.3-4.4-4.5-4.3c-4.5,0.2-9,0-13.5,0.1c-6.9,0-6.9,0-6.9,6.9
			C366.2,308.6,366.2,308.6,378.7,308.6z M408.8,308.1c0,0.1,0,0.2,0,0.4c2.6,0,5.2-0.2,7.8,0c3.9,0.4,5.9-0.8,5.3-5.1
			c-0.1-1,0-2.1,0-3.1c0-11.5,0-11.5-11.5-11.5c-13.1,0-12.9,0-13.2,13.2c-0.1,4.6,0.5,7.3,5.9,6.1
			C405,307.7,406.9,308.1,408.8,308.1z M238.4,250.6c12.7,0,12.7,0,12.6-12.5c0-0.7-0.1-1.4,0-2.1c0.4-3.1-0.8-4.3-4-4.2
			c-4.8,0.2-9.7,0.4-14.4,0c-5.1-0.5-6.8,1.1-6.6,6.4C226.4,250.6,226.1,250.6,238.4,250.6z M296.6,250.5c12.5,0,12.5,0,12.5-12.7
			c0-0.9-0.1-1.7,0-2.6c0.3-2.8-1-3.6-3.6-3.5c-5,0.1-10,0.4-14.9-0.1c-5.4-0.6-6.6,1.5-6.4,6.6
			C284.5,250.5,284.2,250.5,296.6,250.5z M378.7,231.7c-2.8,0-5.5,0.1-8.3,0c-3-0.2-4.4,0.8-4.2,4.1c0.2,3.8,0.2,7.6,0,11.4
			c-0.1,2.8,1.1,3.6,3.7,3.6c4.8-0.1,9.7,0,14.5,0c6.8,0,6.8,0,6.8-6.6C391.1,231.7,391.1,231.7,378.7,231.7z M436.6,250.6
			c12.6,0,12.6,0,12.6-12.7c0-0.9-0.1-1.7,0-2.6c0.3-2.6-0.8-3.7-3.5-3.7c-5,0.1-10,0.4-15-0.1c-5.4-0.5-6.7,1.4-6.5,6.6
			C424.5,250.6,424.3,250.6,436.6,250.6z M350.7,288.9c-11.8,0-11.8,0-11.8,11.9c0,1.4,0.1,2.8,0,4.1c-0.1,2.6,0.8,3.8,3.6,3.7
			c5.3-0.1,10.7-0.2,16,0c3,0.1,4-1.2,3.8-4c-0.1-1.4,0-2.7,0-4.1C362.2,288.9,362.2,288.9,350.7,288.9z M211,250.5
			c2.4,0,4.8-0.2,7.2,0c3.4,0.3,5.1-0.7,4.8-4.5c-0.3-3.2-0.3-6.6,0-9.8c0.3-3.8-1.3-4.7-4.8-4.5c-4.3,0.2-8.7,0.5-12.9,0
			c-5.5-0.7-6.6,1.6-6.4,6.6C199.3,250.5,199,250.6,211,250.5z M269,250.5c12.1,0,12.1,0,12.1-12c0-0.9-0.1-1.7,0-2.6
			c0.4-3.1-0.8-4.4-4-4.2c-4.3,0.2-8.6,0.1-12.9,0.1c-7,0-7,0-7,6.8C257.3,250.5,257.3,250.5,269,250.5z M409,310.6
			c-3.7,0-8.9-1.5-10.9,0.4c-2.5,2.3-0.6,7.5-0.8,11.4c0,0.9,0.1,1.7,0,2.6c-0.3,2.7,1.1,3.6,3.6,3.6c5.5-0.1,11-0.2,16.5,0
			c3.4,0.1,4.4-1.2,4.5-4.5C422.3,310.6,422.4,310.6,409,310.6z M238.4,271.2c12.8,0,12.7,0,12.7-12.7c0-3.7-0.8-5.3-4.8-5.1
			c-5,0.3-10,0.3-15,0c-4.1-0.3-5.2,1.2-5.2,5.2C226.2,271.2,226,271.2,238.4,271.2z M436.7,271.3c13,0,13,0,12.5-13.1
			c0-0.3,0-0.7,0-1c0.3-2.7-1-3.6-3.6-3.5c-5.5,0.1-11,0.3-16.5,0c-3.9-0.2-4.9,1.1-4.9,5C424.2,271.3,424.1,271.3,436.7,271.3z
			 M296.9,253.6c-13,0-13,0-12.6,13.2c0,0.2,0,0.3,0,0.5c-0.5,3.3,1.2,4.1,4.2,4c5.2-0.2,10.4-0.3,15.5,0c4.1,0.3,5.3-1.1,5.2-5.2
			C309.1,253.6,309.3,253.6,296.9,253.6z M378.6,271.2c12.7,0,12.7,0,12.4-12.8c0-0.5-0.1-1,0-1.6c0.2-2.5-1-3.3-3.4-3.3
			c-5.5,0.1-11.1,0.2-16.6-0.1c-3.8-0.2-5,0.9-5,4.9C366.2,271.2,366,271.2,378.6,271.2z M378.3,328.5c13,0,13,0,12.8-12.9
			c0-0.3,0-0.7,0-1c0.3-2.8-0.8-4-3.8-3.9c-5.2,0.2-10.4,0.4-15.5,0c-4.6-0.4-5.8,1.2-5.7,5.7C366.3,328.5,366.1,328.5,378.3,328.5z
			 M437.4,310.6c-12.2,0-12.2,0-12.1,12.1c0,0.5,0.1,1,0,1.5c-0.4,3.1,0.8,4.3,4,4.2c5.2-0.2,10.3-0.3,15.5,0c3.8,0.2,5-1.1,5.1-5
			C450,310.6,450.2,310.6,437.4,310.6z M350.8,250.6c2.2,0,4.5-0.2,6.7,0c3.5,0.3,4.8-0.9,4.9-4.6c0.3-14.2,0.4-14.2-13.9-14.2
			c-0.7,0-1.4,0-2.1,0c-8.1,0.1-7.2-1-7.3,7.1C339.1,250.6,339.1,250.6,350.8,250.6z M408.7,250.6c11.7,0,11.7,0,11.7-11.7
			c0-1.2-0.1-2.4,0-3.6c0.2-2.7-1-3.7-3.7-3.6c-4,0.1-8,0-11.9,0c-8.5,0.1-7.4-0.8-7.4,7.5C397.3,250.6,397.3,250.6,408.7,250.6z
			 M211.2,253.6c-12.4,0-12.4,0-12.2,12.5c0,0.5,0,1,0,1.5c-0.3,2.7,0.9,3.7,3.6,3.6c4.8-0.1,9.7-0.3,14.5,0.1
			c4.6,0.4,6.2-1,6.1-5.9C222.8,253.6,223.1,253.6,211.2,253.6z M408.7,271.2c11.7,0,11.7,0,11.7-11.6c0-0.9-0.1-1.7,0-2.6
			c0.3-2.8-1.2-3.6-3.7-3.5c-4.5,0.1-9,0.3-13.4-0.1c-4.8-0.4-6.1,1.3-6,6C397.5,271.2,397.3,271.2,408.7,271.2z M351.1,253.6
			c-12.2,0-12.2,0-12,12.3c0,0.7,0.1,1.4,0,2.1c-0.2,2.5,0.9,3.4,3.4,3.3c4.5-0.1,9-0.4,13.5,0.1c5.5,0.6,6.7-1.7,6.5-6.7
			C362.2,253.6,362.4,253.6,351.1,253.6z M268.8,271.2c11.4,0,11.4,0,11.3-11.4c0-0.7-0.1-1.4,0-2.1c0.4-3.1-0.8-4.4-4-4.2
			c-4.3,0.2-8.7,0.4-13,0c-4.9-0.5-6.1,1.4-6,6C257.4,271.2,257.2,271.2,268.8,271.2z M351,310.7c-2.9,0-5.9,0.1-8.8,0
			c-3.5-0.2-3.8,2.2-3.2,4.4c1.1,4.4-3.1,9.9,2.6,13.3c0.6,0.4,1.7,0.1,2.6,0.1c3.8,0,7.6,0,11.4,0c6.6,0,6.6,0,6.6-6.8
			C362.2,310.7,362.2,310.7,351,310.7z M76,298.2c-5.5,0-11,0.1-16.5,0c-2.8-0.1-3.6,1.1-3.5,3.7c0.1,2.3,0.3,4,3.3,4
			c11-0.1,22,0,33,0c3,0,3.2-1.7,3.3-4c0.1-2.6-0.8-3.7-3.5-3.7C86.7,298.3,81.3,298.2,76,298.2z M75.4,322.1c5.5,0,11-0.1,16.5,0
			c2.7,0.1,3.6-0.9,3.6-3.6c0-2.5-0.6-3.8-3.4-3.8c-10.9,0.1-21.7,0.1-32.6,0c-2.7,0-3.6,0.9-3.6,3.6c-0.1,3,1.1,3.9,4,3.8
			C65,322,70.2,322.1,75.4,322.1z M75.5,355.3c5.5,0,11-0.1,16.5,0c2.7,0.1,3.6-1,3.6-3.6c-0.1-2.3-0.4-4-3.3-4c-11,0.1-22,0.1-33,0
			c-2.9,0-3.2,1.6-3.3,4c-0.1,2.6,0.8,3.7,3.5,3.6C64.8,355.1,70.1,355.3,75.5,355.3z M76.2,331.3c-5.5,0-11,0.1-16.6,0
			c-3.1-0.1-3.8,1.2-3.8,4c0,2.9,1.3,3.4,3.8,3.4c10.7-0.1,21.4-0.1,32.1,0c2.5,0,3.8-0.6,3.8-3.4c0-2.8-0.7-4.1-3.8-4
			C86.6,331.4,81.4,331.3,76.2,331.3z M158.3,298.2c-4.3,0-8.6,0.1-12.9,0c-2.9-0.1-3.4,1.4-3.4,3.8c0,2.5,0.6,3.9,3.4,3.9
			c8.6-0.1,17.2-0.1,25.8,0c3.1,0,3.1-1.9,3.1-4.2c0-2.2-0.4-3.6-3.1-3.5C166.9,298.3,162.6,298.2,158.3,298.2z M158.6,314.8
			c-4.3,0-8.6,0.1-12.9,0c-2.6-0.1-3.7,0.8-3.7,3.5c-0.1,3,1,3.9,3.9,3.9c8.3-0.1,16.6-0.1,24.8,0c2.6,0,3.7-0.8,3.7-3.5
			c0-2.9-0.9-4-3.9-3.9C166.5,314.9,162.5,314.8,158.6,314.8z M158,338.7c4.3,0,8.6-0.1,12.9,0c2.4,0.1,3.4-0.9,3.3-3.3
			c-0.1-2.2,0.1-4.1-3.1-4.1c-8.6,0.1-17.3,0.1-25.9,0c-2.9,0-3.3,1.5-3.4,3.9c-0.1,2.8,1.1,3.6,3.7,3.5
			C149.8,338.6,153.9,338.7,158,338.7z M158.1,355.3c4.3,0,8.6-0.1,12.9,0c2.5,0.1,3.4-0.9,3.3-3.3c-0.1-2.1,0.2-4.3-3-4.2
			c-8.8,0-17.5,0-26.3,0c-3.1,0-3,2-3.1,4.2c-0.1,2.4,0.7,3.5,3.3,3.4C149.5,355.2,153.8,355.2,158.1,355.3z"/>
		<path fill="#FEFEFE" d="M252.1,15c-8.9,4.5-17.7,9.1-26.6,13.3c-21.9,10.5-43.9,20.8-65.8,31.2c-0.3,0.1-0.4,0.5-0.9,1
			c4.4,3.3,9.6,5.1,14.6,7.1c0.8,0.3,2-0.2,3-0.5c5.4-1.8,5.4-1.7,4.7,4.2c-0.5,4.3-0.7,8.6-0.3,12.9c0.4,3.6-0.5,4.6-4.2,4.5
			c-23-0.2-46-0.1-68.9-0.1c-18.7,0-37.3,0.3-56,0c-5.3-0.1-6.2,1.7-6.2,6.5c0.1,83.8,0.1,167.6,0.1,251.4c0,8.5,1,7.3-7.4,7.5
			c-4.1,0.1-9-1.4-9,5.5c0,1.9-2,2.3-3.4,2.6c-2.7,0.6-5.3,1.5-8.2,1.2c0-114.8,0-229.6-0.1-344.4c0-3.6,0.7-4.3,4.2-4.2
			C98.5,15,175.3,15,252.1,15z"/>
		<path fill="#FEFEFE" d="M484.5,362.5c-3.4-2.3-7.4-1.7-11.1-1.4c-5.8,0.4-6.8-2-6.7-7.1c0.3-21.4,0.3-42.9,0.3-64.3
			c0-59.1-0.1-118.2-0.2-177.4c0-8,0.9-7.1-7.3-7.1c-42.2,0-84.4,0-126.6,0c-1.9,0-4,0.4-6.5-1c2.5-1.5,4.5-1,6.4-1
			c42.9,0,85.8-0.1,128.6,0.1c4.5,0,5.6-1.6,5.3-5.7c-0.2-3-1.3-3.8-4.1-3.8c-8.3,0.1-16.6,0-24.9,0c-35.1,0-70.2-0.1-105.3,0.1
			c-4.9,0-6.2-1.5-5.9-6.1c0.4-5.9,0.1-11.8,0.1-17.6c0-1.6-0.6-3.6,2.6-2.9c6.4,1.3,10.8-3.5,16-5.9c2.2-1,0-2.2-1-2.7
			c-4.6-2.2-9.3-4.3-14-6.5c-25.1-11.9-50.2-23.8-75.3-35.7c-0.7-0.3-1.3-1-2-1.5c75.7,0,151.3,0,227-0.1c3.9,0,4.4,1,4.4,4.6
			C484.4,133.8,484.5,248.2,484.5,362.5z"/>
		<path fill="#D4D4D4" d="M191.9,373c37.3,0,74.7-0.1,112-0.1c60.2,0,120.3,0,180.5,0c-1.1,2.2-3.1,1-4.7,1
			c-96,0.1-191.9,0.1-287.9,0.1C191.9,373.6,191.9,373.3,191.9,373z"/>
		<path fill="#E3E3E3" d="M17.6,372.9c44.9,0.1,89.9,0.1,134.8,0.2c0,0.3,0.1,0.6,0.1,0.9c-43.6,0-87.1,0-130.7-0.1
			C20.4,373.9,18.5,375,17.6,372.9z"/>
		<path fill="#CACACA" d="M152.5,373.9c0-0.3-0.1-0.6-0.1-0.9c13.2,0,26.4,0,39.5,0c0,0.3,0,0.6,0,0.9
			C178.8,373.9,165.6,373.9,152.5,373.9z"/>
		<path fill="#FCFCFC" d="M252.9,149c-24.5,0.7-47-15.7-54.9-35.8c-10.5-26.6,2.1-53.3,24.2-66.7c22.6-13.7,55.9-9.9,74,9.1
			c14.1,14.8,20.2,32.4,14.1,52.6c-6.5,21.7-21.7,34.4-43.5,39.6C262.2,148.9,257.6,148.9,252.9,149z M200,94.2
			c0.1,3.2,0.2,6.9,1.3,10.6c8.8,30.5,41.8,46.5,72,34.8c24.4-9.4,37.4-32.4,32.2-56.8c-4.1-19.1-22.4-34.9-44.3-38.3
			C229.9,39.9,200.1,63.7,200,94.2z"/>
		<path fill="#FEFEFE" d="M298.9,317.9c0,8.6-0.1,17.3,0,25.9c0,3.1-0.9,4.3-4.1,4.2c-7.3-0.2-14.5-0.2-21.8,0
			c-3.4,0.1-4.5-1.3-4.4-4.6c0.1-17.3,0.1-34.6,0-51.8c0-3,1-3.9,3.9-3.8c7.4,0.1,14.9,0.2,22.3,0c3.2-0.1,4.2,1.1,4.1,4.2
			C298.8,300.6,298.9,309.3,298.9,317.9z"/>
		<path fill="#FEFEFE" d="M133.1,328.3c0,7.6-0.1,15.2,0,22.8c0,3-0.9,4.4-4.1,4.3c-6.9-0.2-13.8-0.1-20.7,0c-2.6,0-3.7-0.8-3.6-3.6
			c0.1-16,0.1-32.1,0-48.1c0-2.3,0.7-3.5,3.2-3.5c7.2,0.1,14.5,0.1,21.7,0c3.3-0.1,3.5,1.9,3.5,4.3
			C133.1,312.4,133.1,320.4,133.1,328.3z"/>
		<path fill="#FEFEFE" d="M116.3,232.8c18.3,0,36.6,0,54.9,0c2.5,0,5.2-0.7,5.2,3.6c0,4.1-1.8,4.8-5.4,4.7
			c-36.8-0.1-73.6-0.1-110.4,0c-2.9,0-4.8-0.1-4.8-4c0-4,1.8-4.4,5-4.4C79.4,232.9,97.8,232.8,116.3,232.8z"/>
		<path fill="#FEFEFE" d="M116.2,274.3c-18.5,0-36.9-0.1-55.4,0.1c-3.2,0-5-0.4-5-4.4c0-3.9,2-4,4.8-4c36.9,0,73.9,0.1,110.8,0
			c3.3,0,5,0.4,5,4.4c0,3.9-1.9,4-4.8,4C153.2,274.3,134.7,274.3,116.2,274.3z"/>
		<path fill="#FEFEFE" d="M116.1,249.4c18.1,0,36.3,0,54.4,0c3.1,0,5.9-0.3,5.8,4.3c-0.1,4.9-3.6,3.3-5.9,3.3
			c-36.3,0.1-72.5,0.1-108.8,0c-1.9,0-4.9,1.3-5.5-2.1c-0.7-3.5-0.1-5.7,4.6-5.6C79.2,249.6,97.6,249.4,116.1,249.4z"/>
		<path fill="#FEFEFE" d="M115.6,289.9c-18.3,0-36.6,0-54.9,0c-2.4,0-4.8,0.5-4.8-3.4c-0.1-4,2.1-3.9,4.9-3.9c37,0,73.9,0,110.9,0
			c2.4,0,4.7-0.5,4.8,3.4c0.1,4-2.1,3.9-4.9,3.9C152.9,289.9,134.3,289.9,115.6,289.9z"/>
		<path fill="#FAFAFA" d="M437.9,308.3c-12.6,0-12.6,0-12.6-12.6c0-7,0-7,6.9-7c4.5,0,9,0.1,13.4,0c3.1-0.1,4.4,0.9,4.3,4.1
			c-0.2,3.6-0.2,7.2,0,10.8c0.2,3.6-1.2,5-4.8,4.7C442.7,308.2,440.3,308.3,437.9,308.3z"/>
		<path fill="#FEFEFE" d="M378.7,308.6c-12.5,0-12.5,0-12.5-12.8c0-6.9,0-6.9,6.9-6.9c4.5,0,9,0.2,13.5-0.1c3.2-0.2,4.8,0.7,4.5,4.3
			c-0.3,3.8-0.2,7.6,0,11.4c0.2,3.2-1,4.4-4.1,4.1C384.3,308.4,381.5,308.6,378.7,308.6z"/>
		<path fill="#FCFCFC" d="M408.8,308.1c-1.9,0-3.9-0.3-5.7,0.1c-5.4,1.2-6-1.4-5.9-6.1c0.3-13.2,0.1-13.2,13.2-13.2
			c11.5,0,11.5,0,11.5,11.5c0,1-0.1,2.1,0,3.1c0.6,4.2-1.4,5.4-5.3,5.1c-2.6-0.2-5.2,0-7.8,0C408.8,308.3,408.8,308.2,408.8,308.1z"
			/>
		<path fill="#FEFEFE" d="M238.4,250.6c-12.3,0-12,0-12.4-12.4c-0.2-5.4,1.5-6.9,6.6-6.4c4.8,0.4,9.6,0.3,14.4,0
			c3.2-0.2,4.4,1.1,4,4.2c-0.1,0.7,0,1.4,0,2.1C251.1,250.6,251.1,250.6,238.4,250.6z"/>
		<path fill="#FEFEFE" d="M296.6,250.5c-12.4,0-12.2,0-12.5-12.3c-0.1-5.1,1-7.1,6.4-6.6c4.9,0.5,10,0.2,14.9,0.1
			c2.6-0.1,3.9,0.7,3.6,3.5c-0.1,0.8,0,1.7,0,2.6C309.2,250.5,309.2,250.5,296.6,250.5z"/>
		<path fill="#FEFEFE" d="M378.7,231.7c12.4,0,12.4,0,12.4,12.3c0,6.6,0,6.6-6.8,6.6c-4.8,0-9.7-0.1-14.5,0
			c-2.6,0.1-3.8-0.8-3.7-3.6c0.2-3.8,0.2-7.6,0-11.4c-0.2-3.3,1.2-4.3,4.2-4.1C373.1,231.8,375.9,231.7,378.7,231.7z"/>
		<path fill="#FEFEFE" d="M436.6,250.6c-12.3,0-12.1,0-12.5-12.4c-0.2-5.2,1.2-7.1,6.5-6.6c5,0.5,10,0.2,15,0.1
			c2.7-0.1,3.8,1,3.5,3.7c-0.1,0.9,0,1.7,0,2.6C449.3,250.6,449.3,250.6,436.6,250.6z"/>
		<path fill="#FEFEFE" d="M350.7,288.9c11.5,0,11.5,0,11.5,11.7c0,1.4-0.1,2.8,0,4.1c0.2,2.8-0.8,4.1-3.8,4c-5.3-0.2-10.7-0.1-16,0
			c-2.7,0.1-3.7-1.1-3.6-3.7c0.1-1.4,0-2.8,0-4.1C338.9,288.9,338.9,288.9,350.7,288.9z"/>
		<path fill="#FEFEFE" d="M211,250.5c-12,0-11.8,0-12.1-12.2c-0.1-5,0.9-7.3,6.4-6.6c4.2,0.5,8.6,0.3,12.9,0
			c3.4-0.2,5.1,0.7,4.8,4.5c-0.3,3.2-0.3,6.6,0,9.8c0.3,3.8-1.4,4.8-4.8,4.5C215.9,250.4,213.5,250.5,211,250.5z"/>
		<path fill="#FEFEFE" d="M269,250.5c-11.8,0-11.8,0-11.7-11.9c0-6.8,0-6.8,7-6.8c4.3,0,8.6,0.2,12.9-0.1c3.2-0.2,4.4,1.1,4,4.2
			c-0.1,0.8,0,1.7,0,2.6C281.1,250.5,281.1,250.5,269,250.5z"/>
		<path fill="#FCFCFC" d="M409,310.6c13.4,0.1,13.3,0.1,13,13.5c-0.1,3.3-1.1,4.6-4.5,4.5c-5.5-0.2-11-0.1-16.5,0
			c-2.6,0-3.9-0.9-3.6-3.6c0.1-0.9,0-1.7,0-2.6c0.2-3.9-1.6-9.1,0.8-11.4C400.1,309.1,405.3,310.6,409,310.6z"/>
		<path fill="#FEFEFE" d="M238.4,271.2c-12.4,0-12.2,0-12.4-12.5c0-4,1.1-5.5,5.2-5.2c5,0.3,10,0.3,15,0c4.1-0.3,4.9,1.3,4.8,5.1
			C251.1,271.2,251.2,271.2,238.4,271.2z"/>
		<path fill="#FEFEFE" d="M436.7,271.3c-12.6,0-12.5,0-12.5-12.8c0-3.8,1-5.2,4.9-5c5.5,0.3,11,0.2,16.5,0c2.6-0.1,3.9,0.8,3.6,3.5
			c0,0.3,0,0.7,0,1C449.7,271.3,449.7,271.3,436.7,271.3z"/>
		<path fill="#FEFEFE" d="M296.9,253.6c12.4,0,12.2,0,12.4,12.5c0,4.1-1.1,5.5-5.2,5.2c-5.2-0.3-10.4-0.2-15.5,0
			c-3,0.1-4.7-0.7-4.2-4c0-0.2,0-0.3,0-0.5C283.9,253.6,283.9,253.6,296.9,253.6z"/>
		<path fill="#FEFEFE" d="M378.6,271.2c-12.7,0-12.5,0-12.6-12.8c0-4,1.2-5.1,5-4.9c5.5,0.3,11.1,0.1,16.6,0.1
			c2.4,0,3.6,0.8,3.4,3.3c0,0.5,0,1,0,1.6C391.3,271.2,391.3,271.2,378.6,271.2z"/>
		<path fill="#FEFEFE" d="M378.3,328.5c-12.2,0-11.9,0-12.2-12.2c-0.1-4.5,1.1-6.1,5.7-5.7c5.1,0.4,10.3,0.2,15.5,0
			c3-0.1,4.1,1.1,3.8,3.9c0,0.3,0,0.7,0,1C391.3,328.5,391.3,328.5,378.3,328.5z"/>
		<path fill="#FCFCFC" d="M437.4,310.6c12.7,0,12.6,0,12.5,12.9c0,3.9-1.2,5.2-5.1,5c-5.2-0.3-10.3-0.2-15.5,0
			c-3.2,0.1-4.4-1.1-4-4.2c0.1-0.5,0-1,0-1.5C425.3,310.6,425.3,310.6,437.4,310.6z"/>
		<path fill="#FEFEFE" d="M350.8,250.6c-11.7,0-11.7,0-11.6-11.6c0.1-8.1-0.8-7,7.3-7.1c0.7,0,1.4,0,2.1,0c14.2,0,14.1,0,13.9,14.2
			c-0.1,3.7-1.4,4.9-4.9,4.6C355.3,250.4,353.1,250.6,350.8,250.6z"/>
		<path fill="#FEFEFE" d="M408.7,250.6c-11.4,0-11.4,0-11.3-11.4c0-8.3-1.1-7.4,7.4-7.5c4,0,8,0.1,11.9,0c2.7-0.1,3.8,1,3.7,3.6
			c-0.1,1.2,0,2.4,0,3.6C420.4,250.6,420.4,250.6,408.7,250.6z"/>
		<path fill="#FEFEFE" d="M211.2,253.6c11.8,0,11.6,0,11.9,11.8c0.1,4.9-1.5,6.2-6.1,5.9c-4.8-0.4-9.6-0.2-14.5-0.1
			c-2.7,0.1-3.8-0.9-3.6-3.6c0-0.5,0-1,0-1.5C198.8,253.6,198.8,253.6,211.2,253.6z"/>
		<path fill="#FEFEFE" d="M408.7,271.2c-11.4,0-11.2,0-11.5-11.7c-0.1-4.7,1.2-6.4,6-6c4.4,0.4,9,0.2,13.4,0.1
			c2.6-0.1,4,0.7,3.7,3.5c-0.1,0.9,0,1.7,0,2.6C420.5,271.2,420.5,271.2,408.7,271.2z"/>
		<path fill="#FEFEFE" d="M351.1,253.6c11.3,0,11,0,11.3,11c0.1,5-1,7.3-6.5,6.7c-4.4-0.5-9-0.2-13.5-0.1c-2.4,0.1-3.6-0.9-3.4-3.3
			c0.1-0.7,0-1.4,0-2.1C339,253.6,339,253.6,351.1,253.6z"/>
		<path fill="#FEFEFE" d="M268.8,271.2c-11.6,0-11.4,0-11.6-11.7c-0.1-4.7,1.1-6.5,6-6c4.3,0.4,8.6,0.3,13,0c3.3-0.2,4.4,1.2,4,4.2
			c-0.1,0.7,0,1.4,0,2.1C280.2,271.2,280.2,271.2,268.8,271.2z"/>
		<path fill="#FEFEFE" d="M351,310.7c11.2,0,11.2,0,11.2,11c0,6.8,0,6.8-6.6,6.8c-3.8,0-7.6,0-11.4,0c-0.9,0-1.9,0.3-2.6-0.1
			c-5.7-3.4-1.6-8.9-2.6-13.3c-0.5-2.2-0.2-4.6,3.2-4.4C345.2,310.8,348.1,310.7,351,310.7z"/>
		<path fill="#FEFEFE" d="M76,298.2c5.3,0,10.7,0.1,16,0c2.8-0.1,3.6,1.1,3.5,3.7c-0.1,2.3-0.3,4-3.3,4c-11-0.1-22-0.1-33,0
			c-2.9,0-3.2-1.7-3.3-4c-0.1-2.6,0.8-3.7,3.5-3.7C65,298.3,70.5,298.2,76,298.2z"/>
		<path fill="#FEFEFE" d="M75.4,322.1c-5.2,0-10.3-0.1-15.5,0c-2.8,0.1-4-0.8-4-3.8c0-2.7,0.9-3.6,3.6-3.6c10.9,0.1,21.7,0.1,32.6,0
			c2.9,0,3.4,1.3,3.4,3.8c0,2.7-0.9,3.7-3.6,3.6C86.4,322,80.9,322.1,75.4,322.1z"/>
		<path fill="#FEFEFE" d="M75.5,355.3c-5.3,0-10.7-0.1-16,0c-2.7,0.1-3.6-1-3.5-3.6c0.1-2.4,0.4-4,3.3-4c11,0.1,22,0.1,33,0
			c2.9,0,3.2,1.7,3.3,4c0.1,2.6-0.8,3.7-3.6,3.6C86.5,355.2,81,355.3,75.5,355.3z"/>
		<path fill="#FEFEFE" d="M76.2,331.3c5.2,0,10.4,0.1,15.5,0c3-0.1,3.8,1.2,3.8,4c0,2.9-1.3,3.5-3.8,3.4c-10.7-0.1-21.4-0.1-32.1,0
			c-2.5,0-3.8-0.5-3.8-3.4c0-2.8,0.7-4.1,3.8-4C65.2,331.4,70.7,331.3,76.2,331.3z"/>
		<path fill="#FEFEFE" d="M158.3,298.2c4.3,0,8.6,0.1,12.9,0c2.7-0.1,3.1,1.3,3.1,3.5c0,2.2,0,4.2-3.1,4.2c-8.6-0.1-17.2-0.1-25.8,0
			c-2.8,0-3.4-1.4-3.4-3.9c0-2.4,0.5-3.9,3.4-3.8C149.7,298.3,154,298.2,158.3,298.2z"/>
		<path fill="#FEFEFE" d="M158.6,314.8c4,0,7.9,0.1,11.9,0c2.9-0.1,3.9,1,3.9,3.9c0,2.8-1.1,3.5-3.7,3.5c-8.3-0.1-16.6-0.1-24.8,0
			c-2.9,0-4-0.9-3.9-3.9c0.1-2.7,1.1-3.6,3.7-3.5C149.9,314.9,154.3,314.8,158.6,314.8z"/>
		<path fill="#FEFEFE" d="M158,338.7c-4.1,0-8.3-0.1-12.4,0c-2.6,0.1-3.8-0.8-3.7-3.5c0.1-2.4,0.5-3.9,3.4-3.9
			c8.6,0.1,17.3,0.1,25.9,0c3.2,0,3,1.9,3.1,4.1c0.1,2.5-0.9,3.4-3.3,3.3C166.7,338.6,162.4,338.7,158,338.7z"/>
		<path fill="#FEFEFE" d="M158.1,355.3c-4.3,0-8.6-0.1-12.9,0c-2.5,0.1-3.3-1.1-3.3-3.4c0.1-2.2-0.1-4.2,3.1-4.2
			c8.8,0.1,17.5,0.1,26.3,0c3.2,0,2.9,2.1,3,4.2c0.1,2.4-0.8,3.4-3.3,3.3C166.7,355.2,162.4,355.3,158.1,355.3z"/>
		<path fill="#9C9C9C" d="M200,94.2c0.1-30.5,29.9-54.4,61.1-49.5c21.9,3.4,40.2,19.2,44.3,38.3c5.3,24.4-7.7,47.3-32.2,56.8
			c-30.2,11.6-63.2-4.3-72-34.8C200.2,101.2,200.1,97.4,200,94.2z M265.7,122.1C265.7,122.1,265.7,122.1,265.7,122.1
			c0-3.8,0.2-7.6,0-11.4c-0.2-3.2,1.1-4.3,4.2-4.2c6.9,0.2,13.8-0.2,20.7,0.1c4.2,0.2,5.5-1.4,5.2-5.4c-0.3-4.7-0.2-9.3,0-14
			c0.1-3.2-1.2-4.2-4.3-4.2c-6.9,0.1-13.8-0.2-20.7,0.1c-4.2,0.2-5.3-1.4-5.2-5.4c0.3-7.1-0.1-14.2,0.1-21.3
			c0.1-3.7-1.3-4.9-4.8-4.8c-4.7,0.2-9.3,0.2-14,0c-3.4-0.1-4.5,1.3-4.4,4.6c0.2,7.4-0.1,14.9,0.1,22.3c0.1,3.4-1.2,4.5-4.5,4.4
			c-6.7-0.2-13.5,0.2-20.2-0.1c-4.7-0.3-6.1,1.6-5.8,6c0.3,4.1,0.2,8.3,0,12.4c-0.2,3.8,1.1,5.3,5,5.1c7.1-0.2,14.2,0,21.3-0.1
			c3.1-0.1,4.3,1.1,4.2,4.2c-0.2,7.6,0,15.2-0.1,22.8c0,3,0.9,4.5,4.1,4.4c5-0.1,10-0.1,15,0c3.3,0.1,4.2-1.5,4.1-4.4
			C265.6,129.7,265.7,125.9,265.7,122.1z"/>
		<path fill="#FDFDFD" d="M265.7,122.1c0,3.8-0.1,7.6,0,11.4c0.1,3-0.8,4.5-4.1,4.4c-5-0.1-10-0.2-15,0c-3.3,0.1-4.1-1.4-4.1-4.4
			c0.1-7.6-0.1-15.2,0.1-22.8c0.1-3.1-1-4.3-4.2-4.2c-7.1,0.2-14.2-0.1-21.3,0.1c-3.9,0.1-5.2-1.4-5-5.1c0.2-4.1,0.3-8.3,0-12.4
			c-0.3-4.4,1.1-6.2,5.8-6c6.7,0.4,13.5,0,20.2,0.1c3.3,0.1,4.6-1,4.5-4.4c-0.2-7.4,0.1-14.9-0.1-22.3c-0.1-3.3,1-4.7,4.4-4.6
			c4.7,0.2,9.3,0.1,14,0c3.5-0.1,4.9,1.1,4.8,4.8c-0.2,7.1,0.1,14.2-0.1,21.3c-0.1,3.9,0.9,5.6,5.2,5.4c6.9-0.3,13.8,0,20.7-0.1
			c3.1-0.1,4.4,1,4.3,4.2c-0.2,4.7-0.3,9.3,0,14c0.2,4-1.1,5.5-5.2,5.4c-6.9-0.3-13.8,0-20.7-0.1c-3.1-0.1-4.4,1-4.2,4.2
			C265.9,114.5,265.7,118.3,265.7,122.1C265.7,122.1,265.7,122.1,265.7,122.1z"/>
	</g>
</g>
</svg>
