<?xml version="1.0" encoding="utf-8"?>
<!-- Generator: Adobe Illustrator 18.0.0, SVG Export Plug-In . SVG Version: 6.00 Build 0)  -->
<!DOCTYPE svg PUBLIC "-//W3C//DTD SVG 1.1//EN" "http://www.w3.org/Graphics/SVG/1.1/DTD/svg11.dtd">
<svg version="1.1" id="Layer_1" xmlns="http://www.w3.org/2000/svg" xmlns:xlink="http://www.w3.org/1999/xlink" x="0px" y="0px"
	 viewBox="0 0 200 200" enable-background="new 0 0 200 200" xml:space="preserve">
<g id="Layer_2" display="none">
	<g display="inline">
		<path fill="#777777" d="M778.2,291.6C645.5,320,501.7,453.3,366.6,453.3c-202.9,0-237.7-149.6-418.6-161.7
			c-199.4-9.9-390.1,69.6-449.3,92.2c-59.1,22.6-51.6,50.4-48.1,59.1c7.5,16.8,13.9,24.9,55.7,18c0,0,273.6-113.6,461.4-94.5
			c93.9,13.3,197.7,161.7,397.1,163.5C505.7,531,652.4,391.3,791,361.7c210.4-44.6,402.9,109,402.9,109c23.2,0,53.3-23.2,24.3-64.9
			C1204.3,386.1,998.5,244.6,778.2,291.6z"/>
	</g>
	<g display="inline">
		<path fill="#777777" d="M778.8,477.1C646,505.5,502.3,638.8,367.2,638.8c-202.9,0-237.7-149.6-418.6-161.7
			c-199.4-9.9-390.1,69.6-449.3,92.2c-59.1,22.6-51.6,50.4-48.1,59.1c7.5,16.8,13.3,27.2,55.7,18c0,0,273.6-113.6,461.4-94.5
			c94,13.3,197.7,161.7,397.2,163.5c140.9,1.2,287.5-138.6,426.1-168.1c210.4-44.6,402.9,109,402.9,109c23.2,0,53.3-23.2,24.3-64.9
			C1204.9,571.6,999.1,430.2,778.8,477.1z"/>
	</g>
</g>
<g id="Capa_1">
	<line fill="none" stroke="#666666" stroke-width="12" stroke-miterlimit="10" x1="25" y1="27.1" x2="176.9" y2="27.1"/>
	<line fill="none" stroke="#666666" stroke-width="12" stroke-miterlimit="10" x1="191.5" y1="35.4" x2="191.5" y2="168.6"/>
	<line fill="none" stroke="#666666" stroke-width="12" stroke-miterlimit="10" x1="177.6" y1="179" x2="25" y2="179"/>
	<line fill="none" stroke="#666666" stroke-width="12" stroke-miterlimit="10" x1="9" y1="172.1" x2="9" y2="34.7"/>
	<path fill="#FFFFFF" stroke="#666666" stroke-width="12" stroke-miterlimit="10" d="M9,40.3c-0.7-13.9,6.9-13.2,22.9-13.2"/>
	<path fill="#FFFFFF" stroke="#666666" stroke-width="12" stroke-miterlimit="10" d="M191.5,40.3c0.7-13.9-6.9-13.2-22.9-13.2"/>
	<path fill="#FFFFFF" stroke="#666666" stroke-width="12" stroke-miterlimit="10" d="M191.5,166.5c0.7,13.9-6.9,13.2-22.9,13.2"/>
	<path fill="#FFFFFF" stroke="#666666" stroke-width="12" stroke-miterlimit="10" d="M9,166.5c-0.7,13.9,6.9,13.2,21.5,13.2"/>
	<line fill="none" stroke="#666666" stroke-width="12" stroke-miterlimit="10" x1="54.1" y1="59" x2="54.1" y2="145.7"/>
	<polyline fill="none" stroke="#666666" stroke-width="12" stroke-miterlimit="10" points="82.5,59 82.5,65.9 82.5,145.7 	"/>
	<path fill="none" stroke="#666666" stroke-width="12" stroke-miterlimit="10" d="M82.5,66.9c0,0,22.2-0.3,43-0.3
		c26.4,21.5,24.3,61.4,0,71.8c-18,0-43-1-43-1"/>
</g>
</svg>
