<?xml version="1.0" encoding="utf-8"?>
<!-- Generator: Adobe Illustrator 18.0.0, SVG Export Plug-In . SVG Version: 6.00 Build 0)  -->
<!DOCTYPE svg PUBLIC "-//W3C//DTD SVG 1.1//EN" "http://www.w3.org/Graphics/SVG/1.1/DTD/svg11.dtd">
<svg version="1.1" id="Layer_1" xmlns="http://www.w3.org/2000/svg" xmlns:xlink="http://www.w3.org/1999/xlink" x="0px" y="0px"
	 viewBox="6.5 0 68.2 57.2" enable-background="new 6.5 0 68.2 57.2" xml:space="preserve">
<g id="Layer_x0020_1">
	<g id="_468983824">
		<path fill="#201E1E" d="M64.9,23.4c7.5,6.2,4,18.9,2.8,27.1c-0.1,0.3-0.1,0.7-0.2,1c-0.3,2.2-2.1,4.1-4.6,4.2
			c-5.5,0.2-12,1.5-16.8-1.9c-1-0.7-1.9-1.5-2.5-2.5c-6.7,5.9-16.8,7.4-25,3.7c-3.9-1.8-7.8-4.2-8.9-8.6C9,44,9.9,41.8,11.5,40.2
			c-0.3-0.8-0.5-1.6-0.5-2.6c-0.1-1.4,0.3-3,0.9-4.3c-2.5-3.9-2.1-8.7,2.6-11.6c2.4-1.5,5.2-2.2,8.1-2.6c-0.9-3-1.2-6.3-0.7-9
			c0.3-1.6,1.1-3.6,1.9-5C25,2.6,27,0.2,29.9,0c1.7-0.1,3.3,0.7,4.5,1.9c1.8,1.8,2.4,4,3,6.4c0.2,0.8,0.4,1.9,0.9,2.7
			c0.1,0.1,0.1,0.2,0.2,0.3c1.4,2,2.7,4,4.1,6c0.6,0.9,1.3,1.9,1.9,2.8c0.2,0.2,0.3,0.4,0.4,0.7C50.7,17.4,60.2,19.6,64.9,23.4z"/>
		<g>
			<path fill="#22B0D1" d="M43.9,34.7c0.2,3.8,0.5,7.8,1.3,11.5c1.7,8.3,11.1,6.3,17.6,6c0.9,0,1.3-0.9,1.2-1.6
				c0.1-0.1,0.2-0.3,0.3-0.6c0.9-6.4,4.3-19-1.5-23.8c-4-3.3-14.8-5.9-18.1-0.3C43.3,28.3,43.7,32.1,43.9,34.7z"/>
			<path fill="#FEFEFE" d="M13.1,45.7c0.8,3.2,4.2,5,7,6.2c7.7,3.5,17.3,1.5,22.8-4.8c0.3-0.3,0.3-0.5,0.3-0.8
				c0.1-0.2,0.1-0.3,0.1-0.6c-0.4-7.3-1-14.6-1.1-21.9c0-0.4-0.2-0.7-0.4-0.9c-0.1-0.2-0.2-0.4-0.3-0.5c-0.7-0.9-1.3-1.9-1.9-2.8
				c-1.4-2-2.6-4-4.1-5.9c-1.9-2.7-1.4-6.7-3.8-9.1c-3.1-3.2-6.2,4.5-6.5,6.4c-0.5,3.2,0.4,8.4,2.6,11.6c-3.8,0.1-8.3,0.4-11.6,2.4
				c-3.8,2.4-2.7,6,0.1,8.5c-1.3,0.9-2,2.8-1.9,4.4c0.1,1.5,0.9,2.6,1.9,3.6C14.5,42,12.6,43.4,13.1,45.7z"/>
		</g>
	</g>
</g>
</svg>
