<?xml version="1.0" encoding="utf-8"?>
<!-- Generator: Adobe Illustrator 18.0.0, SVG Export Plug-In . SVG Version: 6.00 Build 0)  -->
<!DOCTYPE svg PUBLIC "-//W3C//DTD SVG 1.1//EN" "http://www.w3.org/Graphics/SVG/1.1/DTD/svg11.dtd">
<svg version="1.1" id="Capa_1" xmlns="http://www.w3.org/2000/svg" xmlns:xlink="http://www.w3.org/1999/xlink" x="0px" y="0px"
	 viewBox="0 0 520 520" enable-background="new 0 0 520 520" xml:space="preserve">
<g>
	<g>
		<g>
			<path fill="#637737" d="M179.8,443.4c0,29.7-24.2,54-54,54H54c-29.7,0-54-24.2-54-54V270.6c0-29.7,24.2-54,54-54h71.2
				c29.7,0,54,24.2,54,54v172.8L179.8,443.4L179.8,443.4z M148.6,270.6c0-12.5-10.2-22.7-22.7-22.7H54c-12.5,0-22.7,10.2-22.7,22.7
				v172.8c0,12.5,10.2,22.7,22.7,22.7h71.2c12.5,0,22.7-10.2,22.7-22.7V270.6H148.6z"/>
		</g>
		<path display="none" fill="#637737" d="M101.7,429.3c0,7.8-6.3,14.1-14.1,14.1h-3.9c-7.8,0-14.1-6.3-14.1-14.1v-3.9
			c0-7.8,6.3-14.1,14.1-14.1h3.9c7.8,0,14.1,6.3,14.1,14.1V429.3z"/>
		<g>
			<path fill="#637737" d="M297.9,498.1c-39.1,0-80.5-4.7-94.6-64.1c0-1.6,0.8-2.3,0.8-3.9V233c0-2.3-0.8-4.7,0.8-6.3l2.3-7
				c4.7-13.3,17.2-34.4,37.5-65.7c14.1-21.9,28.2-44.6,32.8-55.5c7.8-19.5,7.8-45.4,7-54c-0.8-6.3,2.3-11.7,7.8-14.9
				c1.6-0.8,13.3-7.8,28.2-7.8c10.2,0,18.8,2.3,26.6,7.8c21.9,14.1,46.1,36.8,41.4,83.7c-1.6,14.9-7.8,28.9-13.3,42.2
				c-3.9,8.6-7.8,17.2-9.4,25c-0.8,1.6-0.8,6.3-0.8,9.4c17.2,1.6,34.4,3.1,50,3.1c9.4,0,18,0,24.2,0c8.6,0,14.1,0,18,0
				c3.1,0,5.5,0,8.6,0.8c17.2,2.3,32.1,10.9,42.2,24.2c10.2,13.3,14.9,30.5,12.5,47.7c-2.3,16.4-10.9,31.3-23.5,41.4
				c5.5,10.2,7.8,22.7,6.3,34.4c-1.6,14.1-8.6,26.6-18.8,35.2v0.8c3.1,7.8,4.7,17.2,3.9,25.8c-1.6,12.5-8.6,24.2-18.8,32.8
				c2.3,6.3,3.9,14.1,2.3,21.9c-2.3,15.6-13.3,28.9-28.2,33.6c-9.4,4.7-21.1,5.5-36,5.5l0,0c-5.5,0-10.9,0-17.2,0
				c-7.8,0-16.4,0-26.6,0c-12.5,0-24.2,0-35.2,0.8C315.9,497.3,306.5,498.1,297.9,498.1z M234.6,428.5c7.8,32.8,25,38.3,64.1,38.3
				c8.6,0,17.2,0,27.4-0.8c11.7,0,23.5-0.8,36-0.8c10.2,0,18.8,0,27.4,0c6.3,0,11.7,0,17.2,0l0,0c4.7,0,18,0,22.7-2.3
				c0.8-0.8,2.3-0.8,3.1-1.6c3.1-0.8,7-3.9,7.8-8.6c0-1.6,0-4.7-0.8-6.3c-3.1-5.5-3.9-13.3-2.3-19.5c1.6-6.3,5.5-10.9,10.2-14.1
				c5.5-3.1,8.6-7.8,9.4-14.1c0.8-3.1,0-7-1.6-10.2c-3.9-7.8-4.7-26.6,6.3-35.2c5.5-3.9,9.4-10.2,10.2-17.2
				c0.8-6.3-0.8-12.5-3.9-17.2c-7-10.2-3.1-28.9,7-36c7.8-5.5,12.5-13.3,14.1-22.7c0.8-8.6-0.8-17.2-6.3-24.2s-13.3-11.7-21.9-12.5
				c-1.6,0-3.1,0-3.9,0H456c-3.9,0-9.4,0-16.4,0c-6.3,0-14.9,0-24.2,0c-19.5,0-41.4-1.6-62.6-3.9l-4.7-0.8c-3.9,0-7.8-2.3-10.9-5.5
				c-2.3-3.1-3.9-7.8-3.1-11.7s0.8-7.8,0.8-12.5c0-6.3,0-12.5,1.6-18c2.3-10.2,7-20.3,11.7-29.7c5.5-11.7,10.2-22.7,10.9-32.1
				c3.1-31.3-11.7-43.8-27.4-54.7c-3.9-2.3-9.4-3.1-14.1-2.3c0,13.3-1.6,36-9.4,55.5c-5.5,14.1-20.3,36.8-36,61
				c-14.1,21.9-31.3,48.5-34.4,58.6c0,0.8,0.8,1.6,0,1.6l-3.1,7v192.5H234.6z"/>
		</g>
		<g display="none">
			<path display="inline" fill="#637737" d="M366.7,443.4L366.7,443.4c-0.8,0-1.6,1.6-2.3,1.6c-3.9,0-7.8-3.1-7.8-7
				c0-4.7,3.1-7.8,7.8-7.8c2.3,0,10.2,0,10.2,7.8c0,0.8,0,0.8-0.8,1.6C373,442.6,370.6,443.4,366.7,443.4z"/>
		</g>
		<g display="none">
			<path display="inline" fill="#637737" d="M309.7,448.1c-18.8,0-35.2-3.9-50-21.1c-3.1-3.1-2.3-7.8,0.8-10.9
				c3.1-3.1,7.8-2.3,10.9,0.8c15.6,18,31.3,16.4,59.4,14.9c3.9,0,7-0.8,10.9-0.8s7.8,3.1,8.6,7c0.8,3.9-3.1,7.8-7,8.6
				c-3.9,0-7.8,0.8-10.9,0.8C324.5,448.1,316.7,448.1,309.7,448.1z"/>
		</g>
	</g>
</g>
</svg>
