<?xml version="1.0" encoding="utf-8"?>
<!-- Generator: Adobe Illustrator 18.0.0, SVG Export Plug-In . SVG Version: 6.00 Build 0)  -->
<!DOCTYPE svg PUBLIC "-//W3C//DTD SVG 1.1//EN" "http://www.w3.org/Graphics/SVG/1.1/DTD/svg11.dtd">
<svg version="1.1" id="Capa_1" xmlns="http://www.w3.org/2000/svg" xmlns:xlink="http://www.w3.org/1999/xlink" x="0px" y="0px"
	 viewBox="0 0 200 200" enable-background="new 0 0 200 200" xml:space="preserve">
<g>
	<g>
		<g>
			<path fill="#757575" d="M131.7,170.5v-66.5c0-11.4,9.3-20.8,20.8-20.8h27.4c11.4,0,20.8,9.3,20.8,20.8v66.5
				c0,11.4-9.3,20.8-20.8,20.8h-27.7c-11.4,0-20.8-9.3-20.8-20.8H131.7z M143.7,104.1v66.5c0,4.8,3.9,8.7,8.7,8.7h27.4
				c4.8,0,8.7-3.9,8.7-8.7v-66.5c0-4.8-3.9-8.7-8.7-8.7h-27.7c-4.8,0-8.7,3.9-8.7,8.7H143.7z"/>
		</g>
		<path display="none" fill="#757575" d="M161.4,163.6c0-3,2.4-5.4,5.4-5.4h1.5c3,0,5.4,2.4,5.4,5.4v1.5c0,3-2.4,5.4-5.4,5.4h-1.5
			c-3,0-5.4-2.4-5.4-5.4V163.6z"/>
		<g>
			<path fill="#757575" d="M73.9,191.6c-4.2-0.3-8.7-0.3-13.5-0.3c-3.9,0-7.2,0-10.2,0c-2.4,0-4.5,0-6.6,0l0,0
				c-5.7,0-10.2-0.3-13.8-2.1c-5.7-1.8-9.9-6.9-10.8-12.9c-0.6-3,0-6,0.9-8.4c-3.9-3.3-6.6-7.8-7.2-12.6c-0.3-3.3,0.3-6.9,1.5-9.9
				V145c-3.9-3.3-6.6-8.1-7.2-13.5c-0.6-4.5,0.3-9.3,2.4-13.2c-4.8-3.9-8.1-9.6-9-15.9C-0.7,95.6,1.1,89,5,83.9
				c3.9-5.1,9.6-8.4,16.2-9.3c1.2-0.3,2.1-0.3,3.3-0.3c1.5,0,3.6,0,6.9,0c2.4,0,5.7,0,9.3,0c6,0,12.6-0.6,19.2-1.2
				c0-1.2,0-3-0.3-3.6c-0.6-3-2.1-6.3-3.6-9.6c-2.1-5.1-4.5-10.5-5.1-16.2c-1.8-18,7.5-26.8,15.9-32.2c3-2.1,6.3-3,10.2-3
				c5.7,0,10.2,2.7,10.8,3c2.1,1.2,3.3,3.3,3,5.7c-0.3,3.3-0.3,13.2,2.7,20.8c1.8,4.2,7.2,12.9,12.6,21.4
				c7.8,12,12.6,20.2,14.4,25.3l0.9,2.7c0.6,0.6,0.3,1.5,0.3,2.4v75.8c0,0.6,0.3,0.9,0.3,1.5c-5.4,22.9-21.4,24.7-36.4,24.7
				C82.6,191.6,79,191.3,73.9,191.6z M110.3,164.8v-74l-1.2-2.7c-0.3,0,0-0.3,0-0.6c-1.2-3.9-7.8-14.1-13.2-22.6
				c-6-9.3-11.7-18-13.8-23.5c-3-7.5-3.6-16.2-3.6-21.4c-1.8-0.3-3.9,0-5.4,0.9c-6,4.2-11.7,9-10.5,21.1c0.3,3.6,2.1,7.8,4.2,12.3
				c1.8,3.6,3.6,7.5,4.5,11.4c0.6,2.1,0.6,4.5,0.6,6.9c0,1.8,0,3.3,0.3,4.8c0.3,1.5-0.3,3.3-1.2,4.5c-1.2,1.2-2.7,2.1-4.2,2.1
				l-1.8,0.3C56.8,85.4,48.3,86,40.8,86c-3.6,0-6.9,0-9.3,0c-2.7,0-4.8,0-6.3,0h-0.3c-0.3,0-0.9,0-1.5,0c-3.3,0.3-6.3,2.1-8.4,4.8
				s-2.7,6-2.4,9.3c0.6,3.6,2.4,6.6,5.4,8.7c3.9,2.7,5.4,9.9,2.7,13.8c-1.2,1.8-1.8,4.2-1.5,6.6c0.3,2.7,1.8,5.1,3.9,6.6
				c4.2,3.3,3.9,10.5,2.4,13.5c-0.6,1.2-0.9,2.7-0.6,3.9c0.3,2.4,1.5,4.2,3.6,5.4c1.8,1.2,3.3,3,3.9,5.4c0.6,2.4,0.3,5.4-0.9,7.5
				c-0.3,0.6-0.3,1.8-0.3,2.4c0.3,1.8,1.8,3,3,3.3c0.3,0.3,0.9,0.3,1.2,0.6c1.8,0.9,6.9,0.9,8.7,0.9l0,0c2.1,0,4.2,0,6.6,0
				c3.3,0,6.6,0,10.5,0c4.8,0,9.3,0.3,13.8,0.3c3.9,0.3,7.2,0.3,10.5,0.3C100.7,179.5,107.3,177.4,110.3,164.8L110.3,164.8z"/>
		</g>
		<g display="none">
			<path display="inline" fill="#757575" d="M56.8,169c-0.3-0.3-0.3-0.3-0.3-0.6c0-3,3-3,3.9-3c1.8,0,3,1.2,3,3c0,1.5-1.5,2.7-3,2.7
				c-0.3,0-0.6-0.6-0.9-0.6l0,0C58,170.5,57.1,170.2,56.8,169z"/>
		</g>
		<g display="none">
			<path display="inline" fill="#757575" d="M72.7,172c-1.2,0-2.7-0.3-4.2-0.3c-1.5-0.3-3-1.8-2.7-3.3c0.3-1.5,1.8-2.7,3.3-2.7
				s2.7,0.3,4.2,0.3c10.8,0.6,16.8,1.2,22.9-5.7c1.2-1.2,3-1.5,4.2-0.3c1.2,1.2,1.5,3,0.3,4.2c-5.7,6.6-12,8.1-19.2,8.1
				C78.7,172.3,75.7,172.3,72.7,172z"/>
		</g>
	</g>
</g>
</svg>
