<?xml version="1.0" encoding="utf-8"?>
<!-- Generator: Adobe Illustrator 18.0.0, SVG Export Plug-In . SVG Version: 6.00 Build 0)  -->
<!DOCTYPE svg PUBLIC "-//W3C//DTD SVG 1.1//EN" "http://www.w3.org/Graphics/SVG/1.1/DTD/svg11.dtd">
<svg version="1.1" id="Capa_1" xmlns="http://www.w3.org/2000/svg" xmlns:xlink="http://www.w3.org/1999/xlink" x="0px" y="0px"
	 viewBox="0 0 512 512" enable-background="new 0 0 512 512" xml:space="preserve">
<g>
	<g>
		<path fill="#1ab9f2" d="M0,81.5v69.8h69.8V81.5H0z M116.4,81.5v69.8c0,0,283.3,0.1,290.3,0c44.3-4.8,42.3-59.8-0.8-69.8
			C397.7,81.5,116.4,81.5,116.4,81.5z M0,221.1v69.8h69.8v-69.8H0z M116.4,221.1v69.8c0,0,186.4,0,195.6,0
			c45.6-6.4,49.3-65.1-1.3-69.8C295.9,221.1,116.4,221.1,116.4,221.1z M0,360.7v69.8h69.8v-69.8H0z M116.4,360.7v69.8
			c0,0,274.3,0,290.6,0c44.3-11,44.3-57-0.5-69.8C392.3,360.7,116.4,360.7,116.4,360.7z"/>
	</g>
</g>
</svg>
