<?xml version="1.0" encoding="utf-8"?>
<!-- Generator: Adobe Illustrator 18.0.0, SVG Export Plug-In . SVG Version: 6.00 Build 0)  -->
<!DOCTYPE svg PUBLIC "-//W3C//DTD SVG 1.1//EN" "http://www.w3.org/Graphics/SVG/1.1/DTD/svg11.dtd">
<svg version="1.1" id="Layer_1" xmlns="http://www.w3.org/2000/svg" xmlns:xlink="http://www.w3.org/1999/xlink" x="0px" y="0px"
	 viewBox="89 18.8 222 370.3" enable-background="new 89 18.8 222 370.3" xml:space="preserve">
<path fill="none" stroke="#666666" stroke-width="12" stroke-miterlimit="10" d="M200,25C142.2,25,95.2,70.9,95.2,128.7
	c0,12.8,7.6,39.3,7.6,39.3c0.9,2.4,1.1,2.6,1.6,3.6L200,375l95.2-202.4l0.5-0.9c0.4-0.9,0.9-1.7,1.3-2.7l0.3-0.9
	c5.1-12.6,7.7-25.9,7.7-39.3C304.8,70.9,257.8,25,200,25z"/>
<path fill="none" stroke="#666666" stroke-width="12" stroke-miterlimit="10" d="M200,75c-27.6,0-50,22.4-50,50s22.4,50,50,50
	s50-22.4,50-50S227.6,75,200,75z"/>
</svg>
