<?xml version="1.0" encoding="utf-8"?>
<!-- Generator: Adobe Illustrator 18.0.0, SVG Export Plug-In . SVG Version: 6.00 Build 0)  -->
<!DOCTYPE svg PUBLIC "-//W3C//DTD SVG 1.1//EN" "http://www.w3.org/Graphics/SVG/1.1/DTD/svg11.dtd">
<svg version="1.1" id="Capa_1" xmlns="http://www.w3.org/2000/svg" xmlns:xlink="http://www.w3.org/1999/xlink" x="0px" y="0px"
	 viewBox="0 0 512 512" enable-background="new 0 0 512 512" xml:space="preserve">
<g>
	<g>
		<path fill="#1CC4F0" stroke="#1CC4F0" stroke-width="7" stroke-miterlimit="10" d="M250.1,492.5c0,8,6.4,14.4,14.4,14.4h130.9
			c51.3,0,93.2-41.7,93.2-93.2V98.3c0-51.3-41.7-93.2-93.2-93.2h-133c-8,0-14.4,6.4-14.4,14.4s6.4,14.4,14.4,14.4h133
			c35.5,0,64.4,28.9,64.4,64.4v315.5c0,35.5-28.9,64.4-64.4,64.4H264.5C256.6,478.2,250.1,484.6,250.1,492.5z"/>
		<path fill="#1CC4F0" stroke="#1CC4F0" stroke-width="7" stroke-miterlimit="10" d="M27.7,266.3l91.4,91.4
			c2.8,2.9,6.5,4.3,10.1,4.3c3.6,0,7.3-1.5,10.1-4.3c5.6-5.6,5.6-14.7,0-20.3l-66.9-66.9h291.7c8,0,14.4-6.4,14.4-14.4
			s-6.4-14.4-14.4-14.4H72.5l66.9-66.9c5.6-5.6,5.6-14.7,0-20.3c-5.6-5.6-14.7-5.6-20.3,0l-91.4,91.4C22,251.4,22,260.6,27.7,266.3z
			"/>
	</g>
</g>
</svg>
