<?xml version="1.0" encoding="utf-8"?>
<!-- Generator: Adobe Illustrator 18.0.0, SVG Export Plug-In . SVG Version: 6.00 Build 0)  -->
<!DOCTYPE svg PUBLIC "-//W3C//DTD SVG 1.1//EN" "http://www.w3.org/Graphics/SVG/1.1/DTD/svg11.dtd">
<svg version="1.1" id="Layer_1" xmlns="http://www.w3.org/2000/svg" xmlns:xlink="http://www.w3.org/1999/xlink" x="0px" y="0px"
	 viewBox="0 0 520 520" enable-background="new 0 0 520 520" xml:space="preserve">
<g>
	<path fill="#232D88" d="M302.5,19.1H68.9v410.6h327.7V113.3L302.5,19.1z M348.7,369.7H116.8c-4.5,0-8.5-3.6-8.5-8.5
		c0-4.5,3.6-8.5,8.5-8.5h231.6c4.5,0,8.5,3.6,8.5,8.5S353.3,369.7,348.7,369.7z M348.7,298H116.8c-4.5,0-8.5-3.6-8.5-8.5
		c0-4.5,3.6-8.5,8.5-8.5h231.6c4.5,0,8.5,3.6,8.5,8.5C356.9,294.1,353.3,298,348.7,298z M348.7,214.3h-49.5l-10.6,12.9
		c-4.2,5.1-12.5,3.6-14.5-2.8l-16.6-50.5l-20.9,77.5c-3.9,9.5-13.8,7-16,0.3l-16.9-54.4c0,0-7.6,17.3-15.7,17.3h-71.3
		c-4.5,0-8.5-3.6-8.5-8.5c0-4.5,3.6-8.5,8.5-8.5h66.8l15.9-24.4c3.9-5.9,12.9-4.7,15,2.1l13.7,43.8l20.6-76.9
		c4.3-10.8,15.2-5,16-0.3l20.9,62.8c0,0,6.3-9.6,10.1-7.2h53.1c4.5,0,8.5,3.6,8.5,8.5C357.4,210.9,353.3,214.3,348.7,214.3z"/>
	<g id="XMLID_1_">
		<g>
			<polygon fill="#1DB6EC" points="396.6,116.7 333.5,116.7 302.1,116.7 302.1,116.6 302.1,22.5 			"/>
		</g>
		<g>
		</g>
	</g>
</g>
<g>
	<path fill="#1DB6EC" d="M465.6,344.8c-9.6-16.5-22.7-29.6-39.2-39.2c-16.5-9.6-34.5-14.5-54.1-14.5c-19.5,0-37.6,4.8-54.1,14.5
		c-16.5,9.6-29.6,22.7-39.2,39.2c-9.6,16.5-14.5,34.5-14.5,54.1c0,19.5,4.8,37.6,14.5,54.1c9.6,16.5,22.7,29.6,39.2,39.2
		c16.5,9.6,34.5,14.5,54.1,14.5s37.6-4.8,54.1-14.5c16.5-9.6,29.6-22.7,39.2-39.2c9.6-16.5,14.4-34.5,14.4-54.1
		C480.1,379.3,475.2,361.3,465.6,344.8z"/>
	<g id="XMLID_2_">
		<g>
			<path fill="#FFFFFF" d="M435.2,389.9v18c0,2.4-0.9,4.5-2.7,6.3c-1.8,1.8-3.9,2.7-6.3,2.7h-35.9v35.9c0,2.4-0.9,4.5-2.7,6.3
				c-1.8,1.8-3.9,2.7-6.3,2.7h-18c-2.4,0-4.5-0.9-6.3-2.7c-1.8-1.8-2.7-3.9-2.7-6.3v-35.9h-35.9c-2.4,0-4.5-0.9-6.3-2.7
				c-1.8-1.8-2.7-3.9-2.7-6.3v-18c0-2.4,0.9-4.5,2.7-6.3c1.8-1.8,3.9-2.7,6.3-2.7h35.9V345c0-2.4,0.9-4.5,2.7-6.3
				c1.8-1.8,3.9-2.7,6.3-2.7h18c2.4,0,4.5,0.9,6.3,2.7c1.8,1.8,2.7,3.9,2.7,6.3v35.9h35.9c2.4,0,4.5,0.9,6.3,2.7
				S435.2,387.4,435.2,389.9z"/>
		</g>
		<g>
		</g>
	</g>
</g>
</svg>
