<?xml version="1.0" encoding="utf-8"?>
<!-- Generator: Adobe Illustrator 18.0.0, SVG Export Plug-In . SVG Version: 6.00 Build 0)  -->
<!DOCTYPE svg PUBLIC "-//W3C//DTD SVG 1.1//EN" "http://www.w3.org/Graphics/SVG/1.1/DTD/svg11.dtd">
<svg version="1.1" id="Layer_1" xmlns="http://www.w3.org/2000/svg" xmlns:xlink="http://www.w3.org/1999/xlink" x="0px" y="0px"
	 viewBox="0 0 24 24" enable-background="new 0 0 24 24" xml:space="preserve">
<path fill="#FFFFFF" d="M6.1,13c-0.6,0-1,0.4-1,1s0.4,1,1,1h1.5l-3.3,3.3c-0.4,0.4-0.4,1,0,1.4C4.5,19.9,4.7,20,5,20
	s0.5-0.1,0.7-0.3l3.4-3.4V18c0,0.6,0.4,1,1,1s0.9-0.4,0.9-1v-5H6.1z"/>
<path fill="#FFFFFF" d="M7,11c0.6,0,1-0.4,1-1V8h2c0.6,0,1-0.4,1-1s-0.4-1-1-1H6l0,4C6,10.6,6.4,11,7,11z"/>
<path fill="#FFFFFF" d="M17,13c-0.6,0-1,0.4-1,1v2h-2c-0.6,0-1,0.4-1,1s0.4,1,1,1h4v-4C18,13.4,17.6,13,17,13z"/>
<path fill="#FFFFFF" d="M18.3,4.3L15,7.6V6c0-0.6-0.4-1-1-1s-1,0.4-1,1v5h5c0.6,0,1-0.4,1-1s-0.4-1-1-1h-1.6l3.3-3.3
	c0.4-0.4,0.4-1,0-1.4S18.7,3.9,18.3,4.3z"/>
</svg>
