<?xml version="1.0" encoding="utf-8"?>
<!-- Generator: Adobe Illustrator 18.0.0, SVG Export Plug-In . SVG Version: 6.00 Build 0)  -->
<!DOCTYPE svg PUBLIC "-//W3C//DTD SVG 1.1//EN" "http://www.w3.org/Graphics/SVG/1.1/DTD/svg11.dtd">
<svg version="1.1" id="Capa_1" xmlns="http://www.w3.org/2000/svg" xmlns:xlink="http://www.w3.org/1999/xlink" x="0px" y="0px"
	 viewBox="0 0 512 512" enable-background="new 0 0 512 512" xml:space="preserve">
<g>
	<path fill="#FFFFFF" d="M256,136.5c37.6,0,68.3-30.6,68.3-68.3S293.6,0,256,0s-68.3,30.6-68.3,68.3S218.4,136.5,256,136.5z"/>
	<path fill="#FFFFFF" d="M256,375.5c-37.6,0-68.3,30.6-68.3,68.3S218.4,512,256,512s68.3-30.6,68.3-68.3S293.6,375.5,256,375.5z"/>
	<path fill="#FFFFFF" d="M256,187.7c-37.6,0-68.3,30.6-68.3,68.3s30.6,68.3,68.3,68.3s68.3-30.6,68.3-68.3S293.6,187.7,256,187.7z"
		/>
</g>
</svg>
