<?xml version="1.0" encoding="utf-8"?>
<!-- Generator: Adobe Illustrator 18.0.0, SVG Export Plug-In . SVG Version: 6.00 Build 0)  -->
<!DOCTYPE svg PUBLIC "-//W3C//DTD SVG 1.1//EN" "http://www.w3.org/Graphics/SVG/1.1/DTD/svg11.dtd">
<svg version="1.1" xmlns="http://www.w3.org/2000/svg" xmlns:xlink="http://www.w3.org/1999/xlink" x="0px" y="0px"
	 viewBox="0 0 311.5 311.5" enable-background="new 0 0 311.5 311.5" xml:space="preserve">
<g id="Layer_2">
	<g>
		<path fill="#777777" d="M232.3,157.6c-22.9,4.9-47.7,27.9-71,27.9c-35,0-41-25.8-72.2-27.9c-34.4-1.7-67.3,12-77.5,15.9
			s-8.9,8.7-8.3,10.2c1.3,2.9,2.4,4.3,9.6,3.1c0,0,47.2-19.6,79.6-16.3c16.2,2.3,34.1,27.9,68.5,28.2c24.3,0.2,49.6-23.9,73.5-29
			c36.3-7.7,69.5,18.8,69.5,18.8c4,0,9.2-4,4.2-11.2C305.8,173.9,270.3,149.5,232.3,157.6z"/>
	</g>
	<g>
		<path fill="#777777" d="M232.4,189.6c-22.9,4.9-47.7,27.9-71,27.9c-35,0-41-25.8-72.2-27.9c-34.4-1.7-67.3,12-77.5,15.9
			s-8.9,8.7-8.3,10.2c1.3,2.9,2.3,4.7,9.6,3.1c0,0,47.2-19.6,79.6-16.3c16.2,2.3,34.1,27.9,68.5,28.2c24.3,0.2,49.6-23.9,73.5-29
			c36.3-7.7,69.5,18.8,69.5,18.8c4,0,9.2-4,4.2-11.2C305.9,205.9,270.4,181.5,232.4,189.6z"/>
	</g>
</g>
<g id="Capa_1">
	<g>
		<path fill="#777777" d="M154,44.1V14c0-4,3.2-7.2,7.2-7.2s7.2,3.2,7.2,7.2v30.1c0,4-3.2,7.2-7.2,7.2S154,48.1,154,44.1z M72.7,86
			c1.4,1.4,3.3,2.1,5.1,2.1c1.8,0,3.7-0.7,5.1-2.1c2.8-2.8,2.8-7.4,0-10.2L57.1,49.9c-2.8-2.8-7.4-2.8-10.2,0
			c-2.8,2.8-2.8,7.4,0,10.2L72.7,86z M104.9,163.6c-0.9-4.1-1.4-8.2-1.4-12.5c0-31.9,25.9-57.8,57.8-57.8
			c31.9,0,57.8,25.9,57.8,57.8c0,4.3-0.5,8.5-1.4,12.5h14.7c0.7-4.1,1.2-8.3,1.2-12.5c0-39.8-32.4-72.2-72.2-72.2
			c-39.8,0-72.2,32.4-72.2,72.2c0,4.3,0.4,8.5,1.2,12.5H104.9z M233.1,88.1c1.9,0,3.7-0.7,5.1-2.1l25.9-25.9c2.8-2.8,2.8-7.4,0-10.2
			s-7.4-2.8-10.2,0L228,75.8c-2.8,2.8-2.8,7.4,0,10.2C229.4,87.4,231.3,88.1,233.1,88.1z"/>
	</g>
</g>
</svg>
