<?xml version="1.0" encoding="utf-8"?>
<!-- Generator: Adobe Illustrator 18.0.0, SVG Export Plug-In . SVG Version: 6.00 Build 0)  -->
<!DOCTYPE svg PUBLIC "-//W3C//DTD SVG 1.1//EN" "http://www.w3.org/Graphics/SVG/1.1/DTD/svg11.dtd">
<svg version="1.1" id="Layer_1" xmlns="http://www.w3.org/2000/svg" xmlns:xlink="http://www.w3.org/1999/xlink" x="0px" y="0px"
	 viewBox="0 0 520 520" enable-background="new 0 0 520 520" xml:space="preserve">
<g>
	<g>
		<g>
			<path fill="#232D88" d="M456.2,138.3c0,0-350.7,0.2-351.7,0.5l-0.3-42.5c-2.8-7.6-11.4-12.9-21.1-12.9H39c-6.1,0-27,3.5-27,8.5
				v19.7c0,5,20.9,8.1,27,8.1h27.8c0,0-1.5,192,3.2,204.2c6,15.7,15.7,55,71,66.1l289.7-0.5c24,0.6,38.2-29.9,38.2-29.9
				c0-5,26.8-196.2,26.8-196.2C495.7,147.4,473.9,141,456.2,138.3z"/>
		</g>
	</g>
</g>
<circle fill="#1DB6EC" cx="160.3" cy="458.4" r="44.1"/>
<circle fill="#1DB6EC" cx="424.8" cy="458.4" r="44.1"/>
<path fill="#263195" d="M135.7,287.9"/>
</svg>
