<?xml version="1.0" encoding="utf-8"?>
<!-- Generator: Adobe Illustrator 18.0.0, SVG Export Plug-In . SVG Version: 6.00 Build 0)  -->
<!DOCTYPE svg PUBLIC "-//W3C//DTD SVG 1.1//EN" "http://www.w3.org/Graphics/SVG/1.1/DTD/svg11.dtd">
<svg version="1.1" id="Capa_1" xmlns="http://www.w3.org/2000/svg" xmlns:xlink="http://www.w3.org/1999/xlink" x="0px" y="0px"
	 viewBox="0 0 200 200" enable-background="new 0 0 200 200" xml:space="preserve">
<path fill="none" stroke="#999999" stroke-width="16" stroke-miterlimit="10" d="M175.8,128.3c-11.1,0-21.9-1.7-32.2-5.1
	c-5.1-1.7-11-0.4-14.3,3L109,141.4c-23.6-12.5-38-26.9-50.4-50.1l14.9-19.6c3.9-3.8,5.2-9.4,3.6-14.7c-3.4-10.3-5.2-21-5.2-32
	c0-7.9-6.5-14.4-14.5-14.4H24.2c-8,0-14.5,6.4-14.5,14.4c0,91,74.5,165,166.1,165c8,0,14.5-6.4,14.5-14.4v-32.8
	C190.3,134.7,183.8,128.3,175.8,128.3z"/>
<path display="none" fill="#1E88E5" d="M188.9,184c0,2.7-2.2,4.9-4.9,4.9C88.6,188.9,11.1,111.4,11.1,16c0-2.7,2.2-4.9,4.9-4.9h36.7
	c2.7,0,4.9,2.2,4.9,4.9c0,13.4,2.1,26.6,6.2,39.1c0.6,1.8,0.1,3.8-1.8,5.7L43.1,86.1c-1.3,1.7-1.5,4-0.5,5.9
	c15.6,30.6,34.5,49.6,65.4,65.4c1.9,1,4.2,0.8,5.9-0.5l25.9-19.6c1.3-1.3,3.3-1.8,5-1.2c12.6,4.2,25.8,6.3,39.2,6.3
	c2.7,0,4.9,2.2,4.9,4.9L188.9,184L188.9,184z"/>
<g>
	<circle display="none" fill="#303C42" cx="100" cy="77.8" r="11.1"/>
	<circle display="none" fill="#303C42" cx="144.4" cy="77.8" r="11.1"/>
	<circle display="none" fill="#303C42" cx="188.9" cy="77.8" r="11.1"/>
</g>
</svg>
