<?xml version="1.0" encoding="utf-8"?>
<!-- Generator: Adobe Illustrator 18.0.0, SVG Export Plug-In . SVG Version: 6.00 Build 0)  -->
<!DOCTYPE svg PUBLIC "-//W3C//DTD SVG 1.1//EN" "http://www.w3.org/Graphics/SVG/1.1/DTD/svg11.dtd">
<svg version="1.1" id="Capa_1" xmlns="http://www.w3.org/2000/svg" xmlns:xlink="http://www.w3.org/1999/xlink" x="0px" y="0px"
	 viewBox="0 0 512 512" enable-background="new 0 0 512 512" xml:space="preserve">
<g>
	<g id="XMLID_1_">
		<g>
			<path fill="#FBB749" d="M509.7,195.5c5.5,16.5,0.8,33.8-12.3,45.1l-98,79.9c-2,1.7-2.9,4.4-2.3,7l29.5,120.7
				c2.9,13,0,26.1-8,36.1c-7.7,9.7-19.6,15.4-31.6,15.4c-7.8,0-15.5-2.4-22.2-6.9l-106.5-65.4c-2.2-1.4-5-1.4-7.2,0l-105.5,65.6
				c-6.4,4.3-14.1,6.7-22,6.7c-12.8,0-25-6.2-32.9-16.4c-7.6-10.1-10-23.1-6.6-35.6l29.4-120.4c0.6-2.5-0.3-5.2-2.3-6.9l-96.5-79.7
				c-13.4-11.4-18-28.7-12.4-45.2c5.5-16.3,19.9-27.3,36.8-28.3l124.7-9c2.6-0.2,4.8-1.9,5.8-4.3l47.7-115.9
				c6.7-16.1,21.4-26,38.7-26s32.1,9.9,38.7,25.9l47.6,115.8c0.9,2.5,3.2,4.1,5.8,4.3l124.9,9C489.8,168.1,504.3,179.3,509.7,195.5z
				"/>
		</g>
		<g>
		</g>
	</g>
</g>
</svg>
