<?xml version="1.0" encoding="utf-8"?>
<!-- Generator: Adobe Illustrator 18.0.0, SVG Export Plug-In . SVG Version: 6.00 Build 0)  -->
<!DOCTYPE svg PUBLIC "-//W3C//DTD SVG 1.1//EN" "http://www.w3.org/Graphics/SVG/1.1/DTD/svg11.dtd">
<svg version="1.1" id="Layer_1" xmlns="http://www.w3.org/2000/svg" xmlns:xlink="http://www.w3.org/1999/xlink" x="0px" y="0px"
	 viewBox="0 0 363 520.5" enable-background="new 0 0 363 520.5" xml:space="preserve">
<g>
	<g>
		<path fill="#FEFEFE" d="M8.7,261.1c0-82.5,0-165.1,0-247.6c0-1.8,0.4-2.2,2.2-2.2c112.8,0,225.6,0,338.5,0c1.8,0,2.2,0.4,2.2,2.2
			c0,165.2,0,330.4,0,495.7c0,1.8-0.4,2.2-2.2,2.2c-112.8,0-225.6,0-338.5,0c-1.8,0-2.2-0.4-2.2-2.2C8.7,426.5,8.7,343.8,8.7,261.1z
			 M140.9,323.2c0.9-0.2,1.2-0.2,1.4-0.3c12.6-5.5,25.2-11.1,37.9-16.6c1-0.4,1.2-1,1.2-2c-0.1-2.6,0-5.3,0-7.9
			c0-0.9,0.2-1.4,1.2-1.6c4.6-0.9,9.2-2,13.7-3.5c1.2-0.4,1.9-0.2,1.9,1.4c-0.1,8.3-0.1,16.7,0,25c0,1.4-0.5,1.8-1.8,1.8
			c-5.4,0.1-10.2-1.6-14.3-5.1c-0.9-0.8-1.6-1.7-3.3-1.1c-12.1,5-24.2,9.9-36.3,14.8c-1.3,0.5-1.5,1.2-1.5,2.5c0.2,18,0.4,36,0.5,54
			c0,1.2,0.3,2,1.4,2.8c2.5,1.9,4.9,4.1,7.3,6.1c8.8,7.4,17.5,14.9,26.3,22.3c10.1,8.5,20.1,17,30.2,25.5c2.5,2.1,5,4.2,7.9,6.6
			c0.1-45.5-0.8-90.5-0.4-135.6c-1.3,0.2-2,1-2.7,1.5c-3,2.1-6.3,3.7-9.9,4.6c-1.1,0.3-1.7,0.2-1.5-1.1c0.3-2.7,0-5.4,0.8-8.2
			c4.3,2.8,8.3,2.3,12.1-0.9c6.7-5.7,9.9-13.6,13.5-21.8c-4.8,1.2-8.7,2.7-12.6,4.6c-5.5,2.8-10.4,6.4-13.6,12
			c-0.3-4.2-0.3-8.3-0.2-12.5c0-1.6,1-0.8,1.6-0.5c3.1,1.4,6,1.2,8.9-0.7c2-1.3,3.6-2.9,5.1-4.7c0.8-1.1,1.8-1.8,2.9-2.4
			c10.3-5.4,19.7-12,28.1-20c11.3-10.8,20.4-23.2,26.8-37.5c5.1-11.2,8.1-23.1,8.8-35.4c0.7-10.9,0.1-21.8-2.5-32.4
			c-0.4-1.7-0.2-2.5,1.5-3.3c8.3-3.7,16.6-7.7,24.9-11.5c1.5-0.7,2.4-1.6,3-3.1c1.5-4.4,3.1-8.7,5.1-12.9c0.6-1.2,1.4-2.2,2.6-3
			c10.8-6.5,21.6-12.9,32.8-18.7c1.6-0.8,1.7-1.8,1.2-3.3c-1.1-2.9-3-5.2-4.6-7.8c-1-1.7-1.9-1.4-3.2-0.6c-2.8,1.7-5.6,3.2-8.5,4.9
			c-0.2-1.3-0.2-2.2-0.4-3.2c-0.2-1-0.5-2-0.8-3c-1-2.4-2.2-3-4.7-2.3c-3.2,0.9-6.1,2.7-9.1,4.2c-1.2,0.6-0.6,1.3-0.4,1.9
			c0.9,2.3,1.6,4.7,2.7,6.9c1.2,2.3,0.3,3.2-1.7,4.3c-15.8,8-31.5,16-47.1,24.1c-1.9,1-3,1.3-3.9-1.1c-0.5-1.4-1.4-2.7-2.2-3.9
			c-4.9-8.1-10.4-15.9-17.4-22.4c-6.6-6.1-13.5-11.9-20.7-17.4c-1.1-0.9-2.4-2.4-3.5-2.3c-2.6,0.3-4-1.6-6-2.3
			c-1.8-0.7-1.9-1.6-0.9-3.1c2.8-4.3,5.1-8.9,7.1-14c-7,2.2-13.6,4.3-18.9,9c-2.1,1.8-3.8,0.9-5.6,0.2c-1.8-0.7-0.6-2.2-0.8-3.3
			c-0.1-0.7-0.3-1.6,0.3-2.4c3.5,1.6,6.6,0.5,9-2.1c4.1-4.3,6.5-9.6,8.9-15.4c-7.1,2.1-13.4,4.5-18.3,10.6c0-3.1,0.1-5.7,0-8.2
			c0-1.2,0.4-1.5,1.5-1.3c1.9,0.3,3.7-0.4,5.1-1.6c5.2-4.4,7.6-10.5,10.6-16.9c-6.5,2.1-12.4,4.2-17.4,9.5c0.4-3.8-0.9-7.2,0.6-9.9
			c1.9-3.3,1.7-6.2,0.7-9.4c-1.2-3.8-3-7.4-5.7-11.1c-0.7,2.8-1.4,5-1.9,7.3c-0.8,4.1-1.2,8.3,0.9,12.2c0.7,1.4,0.9,3.4,3.2,3.3
			c0.4,0,0.5,0.3,0.5,0.7c-0.1,3.4,0.4,6.9-0.2,10.3c-0.3,1.8-1.9,3.4,0,5.2c0.1,0.1,0.1,0.6-0.3,0.8c-4.5-4.4-9.8-7.5-16-9.9
			c1.4,5.5,3.3,10.4,6.3,14.7c2.2,3.1,4.8,5.8,9.1,5.6c1-0.1,1.1,0.6,1.1,1.4c0,2,0,4,0,6c0,3,0,3-2.9,2.1
			c-12.4-3.8-25.1-5.4-38-5.6c-8-0.1-16,0.5-23.9,1.8c-12.7,2.1-24.8,5.9-36.3,11.6c-11.1,5.6-21.1,12.6-30.4,21
			c-12.3,11-22.1,23.9-28.4,39.1c-7.3,17.4-9.6,35.5-7.5,54.2c0.6,5.1,1.6,10.1,2.7,15.1c0.1,0.6,0.9,1.7-0.4,1.6
			c-1.6-0.2-2.5,0-2.8,1.7c-0.1,0.5-0.9,0.4-1.3,0.2c-1.2-0.3-1.5,0.2-1.6,1.3c-0.1,0.8-0.1,1.1,0.8,1.3c1.2,0.3,1.8,0.3,2-1.1
			c0.1-0.6,0.3-1.3,1-0.9c1.6,0.7,2.3-0.3,3-1.9c0.6,1.9,1.1,3.4,1.6,5c-4.5,0.6-5.7,2.5-4.6,6.9c0.1,0.2,0.2,0.5,0.2,0.7
			c0.9,2.8,2.5,3.5,5.1,2.2c0.5-0.2,1-0.5,1.5-0.6c0.4-0.1,1-0.1,1.2,0.5c0.2,0.5-0.3,0.7-0.6,0.9c-1.3,0.8-2.6,1.5-3.9,2.4
			c-1.7,1.2-3,1.5-4.6-0.4c-2-2.3-4.8-2-5.7,0.5c-1.2,3.5,0.1,6.6,2.1,9.5c1.6,2.3,3.5,1,5.4,0.4c0.1,0,0.2,0.2,0.4,0.3
			c-1.2,2.9-2.4,5.9-3.6,8.8c-0.2,0.5-0.5,0.9,0.1,1.3c0.4,0.2,0.7,0,1.1-0.2c1.4-0.8,2.7-1.7,4.1-2.4c2.9-1.4,3.5-2.2,2.6-6.2
			c-0.7-2.8-0.9-4.9,2.3-6c0.6-0.2,1.2-0.9,1.6-1.4c1.4-1.9,2.1-1.3,3,0.5c3.6,7,8.1,13.4,13.3,19.2c1.5,1.7,1,2.2-0.6,3
			c-11.4,5.6-22.8,11.3-34.2,17c-1.5,0.8-2.4,1.7-2.7,3.5c-1.5,8.9-3.1,17.8-4.7,26.7c-1.2,6.8-2.4,13.7-3.6,20.5
			c-0.4,2.2-0.1,4.4,1.9,5.5c1.9,1.1,2.4-1.5,3.7-2.2c0.1,0,0.1-0.1,0.2-0.2c10.8-10.4,21.8-20.4,32.8-30.5
			c8.5-7.8,17-15.6,25.4-23.4c1-0.9,1.7-1.2,2.8-0.2c1.5,1.3,3.1,2.7,4.9,3.4c5.3,1.9,6.1,5.6,4.6,10.4c-0.3,1-0.4,2.1,0.4,3
			c2,2.4,4.3,4.2,7.6,4.6c3.7,0.5,7.1-0.6,10.6-1.3c1.6-0.3,3.4-0.3,4.5-1.2c1.3-1.1,2.2-1,3.4-0.6c7.9,2.7,16,4.5,24.2,5.5
			c2.2,0.3,2.8,1,2.8,3.2C140.8,307.3,140.9,315.2,140.9,323.2z M123.3,489.8c1.1,1,2,1.8,2.9,2.6c6.8,5.8,13.6,11.6,20.3,17.5
			c1,0.9,1.4,0.7,2.3-0.1c3.1-3.1,6.4-6.1,9.6-9.1c11.5-11,23-22,34.5-33c5.8-5.6,11.7-11.1,17.5-16.7c-0.8-1.3-2.1-1.9-3.1-2.8
			c-9.5-8.1-19.1-16.2-28.7-24.3c-10.4-8.8-20.9-17.5-31.4-26.3c-11.7-9.8-23.3-19.7-34.9-29.5c-12.5-10.5-25.1-21-37.6-31.5
			c-10.6-8.9-21.2-17.9-31.8-26.9c-1.1-0.9-1.8-1.2-3,0c-6.8,6.7-13.7,13.2-20.6,19.8c-2.1,2-2.1,2,0.3,4
			c15.1,12.9,30.2,25.8,45.3,38.7c15.7,13.4,31.4,26.9,47.1,40.4c15.6,13.4,31.3,26.8,46.9,40.2c0.9,0.8,1.1,1.4,0.1,2.3
			c-2,1.9-3.9,3.8-5.8,5.7C143.2,470.6,133.3,480.2,123.3,489.8z M136.9,442.7c-0.1-0.7-0.7-1-1.2-1.4c-1.9-1.6-3.8-3.2-5.6-4.8
			c-6.4-5.5-12.9-11-19.3-16.5c-0.8-0.7-1.2-0.6-1.8,0.1c-2.4,2.6-4.9,5.2-7.4,7.8c-7.6,8-15.2,16-22.9,23.9
			c-1.1,1.2-1.1,1.6,0.2,2.6c12.7,10,25.4,20,38,30.2c1.8,1.4,2.8,1.3,4.3-0.1c6.3-5.8,12.5-11.6,18.9-17.3c1.1-1,0.8-1.3,0-2
			c-3.7-3.3-7.3-6.7-11.1-9.9c-1.2-1-0.9-1.6-0.1-2.5c2.2-2.6,4.3-5.3,6.5-8C135.9,444.1,136.4,443.4,136.9,442.7z M281,89.7
			c-1.5,0.9-3,1.7-4.3,2.7c-1,0.7-2.2,1-3.4,1c-0.4,0-1.2,0.1-1.5-0.5c-0.3-0.6,0.2-1,0.6-1.4c1.4-1.7,3.1-2.7,5.2-3.3
			c0.6-0.2,1.6-0.2,0.9-1.3c-1.5-2.6-5.6-3.3-7.7-1.2c-2.1,2.1-2.8,7.1-1.3,9.6c0.3,0.6,1.1,1.2,0.5,1.9c-0.6,0.8-1.5,0.9-2.4,0.7
			c-1.1-0.2-2-0.9-2.9-1.6c-1.8-1.6-3.7-3.2-5.5-4.7c-2.3,3.5-0.7,5.6,2,7.4c0.5,0.3,0.9,0.7,1.3,1.1c0.5,0.4,0.4,1,0.2,1.5
			c-1.1,2.4-4,3-6.2,1.4c-0.3-0.3-0.6-0.9-1.2-0.4c-0.4,0.3-0.4,0.8-0.3,1.3c0.2,2,0.9,3.7,2.2,5.2c1.6,1.9,3.3,2,5.5,0.8
			c2.5-1.5,3-3.9,3.2-6.9c3,2.6,5.8,1.8,8.4-0.3c1.7-1.4,3-3.7,4.9-4.5c3.6-1.5,2.9-3.9,2.2-6.6C281.4,91.1,281.2,90.5,281,89.7z
			 M306.2,85.6c0.1,1-0.5,1.8-0.8,2.6c-0.9,2.2-1.8,4.4-2.7,6.6c-0.2,0.4-0.5,0.9-0.1,1.3c0.4,0.4,0.9,0,1.3-0.2
			c1.2-0.7,2.3-1.5,3.4-2.2c3.9-2.4,4.1-2.8,3.1-7.2c-1-4.4-3-8.2-6.3-11.3c-2.1-2-4.3-1.8-5.5,0.2c-1.2,2-0.2,7.7,1.8,10.1
			c1.8,2.2,3.6,0.4,5.4,0C306,85.5,306.1,85.5,306.2,85.6z M9.1,236.7c0,1.7,1.4,6.9,2.1,8c2.1,3.3,6.5,3.6,8.7,0.3
			c1.7-2.5,2-5.3,0.5-8.1c-1.5-2.8-3.9-4.2-7-4.2C10.5,232.7,9.1,234.1,9.1,236.7z M290.3,92.4c0,0,0-0.1,0-0.3
			c-1.4-6.8-5.4-12.3-8.8-18.1c-0.5-0.9-1.5-0.9-1.8,0.4c-0.4,1.5-0.8,3.1-1.2,4.6c-0.2,0.6,0,1,0.3,1.5c3.1,4.3,6.1,8.7,9.5,12.8
			c0.4,0.4,0.8,1,1.3,0.8C290.3,94,290.3,93.3,290.3,92.4z"/>
		<path fill="#050505" d="M140.9,323.2c0-8.1-0.1-16,0.1-23.9c0-2.2-0.6-2.9-2.8-3.2c-8.3-1-16.3-2.9-24.2-5.5
			c-1.2-0.4-2.2-0.5-3.4,0.6c-1.1,0.9-3,0.9-4.5,1.2c-3.5,0.7-6.9,1.8-10.6,1.3c-3.3-0.5-5.6-2.2-7.6-4.6c-0.8-0.9-0.7-2-0.4-3
			c1.5-4.8,0.7-8.4-4.6-10.4c-1.8-0.7-3.4-2.1-4.9-3.4c-1.2-1-1.8-0.7-2.8,0.2c-8.4,7.8-16.9,15.6-25.4,23.4
			c-11,10.1-22.1,20.2-32.8,30.5c-0.1,0.1-0.1,0.1-0.2,0.2c-1.3,0.7-1.8,3.3-3.7,2.2c-2-1.1-2.3-3.3-1.9-5.5
			c1.2-6.8,2.4-13.7,3.6-20.5c1.6-8.9,3.2-17.8,4.7-26.7c0.3-1.8,1.1-2.7,2.7-3.5c11.4-5.6,22.8-11.3,34.2-17c1.6-0.8,2.1-1.3,0.6-3
			c-5.2-5.8-9.7-12.2-13.3-19.2c-0.9-1.8-1.6-2.3-3-0.5c-0.4,0.6-1,1.2-1.6,1.4c-3.3,1.1-3,3.2-2.3,6c0.9,3.9,0.3,4.8-2.6,6.2
			c-1.4,0.7-2.8,1.6-4.1,2.4c-0.4,0.2-0.7,0.5-1.1,0.2c-0.6-0.3-0.3-0.8-0.1-1.3c1.2-2.9,2.4-5.9,3.6-8.8c-0.2-0.1-0.3-0.3-0.4-0.3
			c-1.9,0.6-3.8,1.8-5.4-0.4c-2-2.8-3.3-6-2.1-9.5c0.9-2.4,3.6-2.8,5.7-0.5c1.6,1.9,2.9,1.6,4.6,0.4c1.2-0.9,2.6-1.6,3.9-2.4
			c0.3-0.2,0.8-0.5,0.6-0.9c-0.2-0.6-0.8-0.6-1.2-0.5c-0.5,0.1-1,0.4-1.5,0.6c-2.6,1.3-4.2,0.6-5.1-2.2c-0.1-0.2-0.2-0.5-0.2-0.7
			c-1.2-4.4,0.1-6.3,4.6-6.9c-0.5-1.5-1-3-1.6-5c-0.8,1.5-1.4,2.6-3,1.9c-0.7-0.3-1,0.4-1,0.9c-0.2,1.3-0.8,1.4-2,1.1
			c-0.9-0.2-0.9-0.5-0.8-1.3c0.1-1.1,0.5-1.6,1.6-1.3c0.4,0.1,1.2,0.2,1.3-0.2c0.3-1.7,1.2-1.9,2.8-1.7c1.3,0.2,0.5-1,0.4-1.6
			c-1.1-5-2.1-10-2.7-15.1c-2.1-18.7,0.2-36.8,7.5-54.2c6.4-15.3,16.2-28.1,28.4-39.1c9.2-8.3,19.3-15.4,30.4-21
			c11.5-5.8,23.6-9.5,36.3-11.6c7.9-1.3,15.9-1.9,23.9-1.8c12.9,0.1,25.6,1.8,38,5.6c2.9,0.9,2.9,0.8,2.9-2.1c0-2,0-4,0-6
			c0-0.8-0.1-1.5-1.1-1.4c-4.3,0.2-7-2.5-9.1-5.6c-3-4.3-4.9-9.2-6.3-14.7c6.2,2.4,11.5,5.5,16,9.9c0.4-0.2,0.4-0.7,0.3-0.8
			c-1.8-1.8-0.3-3.4,0-5.2c0.6-3.4,0.1-6.9,0.2-10.3c0-0.4-0.1-0.7-0.5-0.7c-2.3,0.1-2.5-2-3.2-3.3c-2-3.9-1.7-8.1-0.9-12.2
			c0.4-2.3,1.1-4.5,1.9-7.3c2.6,3.7,4.4,7.3,5.7,11.1c1,3.2,1.2,6.1-0.7,9.4c-1.5,2.6-0.2,6.1-0.6,9.9c5-5.2,10.8-7.3,17.4-9.5
			c-3,6.4-5.4,12.5-10.6,16.9c-1.4,1.2-3.2,1.9-5.1,1.6c-1.2-0.2-1.6,0.1-1.5,1.3c0.1,2.5,0,5.1,0,8.2c4.9-6.1,11.2-8.5,18.3-10.6
			c-2.4,5.8-4.8,11.1-8.9,15.4c-2.5,2.6-5.5,3.7-9,2.1c-0.6,0.9-0.4,1.7-0.3,2.4c0.2,1.1-0.9,2.7,0.8,3.3c1.9,0.7,3.5,1.6,5.6-0.2
			c5.3-4.6,12-6.7,18.9-9c-2,5.1-4.2,9.8-7.1,14c-1,1.6-1,2.5,0.9,3.1c2,0.7,3.4,2.6,6,2.3c1.1-0.1,2.4,1.5,3.5,2.3
			c7.1,5.5,14,11.3,20.7,17.4c7,6.5,12.5,14.3,17.4,22.4c0.8,1.3,1.7,2.5,2.2,3.9c0.8,2.4,2,2.1,3.9,1.1
			c15.7-8.1,31.4-16.1,47.1-24.1c2.1-1,2.9-2,1.7-4.3c-1.1-2.2-1.9-4.6-2.7-6.9c-0.2-0.7-0.8-1.3,0.4-1.9c3-1.5,5.8-3.2,9.1-4.2
			c2.5-0.7,3.7-0.2,4.7,2.3c0.4,1,0.6,2,0.8,3c0.2,0.9,0.3,1.9,0.4,3.2c2.9-1.7,5.8-3.3,8.5-4.9c1.3-0.8,2.2-1.1,3.2,0.6
			c1.6,2.6,3.5,4.9,4.6,7.8c0.6,1.5,0.4,2.4-1.2,3.3c-11.1,5.8-22,12.2-32.8,18.7c-1.2,0.8-2,1.7-2.6,3c-2,4.2-3.7,8.5-5.1,12.9
			c-0.5,1.6-1.5,2.5-3,3.1c-8.3,3.8-16.6,7.7-24.9,11.5c-1.7,0.8-1.9,1.6-1.5,3.3c2.7,10.6,3.2,21.5,2.5,32.4
			c-0.7,12.3-3.8,24.1-8.8,35.4c-6.4,14.3-15.5,26.7-26.8,37.5c-8.4,8-17.9,14.6-28.1,20c-1.1,0.6-2.1,1.3-2.9,2.4
			c-1.4,1.8-3.1,3.5-5.1,4.7c-2.8,1.8-5.8,2.1-8.9,0.7c-0.6-0.3-1.6-1.1-1.6,0.5c0,4.1,0,8.2,0.2,12.5c3.2-5.6,8.1-9.2,13.6-12
			c3.8-1.9,7.8-3.5,12.6-4.6c-3.6,8.3-6.8,16.1-13.5,21.8c-3.8,3.2-7.8,3.8-12.1,0.9c-0.8,2.9-0.4,5.6-0.8,8.2
			c-0.2,1.3,0.4,1.4,1.5,1.1c3.6-0.9,6.9-2.5,9.9-4.6c0.8-0.5,1.4-1.3,2.7-1.5c-0.3,45.1,0.5,90,0.4,135.6c-2.9-2.4-5.4-4.5-7.9-6.6
			c-10.1-8.5-20.1-17-30.2-25.5c-8.8-7.4-17.5-14.9-26.3-22.3c-2.4-2.1-4.8-4.2-7.3-6.1c-1-0.8-1.3-1.6-1.4-2.8
			c-0.1-18-0.3-36-0.5-54c0-1.3,0.2-2,1.5-2.5c12.1-4.9,24.2-9.8,36.3-14.8c1.6-0.7,2.4,0.3,3.3,1.1c4.1,3.5,8.9,5.2,14.3,5.1
			c1.3,0,1.8-0.4,1.8-1.8c-0.1-8.3-0.1-16.7,0-25c0-1.6-0.6-1.7-1.9-1.4c-4.5,1.4-9.1,2.6-13.7,3.5c-1.1,0.2-1.2,0.7-1.2,1.6
			c0,2.6,0,5.3,0,7.9c0,1-0.2,1.6-1.2,2c-12.6,5.5-25.2,11.1-37.9,16.6C142.1,323.1,141.8,323.1,140.9,323.2z M220.3,278.8
			c0.2-0.1,0.5-0.1,0.7-0.2c19.8-11,35.3-26.2,46.3-46c8-14.4,12.2-30,12.8-46.4c0.4-10.1-0.5-20.1-2.9-29.9c-0.3,0-0.4-0.1-0.6,0
			c-6.4,3-12.8,6.1-19.2,9.1c-0.8,0.4-1.1,1-1.4,1.8c-1.3,3.7-2.7,7.3-4,11c-0.4,1.3-1.1,1.9-2.2,2.5c-6.7,3.3-13.4,6.6-20.2,9.9
			c-1.4,0.7-1.9,1.1-1,2.8c7.1,14,14.2,28,21.3,42c0.7,1.4,0.9,2.1-0.9,3c-7.6,3.8-15.1,7.9-22.7,11.8c-1.3,0.7-2.1,1.5-2.7,2.8
			c-2,4.4-4.4,8.5-7.4,12.2c-5,6.1-8.2,7.1-15.6,4.8c-0.2,3.9-0.4,7.7-0.6,11.9c7.6-8.6,18.1-14.8,25.5-15.4
			c-1.5,4.1-3.6,8-5.6,11.9c0,0.2,0,0.4,0,0.6C220.1,278.9,220.2,278.9,220.3,278.8z M180.9,204.2c-4.1,3.6-8,6.7-11.7,10.2
			c-4.7,4.5-9.5,8.9-10.9,15.7c-1.1,5.6-2.6,11-3.3,16.7c-0.2,1.7-0.8,3.5,0.6,5c1.9,2,9.5,3.6,12.1,2.6c0.9-0.4,1.5-0.9,1.6-1.9
			c0.1-1.1-0.4-1.8-1.3-2.3c-1.3-0.7-2.7-0.8-4.1-1.3c-1.1-0.4-2.3-0.9-2.3-2.2c0-6.7,0-13.5,3.5-19.6c4.5-7.7,10.2-14.3,18.3-18.6
			c0.6-0.3,1.2-0.6,1.3-1.5c0.9-4.1-1.1-7.1-5.3-7.7c-1.3-0.2-2.5-0.2-3.8-0.2c-3.4-0.1-6.9-0.1-10.2-1.1c-1.3-0.4-2.8-0.8-3.1-2.3
			c-0.3-1.6,0.9-2.5,1.9-3.3c0.5-0.4,1-0.8,1.6-1.1c5.1-3.1,10.5-5.4,16.4-6.2c1.9-0.3,3.8-1.1,5.6,0.2c5.3,3.6,10.2,7.8,14.5,12.5
			c2.7,3,4.1,6.5,4,10.7c-0.2,6.1-2.2,11.5-5.3,16.7c-0.6,1.1-1,2.1-1,3.4c0,11,0,22,0,32.9c0,0.5-0.4,1.3,0.4,1.7
			c3.7-6.6,9.5-10.4,16.3-13.2c3.6-1.5,3.9-2.2,1.9-5.7c-0.3-0.5-0.6-1-0.9-1.4c-3.7-4-5.9-8.9-8.6-13.5c-1.6-2.8-1.6-5-0.3-8.1
			c4-8.9,4.3-17.9-1.7-26.2c-3.9-5.4-9.1-9.7-14.7-13.3c-1.5-0.9-3.1-1.8-4.9-1.5c-2.8,0.5-1.6-2.1-2.4-3.1c-0.8-1.2-0.1-1.7,1-2.3
			c10.6-5.3,21.2-10.8,31.8-16.1c16.2-8.2,32.4-16.5,48.6-24.7c1.4-0.7,1.6-1.3,0.9-2.7c-2.6-4.9-5.7-9.4-8.7-14
			c-0.1-0.2-0.4-0.8-0.9-0.4c-0.2,0.6-0.1,1.1,0.1,1.6c0.5,1.8,0.2,3.2-1.7,4.2c-1.7,0.9-3.2,2-4.9,3c-0.5,0.3-1.1,0.8-1.8,0.4
			c-0.8-0.6,0-1.2,0.2-1.7c1-2.8,2.2-5.6,3.3-8.3c-0.9-0.7-1.5,0.1-2.1,0.2c-1.1,0.2-2.1,0.3-3-0.4c-2.4-1.9-4-8.2-2.3-10.6
			c1-1.4,0.5-2-0.4-2.9c-6.1-5.6-12.6-10.6-19.5-15.1c-1.5-1-1.9-0.5-2.5,0.9c-2,4.6-4.4,9.1-7.5,13c-2.5,3.3-5.4,6.2-9.6,7.1
			c-3.3,0.7-6-1-8.6-2.4c-1.4-0.7,1-2.3,0.4-3.6c0-0.1,0-0.2,0-0.2c0-8.6,0-17.1,0-25.7c0-1.5-0.6-2.1-1.9-2.4
			c-11.5-3.5-23.3-5.5-35.4-5.9c-3.1-0.1-6.3,0-9.9,0c8.3,7.2,14.3,15.3,18.9,24.5c0.5,1.1,1.1,1.5,2.4,1.3c4-0.6,8-1.3,12-2.3
			c0.8-0.2,1.9-1,2.2,0.6c0.4,1.7-1.1,1.2-1.8,1.4c-4.1,1.3-8.4,1.8-12.8,2.6c1.2,3.5,2.6,6.8,3.3,10.3c0.1,0.5,0.8,1.4-0.4,1.7
			c-1.1,0.3-1.3-0.2-1.5-1.1c-0.8-3.1-1.9-6.1-3.1-9c-0.5-1.2-1.1-1.6-2.5-1.5c-13.3,1.6-26.5,0.7-39.5-2.4c-1.5-0.4-2.2,0.1-3,1.4
			c-2.6,4.6-5,9.3-7.2,14.1c-0.3,0.7-0.5,1.7-1.8,1.1c-1.5-0.7-0.5-1.5-0.2-2.1c2.2-4.7,4.5-9.4,7.2-13.7c1-1.6,0.6-1.8-1-2.3
			c-3.7-1.1-7.3-2.3-10.8-3.7c-1.6-0.6-2.7-0.4-4.1,0.6c-10.1,7.6-19.3,16.1-27.6,25.6c-0.4,0.5-0.7,1.9-2,0.8
			c-1.3-1.1-0.1-1.7,0.4-2.2c3.9-4.6,8.1-8.9,12.5-13c5.1-4.8,10.4-9.2,16.2-13.4c-2.9-1.6-5.6-3-8.1-4.6c-1.1-0.7-1.9-0.6-3,0
			c-15.9,8.3-29.8,19.1-40.5,33.6c-23,30.8-28.3,64.6-16.5,101.1c0.3,1,0.8,1.9,1.6,2.6c1.9,1.8,2.8,4.1,3.1,6.6
			c0.1,0.9,0.2,1.9,0.6,2.8c4.1,8.3,9.2,15.9,15.4,22.8c0.9,1.1,1.6,1.1,2.8,0.5c4.8-2.5,9.6-4.9,14.5-7.3c1.7-0.8,2.8-1.8,3.7-3.5
			c1.7-3.4,3.6-6.6,5.8-9.6c1.7-2.3,3.5-3.9,6.7-3.9c3.6,0,6.7-1.3,8.7-4.8c1.5-2.7,3.6-5.1,5.5-7.6c0.6-0.8,1.3-1.4,2.1-1.9
			c3.1-1.6,6.2-3.2,9.5-4.6c5.9-2.6,6.7-2.1,7.4,4.3c0.7,6.3,1,12.6,1,18.9c0,1.1-0.1,1.8,1.5,2.1c7.2,0.9,14.2,0.5,21.2-1.2
			c1.7-0.4,2.2-1.1,2.4-2.6c1.5-11.8,2.5-23.7,2-35.7c-0.1-2.6-0.2-5.1-0.2-7.7c-0.2-5.2,2.2-7.6,7.3-7.2c1.1,0.1,1.5-0.5,2.1-1.2
			c4.4-5,9.3-6.4,15-4.2c2.5,1,2.7,1.7,0.9,3.7c-3,3.2-6.3,5.9-10.3,7.7c-2.9,1.3-5.7,2.6-7.9,4.8c-2.2,2.2-2.3,4.4-0.4,6.9
			c1.7,2.2,3.9,3.5,6.5,4.3C171,203.9,175.7,204.1,180.9,204.2z M140.6,284.2c-0.3,0-0.5,0-0.8,0c0-8.6,0-17.3,0-25.9
			c0-0.9,0.2-1.7-1.2-1.8c-5.3-0.7-10.7-1.3-16-0.7c-4.7,0.5-5.3,1.3-5.8,6c-0.1,0.6-0.2,1.3-0.3,1.9c-1,7.5-2.5,15-4,22.4
			c-0.2,1.1-0.5,2,1.2,2.6c8.3,2.7,16.8,4.6,25.4,5.9c1.2,0.2,1.5-0.3,1.5-1.4C140.6,290.1,140.6,287.1,140.6,284.2z M197.8,230.8
			c-5.8,7.5-11.4,15-15.5,23.4c-0.5,1-0.9,2.1-0.9,3.2c-0.1,11.5,0,22.9-0.1,34.4c0,1.1,0.3,1.3,1.4,1.1c4.4-0.9,8.7-2.1,13-3.2
			c1.5-0.4,2.1-1.1,2.1-2.8c-0.1-12.3,0-24.5,0-36.8C197.8,243.6,197.8,237.2,197.8,230.8z M156.3,95.1c2.3-0.1,6.2-0.4,10.1-0.6
			c1.4-0.1,1.8-0.4,1.1-1.9c-4.6-8.4-10.2-16-17.5-22.3c-1.2-1.1-2-1-3.2-0.1c-7.7,5.5-13.5,12.6-18.7,20.3
			c-0.9,1.3-0.2,1.5,0.9,1.7C137.4,94.2,146,95,156.3,95.1z M182.7,418.4c0-0.5,0.1-0.9,0.1-1.2c0-32.4,0-64.9,0-97.3
			c0-1.8-0.9-2.6-2.5-3.2c-0.2,1.4-0.4,2.6-0.4,3.9c-0.1,14.6,0,29.1-0.4,43.7c-0.4,15.8-0.1,31.6-0.4,47.3
			C179,414.6,179.5,416.8,182.7,418.4z M208.2,440c-0.5-40.5-1-80.6-1.5-120.8c-2.1,0-1.9,1.5-1.9,2.9c0,37.4,0,74.8-0.1,112.2
			C204.8,437,205.7,438.6,208.2,440z M212.5,443.4c-0.1-7.6,0-15.2-0.2-22.8c-0.2-9,0-18.1-0.1-27.1c0-15.7-0.1-31.4-0.1-47.1
			c0-9.3-0.1-18.6-0.2-27.9c0-0.6,0.4-1.8-0.5-1.8c-0.9,0-2,0.5-2.3,1.7c-0.1,0.4,0,0.8,0,1.2c0.3,10,0.2,20,0.4,30
			c0.4,17.4,0.2,34.9,0.6,52.3c0.3,13,0.4,25.9,0.5,38.9C210.6,442.2,211,443.1,212.5,443.4z M202.4,434.8c0-38,0-76,0-114
			c-2-0.2-2.4,0.7-2.4,2.5c0.1,35.9,0,71.9,0,107.8C200,433,200.5,434.2,202.4,434.8z M197.1,321.6c-2,0-1.9,1.2-1.9,2.6
			c0,34.4,0,68.7-0.1,103.1c0,1.7,0.7,2.6,2,3.3C197.1,394.1,197.1,357.8,197.1,321.6z M187.9,422.6c0-1.1,0-1.9,0-2.6
			c0-11.1-0.1-22.1-0.1-33.2c-0.1-21.5-0.1-43.1-0.1-64.6c0-1.5-0.5-2.2-1.9-2.4c0,0.2-0.1,0.3-0.1,0.5c0,33,0,66-0.1,99
			C185.6,420.9,186.4,421.6,187.9,422.6z M141.8,70.9c-6.3,1.4-24.1,10.4-29.4,14.6c-0.9,0.7-1,1.1,0.2,1.5c2.8,0.9,5.5,2,8.3,2.9
			c4,1.4,4,1.3,6.5-2.2C131.5,81.7,136.2,75.9,141.8,70.9z M192.4,426.2c0-6.3,0-12.3,0-18.4c0-28.1,0-56.2-0.1-84.4
			c0-0.7,0.7-1.9-0.9-1.9c-1.6,0-0.9,1.2-0.9,1.9c0,33.2-0.1,66.5-0.1,99.7C190.4,424.6,190.8,425.6,192.4,426.2z M137.4,69.1
			c-13.3,2-26,5.7-38.3,11.6c2.6,1.7,5.2,2.7,7.6,4c1.3,0.7,2.2,0.6,3.4-0.3c8.3-5.7,17.1-10.5,26.4-14.4
			C137,70,137.4,70,137.4,69.1z M211.5,299.1c-0.9,3.3-2.7,6.2-3.4,9.6c5.3-2.1,12.8-12,14.4-19c-6,1.8-11.4,4.3-16.2,9.1
			C208.4,298.9,209.9,299,211.5,299.1z M206.4,105.6c4.9-1.3,13-12.1,14.2-18.8c-5.5,1.7-10.4,4.2-14.7,7.9c-0.3,0.2-0.7,0.5-0.5,1
			c0.2,0.5,0.7,0.3,1,0.4c1.2,0.2,2.4-0.1,3.5,0.6C208.8,99.5,207.7,102.4,206.4,105.6z M207.1,288.4c0.2,0.1,0.4,0.3,0.6,0.4
			c7.3-4.2,10.6-11.5,14.4-19.2c-6.4,2.1-11.8,4.7-16.7,9.2c2,0.3,3.6,0.5,5.5,0.7C209.6,282.5,208.4,285.4,207.1,288.4z
			 M207.9,268.9c0.7-0.2,1.1-0.2,1.3-0.4c5.6-3.5,8.5-9.1,11.5-14.7c0.6-1.1-0.9-3.2-1.8-2.8c-4.5,1.8-8.7,4.1-12.5,7.8
			c1.1,0.1,1.9,0.3,2.6,0.2c2-0.1,2.7,0.3,1.7,2.5C209.6,263.8,208.9,266.2,207.9,268.9z M221.9,67.4c-5.4,1.7-10,3.8-14.1,6.9
			c-0.9,0.7-1.3,1.1,0.1,1.7c2.2,0.8,4.3,1.8,6.3,2.8c0.9,0.5,1.4,0.2,1.9-0.6C218.2,74.8,220.2,71.5,221.9,67.4z M200.1,97.9
			c5.5-7.2,12.8-10.7,20.6-13.6c-4.1-2.3-4.1-2.3-7.3,0.7c-3.7,3.7-7.9,5.4-13,2.7c-0.1,0-0.3,0.1-0.4,0.2
			C200.1,91.1,200.1,94.2,200.1,97.9z M88.5,277c0.2-1.4,0.4-2.3,0.6-3.2c0.2-1.5,1.5-3.5,0.5-4.5c-0.9-1-3-0.8-4.5-1.3
			c-2.3-0.9-4.2-0.8-6,1.2c-0.7,0.7-1,1.2,0,1.8C82.2,272.8,85.2,274.8,88.5,277z M206.3,42.3c-0.3,2.2-1.8,3.8-2,6.3
			c4.4-2.8,6.5-7.1,8.8-11.5c-4,0.5-7.1,1.9-10,4.7C204.5,42,205.4,42.1,206.3,42.3z M185.7,45.8c0.5,3.9,1.8,7,4,9.9
			c0.9-1,0.3-2.2,0.9-3.1c2.1,0.3,3.8,1.9,6.2,2C194.1,50.2,190.1,48,185.7,45.8z M214.3,54.5c-4,0.5-7,1.7-9.9,4.4
			c1.3,0.1,2.2,0.2,3.1,0.3c-0.3,2.3-1.8,4.1-2.1,6.7C209.8,63,211.9,59,214.3,54.5z M208.4,261.9c0-0.3-0.1-0.4-0.3-0.6
			c-1.2-0.9-3.5-0.5-4.2,0.9c-0.7,1.3-1.4,2.5-2,3.8c-0.3,0.6-1,1.3,0.2,1.7c1.1,0.3,2.6,1.9,3.3,0.9
			C206.8,266.6,207.5,264.2,208.4,261.9z M205.8,300.9c-0.8-0.2-1.2,0.3-1.6,1c-0.5,1.2-1.1,2.3-1.8,3.4c-1,1.4-0.7,2.1,0.9,2.8
			c1.6,0.7,2.5,0.7,3.1-1.2c0.3-1.1,0.9-2.2,1.3-3.3C208.7,301.1,208.5,300.9,205.8,300.9z M204.7,98c-1.1-0.5-1.7,0.2-2.2,1.2
			c-0.5,0.9-1,1.8-1.5,2.7c-1.4,2.6-1.4,2.5,1.3,3.5c1.1,0.4,1.7,0.3,2.1-0.9c0.5-1.4,1.1-2.8,1.8-4.1C207.2,98.6,207,97.6,204.7,98
			z M207.5,79.5c0.1-0.1-0.1-0.5-0.4-0.5c-1.2-0.1-2.6-1-3.6,0.7c-0.8,1.4-1.5,2.8-2.3,4.1c-0.4,0.7-0.7,1.4,0.3,1.6
			c1.1,0.3,2.3,1.9,3.1,0.7C205.9,84.2,206.5,81.9,207.5,79.5z M205.7,281c-1.5,0-5.3,5.1-4.9,6.1c0,0.1,0.1,0.1,0.2,0.2
			c1,0.5,1.9,1.2,3,1.4c1,0.2,0.9-1.1,1.3-1.7c0.6-1.2,1-2.5,1.6-3.7C207.8,281.5,207.6,280.7,205.7,281z M196.4,17
			c-1.2,2.9-1.8,5.5-1.5,8.9c1.5-2.3,2.2-1.6,2.9-0.2c0.4,0.8,1,1.5,1.8,2.8C199.9,24.1,198.2,20.8,196.4,17z M207,86.6
			c3.1-1,4.9-2.8,6.4-4.8c1-1.2-0.6-1.4-1.2-1.7c-0.7-0.3-1.6-2-2.5-0.2C208.8,81.9,208,84,207,86.6z M202,65.8
			c0.6,0.1,0.9-0.2,1-0.6c0.2-1.4,2.3-3,1-3.8c-2.1-1.3-2.1,1.5-3,2.6C199.7,65.5,201.3,65.5,202,65.8z M203.5,44.1
			c-2.1-0.1-3.9,2-3.5,3.8c0.1,0.6,0.5,0.8,0.9,1c0.6,0.2,0.8-0.4,1-0.8C202.4,46.8,202.9,45.5,203.5,44.1z M196.8,58.3
			c0-0.1,0-0.5-0.1-0.6c-1.1-0.9-2.4-1.4-3.8-1.9c-0.6-0.2-0.5,0.4-0.6,0.7c-0.4,1.7,1.3,1.7,2.1,2.4c0.2,0.2,0.6,0.3,0.8,0.5
			C196.6,60.3,196.7,59.4,196.8,58.3z M200.1,79.9c0.9-1.5,1.8-2.5,2.1-3.6c0.1-0.4-1.2-0.9-2.1-0.9C200.1,76.8,200.1,78,200.1,79.9
			z M196.9,28.6c-0.6,1.2,0,2.1,0.5,3c0,0,0.7-0.2,0.8-0.4C198.7,30,197.3,29.5,196.9,28.6z M250.8,109.3c-1.5-0.5-1.5-0.5-2.4,0.6
			C249.4,110.6,250.2,110.5,250.8,109.3z"/>
		<path fill="#020202" d="M123.3,489.8c10-9.7,19.9-19.2,29.8-28.8c2-1.9,3.9-3.8,5.8-5.7c1-0.9,0.8-1.5-0.1-2.3
			c-15.6-13.4-31.3-26.8-46.9-40.2c-15.7-13.5-31.4-26.9-47.1-40.4c-15.1-12.9-30.2-25.8-45.3-38.7c-2.4-2.1-2.4-2-0.3-4
			c6.9-6.6,13.8-13.1,20.6-19.8c1.3-1.2,1.9-1,3,0c10.6,9,21.2,18,31.8,26.9c12.5,10.5,25.1,21,37.6,31.5
			c11.7,9.8,23.3,19.7,34.9,29.5c10.4,8.8,20.9,17.5,31.4,26.3c9.6,8.1,19.2,16.2,28.7,24.3c1,0.9,2.3,1.5,3.1,2.8
			c-5.8,5.5-11.7,11.1-17.5,16.7c-11.5,11-23,22-34.5,33c-3.2,3-6.4,6-9.6,9.1c-0.8,0.8-1.3,1-2.3,0.1c-6.7-5.9-13.5-11.7-20.3-17.5
			C125.3,491.6,124.4,490.8,123.3,489.8z"/>
		<path fill="#030303" d="M136.9,442.7c-0.5,0.7-1,1.4-1.6,2.1c-2.1,2.7-4.3,5.4-6.5,8c-0.8,0.9-1,1.5,0.1,2.5
			c3.8,3.2,7.4,6.6,11.1,9.9c0.8,0.7,1.2,1.1,0,2c-6.4,5.7-12.7,11.5-18.9,17.3c-1.5,1.4-2.5,1.6-4.3,0.1
			c-12.6-10.2-25.3-20.2-38-30.2c-1.3-1-1.4-1.5-0.2-2.6c7.7-7.9,15.2-15.9,22.9-23.9c2.5-2.6,5-5.2,7.4-7.8c0.7-0.7,1-0.8,1.8-0.1
			c6.4,5.5,12.8,11,19.3,16.5c1.9,1.6,3.8,3.2,5.6,4.8C136.2,441.7,136.8,442,136.9,442.7z"/>
		<path fill="#0A0A0A" d="M281,89.7c0.2,0.8,0.4,1.3,0.6,1.9c0.7,2.6,1.4,5-2.2,6.6c-1.9,0.8-3.2,3.1-4.9,4.5
			c-2.6,2.1-5.3,2.8-8.4,0.3c-0.2,3-0.7,5.4-3.2,6.9c-2.2,1.3-3.9,1.1-5.5-0.8c-1.3-1.5-1.9-3.3-2.2-5.2c-0.1-0.5,0-1,0.3-1.3
			c0.5-0.5,0.8,0.2,1.2,0.4c2.1,1.7,5.1,1,6.2-1.4c0.3-0.6,0.3-1.1-0.2-1.5c-0.4-0.4-0.8-0.8-1.3-1.1c-2.8-1.8-4.3-4-2-7.4
			c1.8,1.5,3.6,3,5.5,4.7c0.9,0.8,1.7,1.4,2.9,1.6c0.9,0.2,1.8,0.1,2.4-0.7c0.5-0.7-0.2-1.3-0.5-1.9c-1.5-2.5-0.8-7.5,1.3-9.6
			c2.1-2.1,6.1-1.4,7.7,1.2c0.7,1.2-0.3,1.2-0.9,1.3c-2,0.6-3.8,1.7-5.2,3.3c-0.3,0.4-0.9,0.8-0.6,1.4c0.3,0.6,1,0.5,1.5,0.5
			c1.2,0,2.3-0.3,3.4-1C278,91.5,279.5,90.7,281,89.7z"/>
		<path fill="#0B0B0B" d="M306.2,85.6c-0.1-0.1-0.2-0.1-0.3-0.1c-1.8,0.5-3.6,2.3-5.4,0c-2-2.5-3-8.1-1.8-10.1
			c1.2-2,3.4-2.2,5.5-0.2c3.2,3.1,5.3,6.9,6.3,11.3c1,4.5,0.8,4.9-3.1,7.2c-1.2,0.7-2.3,1.5-3.4,2.2c-0.4,0.2-0.9,0.6-1.3,0.2
			c-0.5-0.4-0.1-0.9,0.1-1.3c0.9-2.2,1.8-4.4,2.7-6.6C305.7,87.4,306.3,86.6,306.2,85.6z"/>
		<path fill="#0B0B0B" d="M9.1,236.7c0-2.6,1.4-4,4.2-4c3.1,0,5.5,1.4,7,4.2c1.5,2.8,1.2,5.6-0.5,8.1c-2.1,3.3-6.6,3.1-8.7-0.3
			C10.5,243.6,9.1,238.4,9.1,236.7z M15.5,237.7c-1.1,0.2-2.5,0.1-2.8,1.5c-0.2,0.9,0.7,1.8,1.6,1.6c1.3-0.2,2.8-0.8,3-2.2
			C17.5,237.5,16.2,237.9,15.5,237.7z"/>
		<path fill="#0B0B0B" d="M290.3,92.4c0,0.8,0,1.6-0.6,1.9c-0.5,0.2-1-0.4-1.3-0.8c-3.4-4.1-6.4-8.5-9.5-12.8
			c-0.4-0.5-0.5-0.9-0.3-1.5c0.4-1.5,0.8-3.1,1.2-4.6c0.3-1.3,1.3-1.3,1.8-0.4c3.4,5.8,7.4,11.3,8.8,18.1
			C290.3,92.3,290.3,92.4,290.3,92.4z"/>
		<path fill="#FCFCFC" d="M180.9,204.2c-5.2,0-9.9-0.3-14.5-1.9c-2.5-0.9-4.8-2.2-6.5-4.3c-1.9-2.4-1.8-4.7,0.4-6.9
			c2.2-2.2,5.1-3.6,7.9-4.8c4-1.8,7.4-4.5,10.3-7.7c1.9-2,1.6-2.7-0.9-3.7c-5.7-2.2-10.6-0.9-15,4.2c-0.6,0.7-1,1.2-2.1,1.2
			c-5.1-0.4-7.5,2-7.3,7.2c0.1,2.6,0.1,5.1,0.2,7.7c0.5,12-0.6,23.8-2,35.7c-0.2,1.5-0.7,2.2-2.4,2.6c-7,1.7-14,2.2-21.2,1.2
			c-1.6-0.2-1.5-1-1.5-2.1c0-6.3-0.3-12.6-1-18.9c-0.7-6.4-1.5-6.9-7.4-4.3c-3.2,1.4-6.3,3.1-9.5,4.6c-0.9,0.4-1.6,1.1-2.1,1.9
			c-1.8,2.5-3.9,4.9-5.5,7.6c-2,3.5-5,4.8-8.7,4.8c-3.1,0-5,1.6-6.7,3.9c-2.2,3.1-4.1,6.3-5.8,9.6c-0.8,1.7-2,2.7-3.7,3.5
			c-4.9,2.3-9.7,4.8-14.5,7.3c-1.2,0.6-1.9,0.6-2.8-0.5c-6.1-6.9-11.3-14.5-15.4-22.8c-0.4-0.9-0.5-1.8-0.6-2.8
			c-0.3-2.5-1.2-4.8-3.1-6.6c-0.8-0.7-1.2-1.6-1.6-2.6c-11.8-36.5-6.5-70.3,16.5-101.1c10.8-14.4,24.6-25.2,40.5-33.6
			c1.1-0.6,1.9-0.7,3,0c2.6,1.6,5.3,3,8.1,4.6c-5.7,4.2-11.1,8.6-16.2,13.4c-4.4,4.1-8.5,8.4-12.5,13c-0.5,0.6-1.7,1.2-0.4,2.2
			c1.3,1.1,1.5-0.3,2-0.8c8.3-9.5,17.5-18,27.6-25.6c1.4-1,2.5-1.2,4.1-0.6c3.6,1.4,7.2,2.7,10.8,3.7c1.6,0.5,2,0.7,1,2.3
			c-2.7,4.4-5,9.1-7.2,13.7c-0.3,0.6-1.3,1.4,0.2,2.1c1.4,0.6,1.5-0.3,1.8-1.1c2.2-4.8,4.6-9.4,7.2-14.1c0.7-1.3,1.5-1.8,3-1.4
			c13,3.2,26.2,4,39.5,2.4c1.3-0.2,2,0.2,2.5,1.5c1.2,2.9,2.3,5.9,3.1,9c0.2,0.9,0.4,1.4,1.5,1.1c1.3-0.3,0.6-1.2,0.4-1.7
			c-0.7-3.5-2.1-6.8-3.3-10.3c4.4-0.8,8.6-1.3,12.8-2.6c0.7-0.2,2.2,0.3,1.8-1.4c-0.4-1.6-1.4-0.8-2.2-0.6c-4,1-8,1.7-12,2.3
			c-1.3,0.2-1.8-0.2-2.4-1.3c-4.6-9.2-10.6-17.3-18.9-24.5c3.7,0,6.8-0.1,9.9,0c12.1,0.3,23.8,2.4,35.4,5.9c1.3,0.4,1.9,0.9,1.9,2.4
			c-0.1,8.6,0,17.1,0,25.7c0,0.1,0,0.2,0,0.2c0.6,1.3-1.7,2.8-0.4,3.6c2.6,1.4,5.3,3.1,8.6,2.4c4.3-1,7.1-3.9,9.6-7.1
			c3.1-4,5.4-8.4,7.5-13c0.6-1.4,1-1.8,2.5-0.9c6.9,4.5,13.4,9.5,19.5,15.1c0.9,0.9,1.4,1.5,0.4,2.9c-1.7,2.4-0.1,8.7,2.3,10.6
			c0.9,0.7,1.9,0.6,3,0.4c0.7-0.1,1.3-0.9,2.1-0.2c-1.1,2.7-2.2,5.5-3.3,8.3c-0.2,0.5-1,1.1-0.2,1.7c0.6,0.5,1.2-0.1,1.8-0.4
			c1.6-1,3.2-2.1,4.9-3c1.9-1,2.2-2.4,1.7-4.2c-0.1-0.5-0.3-1.1-0.1-1.6c0.5-0.4,0.8,0.2,0.9,0.4c3,4.6,6.2,9.1,8.7,14
			c0.7,1.4,0.6,2-0.9,2.7c-16.2,8.2-32.4,16.5-48.6,24.7c-10.6,5.4-21.2,10.8-31.8,16.1c-1.1,0.6-1.8,1.1-1,2.3
			c0.8,1.1-0.4,3.6,2.4,3.1c1.9-0.3,3.5,0.6,4.9,1.5c5.6,3.6,10.8,7.9,14.7,13.3c6,8.3,5.6,17.3,1.7,26.2c-1.4,3.1-1.3,5.3,0.3,8.1
			c2.6,4.7,4.9,9.5,8.6,13.5c0.4,0.4,0.7,0.9,0.9,1.4c1.9,3.5,1.7,4.2-1.9,5.7c-6.7,2.7-12.6,6.6-16.3,13.2
			c-0.8-0.4-0.4-1.1-0.4-1.7c0-11,0-22,0-32.9c0-1.3,0.3-2.3,1-3.4c3.1-5.1,5.1-10.6,5.3-16.7c0.1-4.2-1.3-7.7-4-10.7
			c-4.3-4.8-9.2-8.9-14.5-12.5c-1.8-1.2-3.7-0.4-5.6-0.2c-5.9,0.8-11.3,3.2-16.4,6.2c-0.5,0.3-1.1,0.7-1.6,1.1
			c-1,0.9-2.3,1.8-1.9,3.3c0.3,1.5,1.8,1.9,3.1,2.3c3.3,1,6.8,1,10.2,1.1c1.3,0,2.6,0,3.8,0.2c4.2,0.6,6.2,3.6,5.3,7.7
			c-0.2,0.9-0.8,1.2-1.3,1.5c-8,4.3-13.8,10.8-18.3,18.6c-3.5,6-3.5,12.8-3.5,19.6c0,1.3,1.2,1.8,2.3,2.2c1.3,0.5,2.8,0.6,4.1,1.3
			c0.9,0.5,1.4,1.2,1.3,2.3c-0.1,1-0.7,1.5-1.6,1.9c-2.5,1.1-10.2-0.5-12.1-2.6c-1.4-1.5-0.8-3.3-0.6-5c0.6-5.6,2.1-11.1,3.3-16.7
			c1.4-6.8,6.2-11.2,10.9-15.7C172.9,210.9,176.8,207.8,180.9,204.2z M114,183.9c0.1-0.8,0.3-1.3,0.3-1.9c0.3-4-2.2-5.8-5.9-4.2
			c-1.8,0.7-3.5,3.6-3.5,5.6c0,1.9,1.2,2.3,2.9,2.5c0.5,0.1,1.4,0.6,0.5,1.5c-2,2-4.3,2.3-6.7,0.9c-0.5-0.3-0.8-1.1-1.5-0.6
			c-0.6,0.4-0.5,1.1-0.2,1.8c0.9,2-0.3,2.9-1.8,3.7c-1.4,0.8-3,1.1-4.4,0.7c-2.6-0.8-4.1,0.4-5.8,2.2c-1.6,1.8-2.5,3.8-1.6,5.9
			c1.7,3.7,3.8,7.2,5.9,10.7c0.3,0.5,0.9,1.1,1.6,0.7c0.7-0.3,0.9-1,0.8-1.8c-0.2-1.5-0.6-3-1.3-4.3c-0.6-1.2-1.2-2.4-1.9-3.6
			c-0.4-0.8-0.3-1.6,0.3-2c0.8-0.6,0.9,0.5,1.3,0.9c0.6,0.6,1.1,1.4,1.8,1.9c1.3,1.1,2.8,2,4.6,1c1.8-1,2-2.6,1.5-4.3
			c-0.2-0.7-0.3-1.2,0.6-1.5c1.9-0.7,3-2.1,3.3-4.1c3.3,1.1,7.7-0.9,8.8-4.1c0.4-1.4,0.8-1.5,2.1-1.1c2.1,0.6,7.4-2.3,8.1-4.4
			c0.3-1.1,0.8-0.9,1.5-0.8c0.6,0.1,1.4,0.2,1.9-0.1c4.8-2.3,9.8-4.5,12.5-9.6c0.6-1.1,1-1.1,2.1-0.6c2.9,1.2,6.4-0.2,7.6-3.1
			c0.4-1,0.8-1.2,1.8-1c2.2,0.4,3.8-0.4,4.4-2.6c0.2-0.6,0.2-0.8,0.9-0.6c2,0.8,3.1-0.5,3.8-1.9c0.5-0.9,0.8-1,1.6-0.8
			c1.3,0.3,2.6,0.3,3.3-1.2c1.8-3.6-0.7-10.1-4.5-11.5c-0.4,1.4-0.9,2.8,0.7,3.8c0.6,0.4,0.5,0.9,0.2,1.5c-0.3,0.7-0.9,0.8-1.6,0.8
			c-1.3-0.2-2.3-0.9-3.2-1.7c-0.9,1.2-0.3,3.2-1.4,4c-1.2,0.9-2.6-0.4-4-1c0,0.9,0,1.6,0,2.3c-0.1,1.8-1.5,2.7-3.1,2.1
			c-0.4-0.2-0.8-0.5-1.2-0.7c-0.6-0.2-1.1-1-1.7-0.6c-0.7,0.4-0.4,1.1-0.3,1.7c0,0.4,0.1,0.8,0.1,1.2c-0.3,1.7-1.6,2.4-3,2.7
			c-1.5,0.4-0.8-1.2-1.1-1.8c-0.9-1.9-2-3.6-4.3-3.7c-2.1-0.1-3.3,1.4-4.1,3.1c-0.6,1.3-1.2,2.6-1.8,3.9c-0.3,0.7-0.3,1.6-1.3,1.9
			c-0.7-1.6-1.3-3.2-1.9-4.9c-0.2-0.6-0.2-1.3-0.2-1.9c0-0.7-0.4-1.1-1-1.5c-1.2-0.6-2.3-1.4-3.5-2c-0.3-0.2-0.8-0.4-1.1-0.3
			c-1,0.4-1.9,4.9-1.1,5.7c2,1.9,3.7,4.2,5.3,6.5c2.1,2.9,1.8,3.9-1.5,5.1c-1.3,0.5-2.3-0.3-3.3-0.8c-0.5-0.3-1.1-1-1.7-0.5
			c-0.6,0.4-0.4,1.2-0.2,1.8c0.4,1.6-0.1,2.7-1.5,3.4C116.4,182.9,115.3,183.4,114,183.9z M209.9,135.5c1.1,1.4,2.1,2.7,3.4,3.6
			c2.4,1.6,4.3,1,5.2-1.6c0.3-0.8,0.4-1.7,0.6-2.6c0.4-1.8,1.3-2.2,2.6-1c1.4,1.2,3,1.8,4.8,2c1.4,0.2,2.7,0,3.5-1.5
			c0.7-1.4,0.9-2.9-0.4-4c-2-1.6-0.6-2.1,0.7-2.8c4-2.1,4.8-4.4,2.9-8.6c-0.3-0.6-0.6-1.1-0.9-1.7c-1.3-2.4-2.6-4.7-3.9-7.1
			c-0.2-0.4-1-1-0.3-1.4c1.8-1.1,0.4-1.6-0.4-2.1c-1.1-0.7-2.3-1.4-3.5-2c-0.3-0.2-0.8-0.5-1.1-0.4c-1,0.3-1.9,5.1-1.1,5.9
			c2.4,2.5,4.1,5.5,6.2,8.2c0.4,0.5,0.8,1.2,0.1,1.7c-1,0.7-2.1,1.5-3.3,1.8c-0.8,0.2-0.4-1-0.5-1.5c-0.3-1.6-0.9-2.9-2.7-3.2
			c-1.9-0.2-3,0.9-3.6,2.5c-0.6,1.6-0.9,3.4-1.3,5.1c-0.6,2.5-1.9,3.6-4.4,3.3c-2.5-0.3-4.5-0.4-6.5,1.9c-1.9,2.3-2.8,4.1-1.4,6.8
			c1.5,3,3.2,5.9,4.8,8.8c0.5,1,1.3,2.4,2.4,1.9c1.1-0.5,0.8-2.1,0.6-3.3c-0.1-0.6-0.5-1.2-0.7-1.8c-0.7-1.5-1.4-3.1-2.2-4.5
			C209.1,137.1,209.1,136.4,209.9,135.5z M136.5,192.7c-5.9,1.3-8.7,4.3-9.1,9.9c-0.7,8.4,0.9,16.6,2.3,24.8
			c0.3,1.5,0.4,3.3,2.3,3.5c2,0.2,3.5-0.9,4.5-2.7c1-1.7,1-3.7,1-5.6C137.7,212.7,137,202.8,136.5,192.7z M63.3,210.8
			c-0.6,0-1.8-0.5-1.9,0.4c-0.2,1.5,0,3,0.3,4.5c0.2,1,1.4,0.8,2.2,1.1c2.4,0.8,2.8,2.2,1.1,4.1c-1.2,1.3-2.7,2.3-4.3,2.9
			c-4.4,1.7-5.2,1.1-6.3-2.5c-0.2-0.8-0.7-1.7-1.6-1.5c-1.1,0.2-0.9,1.4-0.9,2.2c0.1,2.1,0.9,4,1.8,5.9c0.9,2,2.5,3,4.6,3.3
			c4,0.6,10.5-3.9,11.5-7.9c0.3-1.3,0.5-2.6-0.1-3.8c-0.7-1.4-0.6-2.3,1.1-3c0.8-0.3,1.5-1.2,1.5-2.3c0-1.1,0.5-1,1.4-0.8
			c2.8,0.7,5-0.7,5.8-3.5c1.1-3.8-3.5-9.3-7.4-9c-2.6,0.2-4.4,2.6-4.1,5.2C68.3,209.5,66.7,211.1,63.3,210.8z M148.5,185.4
			c-2.1,1.9-4.3,4-6.7,5.9c-1.1,0.9-1.3,1.8-1.3,3.1c0.1,4.8,0.1,9.6,0.2,14.4c0.1,5.5,0.1,11,0.8,16.5c0.2,1.7,0.7,3.4,3,3.3
			c2.2-0.1,3.6-1.5,3.6-3.7c0.1-4.7,0.3-9.4,0.4-14.1C148.6,202.3,148.5,193.9,148.5,185.4z M175.4,131.1c-0.8,2-1.3,3.6-2,5.1
			c-0.3,0.6-0.4,1.1,0,1.8c2.2,3.8,4.3,7.7,6.5,11.4c2.6,4.3,8.1,4.1,10.2-0.4c0.6-1.3,1-1.2,2.1-1c2.9,0.5,5.4-1.6,5.4-4.6
			c-0.1-3.6-2.2-6.1-5.3-7.7c-2.2-1.1-4.2-0.4-5.6,1.7c-0.8,1.3-0.8,2.7-0.5,4.2c0.4,1.5,0,2.5-1.4,3.1c-1.5,0.6-2-0.7-2.5-1.6
			C180.1,139.2,177.9,135.3,175.4,131.1z M173,158.3c-0.1-0.6-0.3-1.6-0.6-2.5c-1.5-5.8-4.9-10.7-7.8-15.8c-0.2-0.4-0.6-0.8-1-1
			c-0.4-0.3-0.8-0.4-1.2,0.1c-1.2,1.5-1.4,6.7-0.3,8.2c2.4,3.4,4.9,6.9,7.4,10.3c0.5,0.6,1,1.2,1.6,1.8c0.4,0.4,0.9,0.7,1.5,0.4
			C173,159.6,173,159.1,173,158.3z M232.3,99.5c-0.3,1.6-0.5,3.2-1,4.7c-0.6,1.7-0.2,3,0.9,4.4c2.5,3.2,4.8,6.6,7.3,9.8
			c0.8,1,1.6,3.1,2.8,2.4c1.3-0.7,0.6-2.7,0.2-4.2c-1.8-5.6-4.6-10.6-7.7-15.6C234.2,100.2,233.4,99.8,232.3,99.5z M95.3,181.2
			c-1.3-0.1-0.9,0.9-1.1,1.5c-0.2,0.7-0.5,1.5,0.6,1.6c0.8,0.1,1.9,0.9,2.2-0.3c0.3-1.6,1.2-1.6,2.4-1.4c1.2,0.1,1-1,1.3-1.6
			c0.4-0.6,0.1-1.2-0.6-1.1c-0.8,0-2-0.9-2.3,0C97.3,181.3,96.8,182.1,95.3,181.2z M140.8,156.4c-0.9-0.1-1.8-0.5-1.8,0.9
			c0,0.7-0.4,1.6,0.8,1.9c1,0.2,1.9,0.6,2.2-0.8c0.2-1,0.9-1.2,1.8-0.9c1.5,0.5,1.4-0.7,1.7-1.5c0.5-1.1-0.2-1.3-1.1-1.5
			c-0.9-0.2-1.8-0.6-2,0.8C142.3,156.4,141.7,156.7,140.8,156.4z M118,171.8c1.2,0.4,1.6-0.1,1.8-1.2c0.1-0.9,0.2-1.5-1-1.7
			c-0.9-0.2-1.9-0.7-2.1,0.9c-0.1,1-0.7,1.4-1.6,1c-1.2-0.4-1.5,0.2-1.7,1.3c-0.1,0.8-0.4,1.3,0.7,1.5c1,0.2,1.9,0.6,2.2-0.8
			C116.5,171.7,117.1,171.5,118,171.8z M56.6,211.9c0.6-2-1-1.6-1.8-1.8c-1.9-0.6-1.4,1.2-1.7,2c-0.5,1.6,0.6,1.5,1.7,1.8
			C57,214.4,56.1,212.5,56.6,211.9z"/>
		<path fill="#FCFCFC" d="M219.9,278.5c2-3.9,4.1-7.8,5.6-11.9c-7.5,0.5-17.9,6.8-25.5,15.4c0.2-4.2,0.4-8,0.6-11.9
			c7.4,2.3,10.6,1.4,15.6-4.8c3.1-3.7,5.4-7.9,7.4-12.2c0.6-1.3,1.5-2.1,2.7-2.8c7.6-3.9,15.1-8,22.7-11.8c1.8-0.9,1.6-1.6,0.9-3
			c-7.1-14-14.1-28-21.3-42c-0.8-1.6-0.4-2.1,1-2.8c6.7-3.3,13.4-6.6,20.2-9.9c1.2-0.6,1.8-1.2,2.2-2.5c1.2-3.7,2.7-7.3,4-11
			c0.3-0.8,0.6-1.4,1.4-1.8c6.4-3,12.8-6.1,19.2-9.1c0.1-0.1,0.3,0,0.6,0c2.4,9.8,3.3,19.8,2.9,29.9c-0.6,16.5-4.9,32-12.8,46.4
			c-11,19.8-26.5,35.1-46.3,46c-0.2,0.1-0.5,0.1-0.7,0.2C220.2,278.7,220.1,278.6,219.9,278.5z"/>
		<path fill="#FCFCFC" d="M140.6,284.2c0,3,0,5.9,0,8.9c0,1.1-0.2,1.6-1.5,1.4c-8.6-1.2-17.1-3.2-25.4-5.9c-1.6-0.5-1.4-1.5-1.2-2.6
			c1.5-7.4,2.9-14.9,4-22.4c0.1-0.6,0.2-1.3,0.3-1.9c0.5-4.6,1.1-5.4,5.8-6c5.4-0.6,10.7-0.1,16,0.7c1.4,0.2,1.2,1,1.2,1.8
			c0,8.6,0,17.3,0,25.9C140.1,284.2,140.3,284.2,140.6,284.2z"/>
		<path fill="#FCFCFC" d="M197.8,230.8c0,6.4,0,12.8,0,19.2c0,12.3,0,24.5,0,36.8c0,1.7-0.6,2.4-2.1,2.8c-4.3,1.2-8.6,2.4-13,3.2
			c-1.1,0.2-1.4,0-1.4-1.1c0-11.5,0-22.9,0.1-34.4c0-1.1,0.4-2.2,0.9-3.2C186.4,245.8,192,238.4,197.8,230.8z"/>
		<path fill="#FCFCFC" d="M156.3,95.1c-10.3,0-18.9-0.9-27.3-2.8c-1.2-0.3-1.8-0.4-0.9-1.7c5.2-7.7,11-14.9,18.7-20.3
			c1.2-0.9,2-0.9,3.2,0.1c7.2,6.4,12.9,13.9,17.5,22.3c0.8,1.4,0.3,1.8-1.1,1.9C162.4,94.7,158.5,95,156.3,95.1z"/>
		<path fill="#FCFCFC" d="M182.7,418.4c-3.2-1.5-3.7-3.7-3.6-6.9c0.3-15.8,0.1-31.6,0.4-47.3c0.3-14.6,0.3-29.1,0.4-43.7
			c0-1.2,0.3-2.5,0.4-3.9c1.6,0.7,2.5,1.5,2.5,3.2c0,32.4,0,64.9,0,97.3C182.8,417.5,182.7,417.9,182.7,418.4z"/>
		<path fill="#FAFAFA" d="M208.2,440c-2.5-1.4-3.4-3-3.4-5.7c0.1-37.4,0.1-74.8,0.1-112.2c0-1.4-0.2-2.8,1.9-2.9
			C207.2,359.4,207.7,399.5,208.2,440z"/>
		<path fill="#F5F5F5" d="M212.5,443.4c-1.5-0.3-1.9-1.2-1.9-2.6c-0.1-13-0.2-25.9-0.5-38.9c-0.4-17.4-0.2-34.9-0.6-52.3
			c-0.2-10-0.1-20-0.4-30c0-0.4-0.1-0.8,0-1.2c0.3-1.2,1.4-1.7,2.3-1.7c0.9,0,0.5,1.2,0.5,1.8c0.1,9.3,0.2,18.6,0.2,27.9
			c0.1,15.7,0.1,31.4,0.1,47.1c0,9-0.2,18.1,0.1,27.1C212.5,428.2,212.4,435.7,212.5,443.4z"/>
		<path fill="#FEFEFE" d="M202.4,434.8c-1.9-0.6-2.4-1.8-2.4-3.6c0.1-35.9,0.1-71.9,0-107.8c0-1.8,0.4-2.8,2.4-2.5
			C202.4,358.8,202.4,396.8,202.4,434.8z"/>
		<path fill="#FEFEFE" d="M197.1,321.6c0,36.3,0,72.5,0,109c-1.4-0.7-2-1.7-2-3.3c0.1-34.4,0.1-68.7,0.1-103.1
			C195.2,322.8,195.1,321.6,197.1,321.6z"/>
		<path fill="#FAFAFA" d="M187.9,422.6c-1.5-0.9-2.3-1.7-2.3-3.3c0.1-33,0.1-66,0.1-99c0-0.2,0-0.3,0.1-0.5c1.4,0.2,1.9,0.9,1.9,2.4
			c0,21.5,0.1,43.1,0.1,64.6c0,11.1,0.1,22.1,0.1,33.2C187.9,420.7,187.9,421.5,187.9,422.6z"/>
		<path fill="#F8F8F8" d="M141.8,70.9c-5.5,5-10.2,10.7-14.4,16.8c-2.4,3.5-2.4,3.5-6.5,2.2c-2.8-0.9-5.5-2-8.3-2.9
			c-1.2-0.4-1.1-0.8-0.2-1.5C117.7,81.3,135.5,72.3,141.8,70.9z"/>
		<path fill="#FEFEFE" d="M192.4,426.2c-1.6-0.6-2-1.6-2-3.1c0.1-33.2,0.1-66.5,0.1-99.7c0-0.7-0.7-1.9,0.9-1.9
			c1.6,0,0.9,1.2,0.9,1.9c0,28.1,0.1,56.2,0.1,84.4C192.4,413.8,192.4,419.9,192.4,426.2z"/>
		<path fill="#F8F8F8" d="M137.4,69.1c0,0.8-0.5,0.9-0.8,1c-9.3,3.8-18.1,8.7-26.4,14.4c-1.2,0.8-2.1,1-3.4,0.3
			c-2.5-1.3-5-2.3-7.6-4C111.4,74.8,124.1,71.1,137.4,69.1z"/>
		<path fill="#F8F8F8" d="M211.5,299.1c-1.7-0.1-3.1-0.2-5.2-0.3c4.8-4.8,10.3-7.3,16.2-9.1c-1.7,7-9.1,16.9-14.4,19
			C208.9,305.3,210.6,302.3,211.5,299.1z"/>
		<path fill="#F5F5F5" d="M206.4,105.6c1.3-3.2,2.4-6,3.6-8.9c-1.1-0.7-2.3-0.5-3.5-0.6c-0.4-0.1-0.8,0.1-1-0.4
			c-0.2-0.5,0.2-0.7,0.5-1c4.3-3.6,9.2-6.1,14.7-7.9C219.4,93.4,211.3,104.2,206.4,105.6z"/>
		<path fill="#F5F5F5" d="M207.1,288.4c1.3-3,2.5-5.9,3.8-9c-1.9-0.3-3.5-0.5-5.5-0.7c4.9-4.5,10.3-7,16.7-9.2
			c-3.8,7.7-7,15.1-14.4,19.2C207.6,288.6,207.3,288.5,207.1,288.4z"/>
		<path fill="#F5F5F5" d="M207.9,268.9c1-2.6,1.7-5.1,2.8-7.3c1.1-2.1,0.3-2.6-1.7-2.5c-0.7,0-1.5-0.1-2.6-0.2
			c3.8-3.7,7.9-6,12.5-7.8c0.9-0.4,2.4,1.7,1.8,2.8c-3,5.5-5.9,11.1-11.5,14.7C209,268.6,208.6,268.7,207.9,268.9z"/>
		<path fill="#F5F5F5" d="M221.9,67.4c-1.7,4.1-3.7,7.4-5.7,10.8c-0.5,0.8-1,1.1-1.9,0.6c-2.1-1-4.2-1.9-6.3-2.8
			c-1.5-0.6-1-1-0.1-1.7C212,71.2,216.5,69.1,221.9,67.4z"/>
		<path fill="#F1F1F1" d="M200.1,97.9c0-3.8,0-6.8,0-9.9c0.1-0.1,0.3-0.2,0.4-0.2c5.1,2.7,9.2,0.9,13-2.7c3.2-3.1,3.2-3.1,7.3-0.7
			C212.9,87.2,205.6,90.7,200.1,97.9z"/>
		<path fill="#F5F5F5" d="M88.5,277c-3.3-2.2-6.3-4.2-9.3-6.1c-1-0.7-0.7-1.1,0-1.8c1.7-1.9,3.6-2.1,6-1.2c1.5,0.6,3.6,0.4,4.5,1.3
			c0.9,1.1-0.3,3-0.5,4.5C88.9,274.7,88.7,275.6,88.5,277z"/>
		<path fill="#F1F1F1" d="M206.3,42.3c-0.9-0.2-1.8-0.3-3.1-0.5c2.9-2.8,6-4.2,10-4.7c-2.4,4.4-4.4,8.7-8.8,11.5
			C204.5,46.1,206,44.4,206.3,42.3z"/>
		<path fill="#F1F1F1" d="M185.7,45.8c4.4,2.2,8.4,4.4,11.2,8.7c-2.5-0.1-4.1-1.6-6.2-2c-0.6,0.9,0,2.1-0.9,3.1
			C187.5,52.8,186.2,49.7,185.7,45.8z"/>
		<path fill="#F5F5F5" d="M214.3,54.5c-2.4,4.5-4.6,8.6-8.9,11.5c0.3-2.6,1.8-4.5,2.1-6.7c-0.9-0.1-1.8-0.2-3.1-0.3
			C207.3,56.2,210.3,54.9,214.3,54.5z"/>
		<path fill="#F1F1F1" d="M208.4,261.9c-1,2.3-1.7,4.7-3.1,6.7c-0.7,1-2.2-0.6-3.3-0.9c-1.2-0.4-0.5-1.1-0.2-1.7
			c0.7-1.3,1.3-2.5,2-3.8c0.8-1.4,3-1.8,4.2-0.9C208.3,261.5,208.5,261.6,208.4,261.9z"/>
		<path fill="#F1F1F1" d="M205.8,300.9c2.8-0.1,2.9,0.2,1.9,2.7c-0.5,1.1-1,2.2-1.3,3.3c-0.5,1.9-1.5,1.9-3.1,1.2
			c-1.6-0.7-1.8-1.4-0.9-2.8c0.7-1,1.3-2.2,1.8-3.4C204.5,301.2,204.9,300.7,205.8,300.9z"/>
		<path fill="#F1F1F1" d="M204.7,98c2.3-0.3,2.5,0.6,1.6,2.4c-0.7,1.3-1.3,2.7-1.8,4.1c-0.4,1.2-1,1.3-2.1,0.9c-2.7-1-2.7-1-1.3-3.5
			c0.5-0.9,1-1.8,1.5-2.7C203,98.2,203.5,97.5,204.7,98z"/>
		<path fill="#F1F1F1" d="M207.5,79.5c-1,2.3-1.6,4.6-2.8,6.5c-0.8,1.3-2-0.4-3.1-0.7c-1-0.3-0.8-0.9-0.3-1.6
			c0.8-1.3,1.6-2.7,2.3-4.1c0.9-1.7,2.3-0.8,3.6-0.7C207.4,79,207.6,79.4,207.5,79.5z"/>
		<path fill="#F1F1F1" d="M205.7,281c1.8-0.3,2,0.6,1.1,2.3c-0.6,1.2-1,2.5-1.6,3.7c-0.3,0.6-0.2,1.9-1.3,1.7c-1-0.2-2-0.9-3-1.4
			c-0.1,0-0.1-0.1-0.2-0.2C200.4,286,204.3,280.9,205.7,281z"/>
		<path fill="#F1F1F1" d="M196.4,17c1.7,3.8,3.5,7.1,3.2,11.5c-0.8-1.3-1.4-2-1.8-2.8c-0.7-1.4-1.4-2.1-2.9,0.2
			C194.7,22.5,195.2,19.9,196.4,17z"/>
		<path fill="#F1F1F1" d="M207,86.6c1.1-2.6,1.8-4.7,2.8-6.7c0.8-1.8,1.7-0.1,2.5,0.2c0.6,0.2,2.2,0.4,1.2,1.7
			C211.8,83.8,210.1,85.6,207,86.6z"/>
		<path fill="#F1F1F1" d="M202,65.8c-0.7-0.3-2.3-0.3-1.1-1.9c0.9-1.1,0.9-3.9,3-2.6c1.3,0.8-0.8,2.5-1,3.8
			C203,65.7,202.6,65.9,202,65.8z"/>
		<path fill="#F1F1F1" d="M203.5,44.1c-0.6,1.5-1,2.7-1.6,4c-0.2,0.4-0.3,1-1,0.8c-0.4-0.1-0.8-0.4-0.9-1
			C199.6,46.1,201.4,44,203.5,44.1z"/>
		<path fill="#F1F1F1" d="M196.8,58.3c-0.1,1-0.2,2-1.5,1.2c-0.3-0.2-0.6-0.3-0.8-0.5c-0.8-0.7-2.5-0.6-2.1-2.4
			c0.1-0.3,0-0.9,0.6-0.7c1.3,0.5,2.7,1,3.8,1.9C196.8,57.9,196.8,58.2,196.8,58.3z"/>
		<path fill="#F1F1F1" d="M200.1,79.9c0-1.9,0-3.1,0-4.5c0.9,0,2.2,0.5,2.1,0.9C201.9,77.4,201.1,78.4,200.1,79.9z"/>
		<path fill="#F1F1F1" d="M196.9,28.6c0.4,0.9,1.7,1.4,1.3,2.6c-0.1,0.2-0.7,0.4-0.8,0.4C196.9,30.7,196.4,29.8,196.9,28.6z"/>
		<path fill="#F1F1F1" d="M250.8,109.3c-0.6,1.2-1.4,1.3-2.4,0.6C249.3,108.7,249.3,108.7,250.8,109.3z"/>
		<path fill="#FCFCFC" d="M220.3,278.8c-0.1,0.1-0.3,0.2-0.4,0.2c0-0.2,0-0.4,0-0.6C220.1,278.6,220.2,278.7,220.3,278.8z"/>
		<path fill="#F1F1F1" d="M15.5,237.7c0.8,0.1,2.1-0.2,1.9,0.9c-0.2,1.5-1.7,2-3,2.2c-1,0.2-1.8-0.7-1.6-1.6
			C12.9,237.8,14.4,238,15.5,237.7z"/>
		<path fill="#080808" d="M114,183.9c1.2-0.6,2.3-1,3.4-1.5c1.4-0.7,1.9-1.8,1.5-3.4c-0.2-0.6-0.4-1.4,0.2-1.8
			c0.6-0.5,1.2,0.2,1.7,0.5c1,0.6,2,1.3,3.3,0.8c3.3-1.2,3.6-2.2,1.5-5.1c-1.6-2.3-3.3-4.5-5.3-6.5c-0.8-0.8,0-5.3,1.1-5.7
			c0.3-0.1,0.8,0.1,1.1,0.3c1.2,0.7,2.3,1.4,3.5,2c0.6,0.3,1,0.7,1,1.5c0,0.6,0,1.3,0.2,1.9c0.6,1.6,1.2,3.2,1.9,4.9
			c1-0.3,1-1.2,1.3-1.9c0.6-1.3,1.2-2.6,1.8-3.9c0.8-1.7,2-3.2,4.1-3.1c2.3,0.1,3.4,1.8,4.3,3.7c0.3,0.6-0.5,2.2,1.1,1.8
			c1.3-0.3,2.7-1.1,3-2.7c0.1-0.4,0-0.8-0.1-1.2c0-0.6-0.4-1.4,0.3-1.7c0.7-0.4,1.2,0.3,1.7,0.6c0.4,0.2,0.8,0.6,1.2,0.7
			c1.7,0.6,3.1-0.3,3.1-2.1c0-0.7,0-1.4,0-2.3c1.4,0.5,2.8,1.9,4,1c1.1-0.8,0.4-2.7,1.4-4c0.9,0.8,1.9,1.5,3.2,1.7
			c0.7,0.1,1.2,0,1.6-0.8c0.3-0.6,0.3-1.1-0.2-1.5c-1.6-1.1-1.1-2.4-0.7-3.8c3.8,1.5,6.2,7.9,4.5,11.5c-0.7,1.5-2,1.5-3.3,1.2
			c-0.9-0.2-1.2-0.1-1.6,0.8c-0.7,1.4-1.9,2.7-3.8,1.9c-0.7-0.3-0.7,0-0.9,0.6c-0.6,2.3-2.2,3-4.4,2.6c-0.9-0.2-1.3,0-1.8,1
			c-1.2,2.9-4.7,4.3-7.6,3.1c-1.1-0.5-1.5-0.5-2.1,0.6c-2.7,5.1-7.6,7.3-12.5,9.6c-0.5,0.3-1.3,0.2-1.9,0.1
			c-0.7-0.1-1.2-0.3-1.5,0.8c-0.7,2.1-5.9,5-8.1,4.4c-1.3-0.4-1.6-0.3-2.1,1.1c-1,3.2-5.4,5.2-8.8,4.1c-0.3,2-1.5,3.4-3.3,4.1
			c-0.9,0.3-0.8,0.8-0.6,1.5c0.5,1.8,0.3,3.4-1.5,4.3c-1.8,1-3.2,0.1-4.6-1c-0.7-0.6-1.2-1.3-1.8-1.9c-0.4-0.4-0.6-1.4-1.3-0.9
			c-0.5,0.4-0.7,1.2-0.3,2c0.7,1.2,1.3,2.4,1.9,3.6c0.7,1.4,1.1,2.8,1.3,4.3c0.1,0.8-0.1,1.5-0.8,1.8c-0.7,0.3-1.3-0.3-1.6-0.7
			c-2-3.5-4.2-7-5.9-10.7c-0.9-2.1,0-4.1,1.6-5.9c1.6-1.8,3.1-3,5.8-2.2c1.4,0.4,3,0,4.4-0.7c1.6-0.8,2.7-1.7,1.8-3.7
			c-0.3-0.6-0.3-1.3,0.2-1.8c0.7-0.5,1.1,0.3,1.5,0.6c2.3,1.5,4.7,1.2,6.7-0.9c0.9-0.9,0.1-1.5-0.5-1.5c-1.6-0.2-2.8-0.5-2.9-2.5
			c0-2,1.7-4.9,3.5-5.6c3.7-1.5,6.3,0.3,5.9,4.2C114.3,182.6,114.2,183.1,114,183.9z M131.2,175.2c1.9-1.3,3.4-2.2,4.7-3.3
			c0.5-0.4,1.8-0.9,0.8-2c-0.8-0.8-1.9-0.9-2.8,0C132.5,171.1,131.7,172.7,131.2,175.2z M93.2,199.1c0.6,1.5,1.8,2,2.9,2.6
			c0.4,0.2,0.8,0.1,1-0.3c0.1-0.4,0.3-0.8-0.2-1C95.8,199.8,94.7,199.1,93.2,199.1z"/>
		<path fill="#080808" d="M209.9,135.5c-0.9,0.8-0.9,1.6-0.4,2.5c0.8,1.5,1.4,3,2.2,4.5c0.3,0.6,0.6,1.1,0.7,1.8
			c0.2,1.2,0.5,2.8-0.6,3.3c-1.1,0.5-1.8-0.9-2.4-1.9c-1.6-2.9-3.3-5.8-4.8-8.8c-1.4-2.8-0.5-4.5,1.4-6.8c2-2.4,4-2.2,6.5-1.9
			c2.5,0.3,3.8-0.8,4.4-3.3c0.4-1.7,0.8-3.4,1.3-5.1c0.6-1.6,1.7-2.8,3.6-2.5c1.9,0.2,2.4,1.6,2.7,3.2c0.1,0.5-0.3,1.7,0.5,1.5
			c1.2-0.3,2.3-1.1,3.3-1.8c0.7-0.5,0.3-1.2-0.1-1.7c-2-2.7-3.8-5.7-6.2-8.2c-0.8-0.8,0.1-5.6,1.1-5.9c0.3-0.1,0.7,0.2,1.1,0.4
			c1.2,0.7,2.4,1.3,3.5,2c0.8,0.5,2.2,1,0.4,2.1c-0.7,0.5,0.1,1,0.3,1.4c1.3,2.4,2.6,4.8,3.9,7.1c0.3,0.6,0.6,1.1,0.9,1.7
			c1.8,4.2,1.1,6.5-2.9,8.6c-1.4,0.7-2.7,1.2-0.7,2.8c1.3,1.1,1.1,2.6,0.4,4c-0.7,1.5-2,1.7-3.5,1.5c-1.7-0.3-3.4-0.9-4.8-2
			c-1.3-1.1-2.2-0.8-2.6,1c-0.2,0.9-0.3,1.7-0.6,2.6c-1,2.6-2.8,3.2-5.2,1.6C212,138.2,211.1,136.9,209.9,135.5z M211.1,133
			c0.8,1.3,1.7,1.9,2.8,2.5c0.5,0.2,1.1,0.5,1.4-0.2c0.4-0.7,0-1-0.6-1.3C213.7,133.4,212.7,132.8,211.1,133z M219.6,125.3
			c1.6-0.6,2.9-1,3-2.5c0.1-0.6-0.5-0.9-1-0.8C220.1,122.3,220.3,123.8,219.6,125.3z M223,131.7c1.3,0.5,2.3,1.6,3.5,0.5
			c0.4-0.4,0.7-1,0-1.4C225.2,130,224.3,130.9,223,131.7z"/>
		<path fill="#050505" d="M136.5,192.7c0.5,10.1,1.2,20,1,29.9c0,1.9-0.1,3.9-1,5.6c-1,1.7-2.4,2.9-4.5,2.7c-1.9-0.2-2.1-2-2.3-3.5
			c-1.4-8.2-3-16.4-2.3-24.8C127.8,197,130.6,194,136.5,192.7z"/>
		<path fill="#080808" d="M63.3,210.8c3.4,0.3,5-1.3,4.6-4.4c-0.3-2.6,1.5-5,4.1-5.2c3.9-0.3,8.5,5.2,7.4,9c-0.8,2.8-3,4.1-5.8,3.5
			c-0.9-0.2-1.4-0.3-1.4,0.8c0,1.1-0.7,2-1.5,2.3c-1.7,0.7-1.7,1.5-1.1,3c0.6,1.2,0.4,2.5,0.1,3.8c-1,3.9-7.5,8.4-11.5,7.9
			c-2.1-0.3-3.7-1.3-4.6-3.3c-0.9-1.9-1.7-3.8-1.8-5.9c0-0.8-0.3-2,0.9-2.2c0.9-0.2,1.4,0.7,1.6,1.5c1.2,3.6,1.9,4.2,6.3,2.5
			c1.7-0.6,3.1-1.6,4.3-2.9c1.7-1.9,1.4-3.2-1.1-4.1c-0.8-0.3-2-0.1-2.2-1.1c-0.3-1.5-0.5-3-0.3-4.5
			C61.5,210.3,62.7,210.9,63.3,210.8z M76.2,206.9c-0.2-1.4-1-2.5-2.6-2.8c-1-0.2-1.2,0.6-1.3,1.3c-0.1,1.2,1.7,3.2,2.8,3.2
			C76.2,208.6,76,207.8,76.2,206.9z"/>
		<path fill="#050505" d="M148.5,185.4c0,8.5,0,16.9,0,25.4c0,4.7-0.2,9.4-0.4,14.1c0,2.2-1.4,3.6-3.6,3.7c-2.3,0.1-2.8-1.6-3-3.3
			c-0.7-5.5-0.6-11-0.8-16.5c-0.1-4.8-0.1-9.6-0.2-14.4c0-1.3,0.3-2.2,1.3-3.1C144.2,189.4,146.4,187.3,148.5,185.4z"/>
		<path fill="#0A0A0A" d="M175.4,131.1c2.5,4.3,4.7,8.1,7,11.9c0.6,0.9,1,2.2,2.5,1.6c1.4-0.5,1.8-1.6,1.4-3.1
			c-0.3-1.4-0.3-2.8,0.5-4.2c1.3-2.1,3.4-2.8,5.6-1.7c3.1,1.6,5.2,4,5.3,7.7c0.1,3-2.4,5.1-5.4,4.6c-1.1-0.2-1.5-0.3-2.1,1
			c-2.2,4.6-7.6,4.7-10.2,0.4c-2.3-3.8-4.3-7.6-6.5-11.4c-0.4-0.7-0.2-1.2,0-1.8C174.1,134.6,174.6,133.1,175.4,131.1z M192.9,142.5
			c1.1,0,1.5-0.5,1.4-1.4c-0.2-1.4-0.8-2.7-2.3-3c-1.2-0.2-1.6,0.8-1.5,1.6C190.6,141.2,191.6,142.1,192.9,142.5z"/>
		<path fill="#0B0B0B" d="M173,158.3c0,0.8,0,1.3-0.5,1.6c-0.6,0.3-1.1,0-1.5-0.4c-0.6-0.6-1.1-1.1-1.6-1.8
			c-2.5-3.4-4.9-6.9-7.4-10.3c-1.1-1.6-0.9-6.7,0.3-8.2c0.4-0.5,0.8-0.4,1.2-0.1c0.4,0.3,0.7,0.6,1,1c2.9,5.1,6.3,9.9,7.8,15.8
			C172.6,156.7,172.8,157.6,173,158.3z"/>
		<path fill="#0A0A0A" d="M232.3,99.5c1.1,0.3,1.9,0.7,2.4,1.6c3.1,5,5.9,10,7.7,15.6c0.4,1.4,1.2,3.4-0.2,4.2
			c-1.2,0.6-2-1.4-2.8-2.4c-2.5-3.2-4.8-6.6-7.3-9.8c-1.1-1.4-1.5-2.7-0.9-4.4C231.8,102.7,232,101.1,232.3,99.5z"/>
		<path fill="#161616" d="M95.3,181.2c1.5,0.9,2,0.1,2.5-1.4c0.3-1,1.5,0,2.3,0c0.7,0,1,0.5,0.6,1.1c-0.3,0.6-0.1,1.8-1.3,1.6
			c-1.2-0.1-2.1-0.1-2.4,1.4c-0.3,1.2-1.5,0.4-2.2,0.3c-1.1-0.1-0.8-0.9-0.6-1.6C94.4,182.1,94,181.1,95.3,181.2z"/>
		<path fill="#161616" d="M140.8,156.4c0.9,0.3,1.5,0,1.6-1.2c0.2-1.4,1.1-1,2-0.8c0.9,0.2,1.5,0.4,1.1,1.5
			c-0.3,0.8-0.2,2.1-1.7,1.5c-0.9-0.3-1.6-0.1-1.8,0.9c-0.3,1.4-1.3,1-2.2,0.8c-1.2-0.3-0.8-1.2-0.8-1.9
			C139,155.9,140,156.3,140.8,156.4z"/>
		<path fill="#161616" d="M118,171.8c-0.9-0.4-1.5-0.1-1.7,0.9c-0.3,1.4-1.2,1-2.2,0.8c-1.1-0.3-0.8-0.8-0.7-1.5
			c0.2-1,0.4-1.7,1.7-1.3c1,0.4,1.5-0.1,1.6-1c0.2-1.5,1.2-1,2.1-0.9c1.2,0.2,1.1,0.9,1,1.7C119.6,171.7,119.2,172.3,118,171.8z"/>
		<path fill="#161616" d="M56.6,211.9c-0.5,0.6,0.4,2.5-1.8,1.9c-1-0.3-2.2-0.2-1.7-1.8c0.3-0.9-0.2-2.6,1.7-2
			C55.6,210.3,57.2,209.9,56.6,211.9z"/>
		<path fill="#F1F1F1" d="M131.2,175.2c0.5-2.5,1.4-4.1,2.7-5.4c0.9-0.9,2-0.8,2.8,0c1,1-0.3,1.6-0.8,2
			C134.5,173,133,173.9,131.2,175.2z"/>
		<path fill="#F1F1F1" d="M93.2,199.1c1.5,0,2.5,0.8,3.7,1.2c0.5,0.2,0.4,0.7,0.2,1c-0.2,0.5-0.6,0.5-1,0.3
			C95,201.1,93.9,200.6,93.2,199.1z"/>
		<path fill="#F1F1F1" d="M211.1,133c1.5-0.2,2.5,0.5,3.6,1c0.6,0.3,0.9,0.6,0.6,1.3c-0.4,0.7-1,0.4-1.4,0.2
			C212.8,134.9,211.9,134.2,211.1,133z"/>
		<path fill="#F1F1F1" d="M219.6,125.3c0.7-1.5,0.5-3,2.1-3.3c0.4-0.1,1,0.2,1,0.8C222.5,124.3,221.2,124.7,219.6,125.3z"/>
		<path fill="#F1F1F1" d="M223,131.7c1.3-0.8,2.2-1.7,3.5-0.9c0.6,0.4,0.4,1.1,0,1.4C225.3,133.3,224.3,132.3,223,131.7z"/>
		<path fill="#F1F1F1" d="M76.2,206.9c-0.1,0.9,0,1.7-1.1,1.7c-1,0-2.9-2-2.8-3.2c0.1-0.7,0.3-1.5,1.3-1.3
			C75.2,204.4,76,205.5,76.2,206.9z"/>
		<path fill="#F1F1F1" d="M192.9,142.5c-1.3-0.4-2.3-1.3-2.5-2.7c-0.1-0.8,0.4-1.9,1.5-1.6c1.5,0.3,2.1,1.6,2.3,3
			C194.4,142.1,194,142.5,192.9,142.5z"/>
	</g>
</g>
</svg>
