<?xml version="1.0" encoding="utf-8"?>
<!-- Generator: Adobe Illustrator 18.0.0, SVG Export Plug-In . SVG Version: 6.00 Build 0)  -->
<!DOCTYPE svg PUBLIC "-//W3C//DTD SVG 1.1//EN" "http://www.w3.org/Graphics/SVG/1.1/DTD/svg11.dtd">
<svg version="1.1" id="Layer_1" xmlns="http://www.w3.org/2000/svg" xmlns:xlink="http://www.w3.org/1999/xlink" x="0px" y="0px"
	 viewBox="0 0 200 200" enable-background="new 0 0 200 200" xml:space="preserve">
<path fill="none" stroke="#A3A3A3" stroke-width="12" stroke-miterlimit="10" d="M100.6,30.4c0-0.7,0,67.8,0,67.8"/>
<line fill="none" stroke="#A3A3A3" stroke-width="12" stroke-miterlimit="10" x1="136.5" y1="64.1" x2="67.2" y2="64.1"/>
<path fill="none" stroke="#A3A3A3" stroke-width="12" stroke-miterlimit="10" d="M11.8,51.7c6.4-9.7,15-9,20.2,0
	c0,5.6,0,28.8,0,37.1c0.7,12,15.4,28.1,15.4,28.1s-10.5-14.2-9-21.4c3-11.6,11.6-12,16.1-7.1c4.5,4.9,17.6,31.5,17.6,31.5l20.6,12.7
	v37.8l-33-2.6l-2.6-10.5c0,0-37.8-25.5-45.7-42.7C11,107.5,11.8,60,11.8,51.7z"/>
<path fill="none" stroke="#A3A3A3" stroke-width="12" stroke-miterlimit="10" d="M188.2,51.7c-6.4-9.7-15-9-20.2,0
	c0,5.6,0,28.8,0,37.1c-0.7,12-13.1,25.1-13.1,25.1s9.7-13.1,12-19.9c2.6-6.7-15.4-12.7-19.1-7.9c-3.7,4.9-12.4,30.7-19.9,34.1
	c-4.5,2.6-20.6,12.7-20.6,12.7v37.8l33-2.6l2.6-10.5c0,0,37.8-25.5,45.7-42.7C188.6,107.5,188.2,60,188.2,51.7z"/>
</svg>
