<?xml version="1.0" encoding="utf-8"?>
<!-- Generator: Adobe Illustrator 18.0.0, SVG Export Plug-In . SVG Version: 6.00 Build 0)  -->
<!DOCTYPE svg PUBLIC "-//W3C//DTD SVG 1.1//EN" "http://www.w3.org/Graphics/SVG/1.1/DTD/svg11.dtd">
<svg version="1.1" id="Capa_1" xmlns="http://www.w3.org/2000/svg" xmlns:xlink="http://www.w3.org/1999/xlink" x="0px" y="0px"
	 viewBox="14.5 0 482.7 512" enable-background="new 14.5 0 482.7 512" xml:space="preserve">
<g>
	<path fill="#FFFFFF" d="M14.5,420.5c0,50.5,41,91.5,91.5,91.5s91.5-41.1,91.5-91.5c0-10.6-1.9-20.9-5.3-30.5l140.5-78.6
		c16.8,21.9,43.2,36,72.7,36c50.5,0,91.6-41,91.6-91.5s-41.1-91.5-91.5-91.5c-29.6,0-55.9,14-72.6,35.9l-140.4-78.5
		c3.4-9.5,5.2-19.7,5.2-30.3c0-50.5-41-91.5-91.5-91.5S14.8,41,14.8,91.5s41.1,91.5,91.5,91.5c29.6,0,55.9-14.1,72.6-35.9
		l140.5,78.5c-3.4,9.6-5.2,19.7-5.2,30.3c0,10.5,1.8,20.7,5.1,30.2l-140.7,78.6c-16.8-21.7-43.1-35.7-72.5-35.7
		C55.7,328.9,14.5,370,14.5,420.5z M169,91.6c0,34.7-28.2,62.8-62.8,62.8s-62.8-28.2-62.8-62.8s28.2-62.8,62.8-62.8
		C140.7,28.8,169,57,169,91.6z M342.7,255.9c0-34.7,28.2-62.8,62.8-62.8c34.7,0,62.8,28.2,62.8,62.8s-28.2,62.8-62.8,62.8
		C371,318.7,342.7,290.5,342.7,255.9z M43.4,420.4c0-34.7,28.2-62.8,62.8-62.8s62.8,28.2,62.8,62.8s-28.2,62.8-62.8,62.8
		S43.4,455,43.4,420.4z"/>
</g>
</svg>
