<?xml version="1.0" encoding="utf-8"?>
<!-- Generator: Adobe Illustrator 18.0.0, SVG Export Plug-In . SVG Version: 6.00 Build 0)  -->
<!DOCTYPE svg PUBLIC "-//W3C//DTD SVG 1.1//EN" "http://www.w3.org/Graphics/SVG/1.1/DTD/svg11.dtd">
<svg version="1.1" id="Layer_1" xmlns="http://www.w3.org/2000/svg" xmlns:xlink="http://www.w3.org/1999/xlink" x="0px" y="0px"
	 viewBox="0 0 451.3 500" enable-background="new 0 0 451.3 500" xml:space="preserve">
<g>
	<g>
		<path fill="#FEFEFE" d="M0.4,250.5c0-82.9,0-165.7,0-248.6c0-1.4,0.4-1.6,1.7-1.6c149.4,0,298.9,0,448.3,0c1.6,0,1.8,0.4,1.8,1.8
			c0,165.6,0,331.2,0,496.8c0,1.6-0.4,1.8-1.8,1.8c-149.4,0-298.8,0-448.2,0c-1.6,0-1.8-0.4-1.8-1.8C0.4,416.1,0.4,333.3,0.4,250.5z
			 M437.5,247.5C437.5,247.5,437.5,247.5,437.5,247.5c0-24.2,0-48.3-0.1-72.5c0-1.8,0-3.6-0.2-5.5c-0.5-5-2.2-9.4-6.2-12.8
			c-6.8-5.6-13.2-11.6-20-17.3c-31.2-26.6-63.6-51.7-96.5-76.2C292.6,47,270.4,31.1,248,15.5c-11.8-8.2-29.2-7.7-40.7,0.9
			C184.7,33.7,162,50.8,139.4,68c-36.6,27.8-73.2,55.7-109.5,83.9c-6.6,5.1-10.8,12-13.6,19.7c-1.9,5.4-1.6,11-1.6,16.6
			c-0.1,43.7-0.1,87.3-0.1,131c0,9.4,3.4,17.4,9.9,24.1c4.6,4.8,9.5,9.5,14.3,14.1c26.4,25.3,54.3,48.8,83.1,71.4
			c24.3,19.1,49.2,37.5,74.7,55.1c3.3,2.3,6.8,4,10.6,5c6.7,1.7,13.5,2,20.3,1.1c7.2-1,13.9-3,19.8-7.6c32.9-25.6,66-51.1,98.9-76.6
			c28.4-22,56.9-44,85.3-66c1.9-1.5,3.2-3.2,4-5.4c1.3-3.6,2-7.2,2-11C437.5,298.1,437.5,272.8,437.5,247.5z"/>
		<path fill="#014CFE" d="M437.5,247.5c0,25.3,0,50.7,0,76c0,3.8-0.7,7.5-2,11c-0.8,2.2-2.1,4-4,5.4c-28.5,22-56.9,44-85.3,66
			c-33,25.5-66,51-98.9,76.6c-5.9,4.6-12.6,6.6-19.8,7.6c-6.8,0.9-13.6,0.6-20.3-1.1c-3.8-1-7.3-2.7-10.6-5
			c-25.5-17.6-50.4-36-74.7-55.1c-28.7-22.6-56.7-46.1-83.1-71.4c-4.8-4.6-9.7-9.3-14.3-14.1c-6.4-6.7-9.9-14.8-9.9-24.1
			c0-43.7,0-87.3,0.1-131c0-5.6-0.3-11.2,1.6-16.6c2.8-7.8,7-14.6,13.6-19.7c36.4-28.2,72.9-56.1,109.5-83.9
			c22.6-17.2,45.3-34.3,67.9-51.5c11.4-8.7,28.9-9.1,40.7-0.9c22.4,15.6,44.6,31.5,66.6,47.8c32.9,24.5,65.3,49.6,96.5,76.2
			c6.7,5.7,13.2,11.7,20,17.3c4.1,3.4,5.7,7.8,6.2,12.8c0.2,1.8,0.2,3.6,0.2,5.5C437.4,199.2,437.4,223.3,437.5,247.5
			C437.5,247.5,437.5,247.5,437.5,247.5z M415.4,253.5c0-9.4-1.7-18.6-4.7-27.5c-4.5-13.1-11.4-24.8-19.9-35.7
			c-2.5-3.3-4.9-6.9-8.1-9.5c-34.2-27.7-68.5-55.4-102.8-83.1c-8.7-7.1-17.4-14.1-26.1-21.2c-9.8-8-21.1-10.6-33.5-8.6
			c-6.6,1.1-11.9,4.5-17.2,8.4C165.1,105,126.9,133.5,88.7,162c-6.4,4.8-13.2,9.3-19.3,14.5c-11.3,9.9-20.8,21.5-27.7,35.1
			c-9.2,18.2-11.9,37.3-6.8,57.3c4.1,16.2,12.4,30.2,22.7,43.2c1.1,1.4,2.1,3,3.6,4.1c7.3,6,14.7,11.9,22,17.9
			c34.6,28,69.2,56.1,103.8,84.1c5,4,9.5,8.8,15.3,11.8c12.7,6.6,25.3,6.9,37.6-1.1c4.7-3.1,9-6.8,13.5-10.2
			c39.8-29.9,79.6-59.7,119.3-89.6c4.3-3.2,8.8-6.1,12.7-9.8c6.3-6,11.6-13.1,16.3-20.5C410.3,284.8,415.4,269.9,415.4,253.5z"/>
		<path fill="#FDFDFE" d="M415.4,253.5c-0.1,16.4-5.1,31.4-13.7,45.2c-4.6,7.5-9.9,14.5-16.3,20.5c-3.8,3.7-8.4,6.6-12.7,9.8
			c-39.8,29.9-79.6,59.7-119.3,89.6c-4.5,3.4-8.8,7.1-13.5,10.2c-12.2,8-24.9,7.7-37.6,1.1c-5.8-3-10.3-7.8-15.3-11.8
			c-34.6-28-69.2-56-103.8-84.1c-7.3-6-14.7-11.9-22-17.9c-1.4-1.2-2.4-2.7-3.6-4.1c-10.3-12.9-18.6-27-22.7-43.2
			c-5.1-19.9-2.4-39,6.8-57.3c6.9-13.5,16.3-25.1,27.7-35.1c6-5.3,12.8-9.7,19.3-14.5c38.2-28.5,76.3-57,114.4-85.6
			c5.3-4,10.6-7.3,17.2-8.4c12.4-2,23.8,0.6,33.5,8.6c8.7,7.1,17.4,14.2,26.1,21.2c34.3,27.7,68.6,55.3,102.8,83.1
			c3.2,2.6,5.6,6.2,8.1,9.5c8.4,10.9,15.4,22.6,19.9,35.7C413.8,234.9,415.4,244,415.4,253.5z M294.8,314.3c0-6.3,0-12.3,0-18.2
			c0-1.8,0.1-3.7-0.2-5.5c-1.6-9.9-10.5-17-20.1-16.2c-10.4,0.9-17.8,8.9-17.8,19.3c0,27.7,0,55.4,0,83c0,1.6,0.4,1.7,1.8,1.3
			c11.1-3.1,21.7-7.5,31.7-13.4c21.4-12.6,38.2-29.7,50.1-51.6c15.4-28.3,20.1-58.5,14.1-90.2c-6.1-31.8-21.9-58.1-46.9-78.7
			c-22.6-18.6-48.7-28.6-77.9-30.3c-17-1-33.6,1.2-49.8,6.6c-26.7,8.9-48.5,24.7-65.4,47.2c-15.3,20.4-24.1,43.5-26.3,69
			c-1.6,18.8,0.2,37.3,6.7,55c16.7,45.6,48.6,74.7,95.5,87.4c1.5,0.4,1.9,0.1,1.9-1.4c-0.1-9.5,0-18.9,0-28.4c0-18.6,0-37.1,0-55.7
			c0-6.8-2.5-12.6-8.4-16.3c-6-3.9-12.5-3.9-18.8-0.6c-6.4,3.4-9.9,9-10.1,16.2c-0.2,7.9,0,15.7,0,23.6c0,0.9,0,1.8,0,2.9
			c-23.8-20.1-41.6-59-30.4-101.3c10.9-41,48.2-73.8,95.6-74.9c41.3-0.9,80.6,23.8,96.4,64.9C331.8,248,319.6,289.6,294.8,314.3z
			 M202.5,325.3C202.5,325.3,202.5,325.3,202.5,325.3c0,18.9,0,37.8,0,56.8c0,1.3,0.4,1.7,1.7,1.6c13.7-0.1,27.5-0.1,41.2,0
			c1.5,0,1.7-0.5,1.7-1.8c0-36.9,0-73.8,0-110.7c0-1.3,0-2.7-0.2-4c-1.1-8.6-5.5-14.8-13.5-18.1c-8.2-3.4-15.9-2.2-22.8,3.4
			c-5.6,4.5-8.1,10.6-8.1,17.8C202.5,288.5,202.5,306.9,202.5,325.3z M199.4,211.5c-0.8,12.1,9.5,23.5,22,24.4
			c13,0.9,24.5-9,25.4-21.9c0.9-13.6-9.1-25-23.1-25.5C210.5,188,199.8,198.4,199.4,211.5z M173.9,255c11.1,0.1,20.3-8.9,20.4-19.9
			c0.1-11.4-8.9-20.5-20.2-20.5c-11.1-0.1-20.3,9.1-20.3,20.2C153.7,245.8,162.8,254.9,173.9,255z M296.9,234.7
			c0-11.1-9-20.2-20.1-20.2c-11.3,0-20.3,9-20.4,20.3c-0.1,10.9,9.1,20.1,20.2,20.1C287.9,255,297,245.9,296.9,234.7z"/>
		<path fill="#014CFE" d="M294.8,314.3c24.8-24.8,37-66.4,21.7-106.2c-15.8-41.1-55.1-65.8-96.4-64.9c-47.5,1-84.7,33.8-95.6,74.9
			c-11.2,42.3,6.6,81.2,30.4,101.3c0-1.1,0-2,0-2.9c0-7.9-0.2-15.8,0-23.6c0.2-7.3,3.6-12.8,10.1-16.2c6.3-3.3,12.7-3.3,18.8,0.6
			c5.9,3.8,8.4,9.5,8.4,16.3c0,18.6,0,37.1,0,55.7c0,9.5,0,18.9,0,28.4c0,1.6-0.3,1.8-1.9,1.4c-46.9-12.7-78.8-41.9-95.5-87.4
			c-6.5-17.7-8.3-36.2-6.7-55c2.2-25.5,11-48.5,26.3-69c16.9-22.5,38.7-38.2,65.4-47.2c16.2-5.4,32.8-7.6,49.8-6.6
			c29.2,1.7,55.3,11.7,77.9,30.3c25,20.6,40.8,46.9,46.9,78.7c6,31.7,1.3,61.8-14.1,90.2c-11.9,21.8-28.7,39-50.1,51.6
			c-10,5.9-20.5,10.3-31.7,13.4c-1.4,0.4-1.8,0.3-1.8-1.3c0-27.7,0-55.4,0-83c0-10.4,7.4-18.4,17.8-19.3c9.6-0.8,18.5,6.3,20.1,16.2
			c0.3,1.8,0.2,3.6,0.2,5.5C294.8,302.1,294.8,308.1,294.8,314.3z"/>
		<path fill="#024DFE" d="M202.5,325.3c0-18.4,0-36.8,0-55.2c0-7.2,2.5-13.3,8.1-17.8c6.9-5.6,14.6-6.8,22.8-3.4
			c7.9,3.3,12.4,9.6,13.5,18.1c0.2,1.3,0.2,2.7,0.2,4c0,36.9,0,73.8,0,110.7c0,1.3-0.2,1.8-1.7,1.8c-13.7,0-27.5,0-41.2,0
			c-1.3,0-1.7-0.3-1.7-1.6C202.5,363.1,202.5,344.2,202.5,325.3C202.5,325.3,202.5,325.3,202.5,325.3z"/>
		<path fill="#024DFE" d="M199.4,211.5c0.4-13,11.1-23.5,24.2-23c14,0.5,24.1,11.8,23.1,25.5c-0.9,12.8-12.4,22.7-25.4,21.9
			C208.9,235,198.6,223.6,199.4,211.5z"/>
		<path fill="#024DFE" d="M173.9,255c-11.1-0.1-20.2-9.2-20.1-20.2c0-11.2,9.2-20.3,20.3-20.2c11.3,0.1,20.2,9.2,20.2,20.5
			C194.2,246,185,255,173.9,255z"/>
		<path fill="#024DFE" d="M296.9,234.7c0,11.2-9,20.3-20.2,20.2c-11.1,0-20.3-9.2-20.2-20.1c0.1-11.4,9.1-20.4,20.4-20.3
			C287.9,214.5,296.9,223.6,296.9,234.7z"/>
	</g>
</g>
</svg>
