<?xml version="1.0" encoding="utf-8"?>
<!-- Generator: Adobe Illustrator 18.0.0, SVG Export Plug-In . SVG Version: 6.00 Build 0)  -->
<!DOCTYPE svg PUBLIC "-//W3C//DTD SVG 1.1//EN" "http://www.w3.org/Graphics/SVG/1.1/DTD/svg11.dtd">
<svg version="1.1" id="Capa_1" xmlns="http://www.w3.org/2000/svg" xmlns:xlink="http://www.w3.org/1999/xlink" x="0px" y="0px"
	 viewBox="0 0 200 200" enable-background="new 0 0 200 200" xml:space="preserve">
<g>
	<g>
		<path fill="#BABABA" d="M101.1,47.7c33.7,0.3,54.8-1.8,57.7,35.6h41.1c0-57.9-50.5-65.7-99.8-65.7c-49.4,0-99.8,7.8-99.8,65.7H41
			C44.1,45.3,67.7,47.4,101.1,47.7z"/>
		<path fill="#BABABA" d="M20.6,101.9c10,0,18.3,0.6,20.2-9.2c0.2-1.3,0.4-2.9,0.4-4.6h-0.5H0C0,102.7,9.2,101.9,20.6,101.9z"/>
		<path fill="#BABABA" d="M159,88.1h-0.4c0,1.8,0.2,3.3,0.4,4.6c2,9.1,10.3,8.5,20.2,8.5c11.4,0,20.7,0.8,20.7-13.1
			C200,88.1,159,88.1,159,88.1z"/>
		<path fill="#BABABA" d="M138.9,78.1v-5.8c0-2.6-3-2.8-6.7-2.8h-6c-3.7,0-6.7,0.2-6.7,2.8v5v3.9H76.7v-3.9v-5c0-2.6-3-2.8-6.7-2.8
			H64c-3.7,0-6.7,0.2-6.7,2.8v5.8v5.1c-9.7,10.1-41.6,53.3-42.8,58.5l0,34.8c0,3.2,2.6,5.8,5.8,5.8h155.6c3.2,0,5.8-2.6,5.8-5.8v-35
			c-1.1-5.1-33-48.2-42.8-58.3V78.1z M74.6,146.3c-3.1,0-5.7-2.5-5.7-5.7s2.5-5.7,5.7-5.7c3.1,0,5.7,2.5,5.7,5.7
			S77.7,146.3,74.6,146.3z M74.6,126.9c-3.1,0-5.7-2.5-5.7-5.7s2.5-5.7,5.7-5.7c3.1,0,5.7,2.5,5.7,5.7S77.7,126.9,74.6,126.9z
			 M74.6,107.4c-3.1,0-5.7-2.5-5.7-5.7c0-3.1,2.5-5.7,5.7-5.7c3.1,0,5.7,2.5,5.7,5.7C80.3,104.9,77.7,107.4,74.6,107.4z M97.9,146.3
			c-3.1,0-5.7-2.5-5.7-5.7s2.5-5.7,5.7-5.7c3.1,0,5.7,2.5,5.7,5.7S101.1,146.3,97.9,146.3z M97.9,126.9c-3.1,0-5.7-2.5-5.7-5.7
			s2.5-5.7,5.7-5.7c3.1,0,5.7,2.5,5.7,5.7S101.1,126.9,97.9,126.9z M97.9,107.4c-3.1,0-5.7-2.5-5.7-5.7c0-3.1,2.5-5.7,5.7-5.7
			c3.1,0,5.7,2.5,5.7,5.7C103.6,104.9,101.1,107.4,97.9,107.4z M121.3,146.3c-3.1,0-5.7-2.5-5.7-5.7s2.5-5.7,5.7-5.7
			s5.7,2.5,5.7,5.7S124.4,146.3,121.3,146.3z M121.3,126.9c-3.1,0-5.7-2.5-5.7-5.7s2.5-5.7,5.7-5.7s5.7,2.5,5.7,5.7
			S124.4,126.9,121.3,126.9z M121.3,107.4c-3.1,0-5.7-2.5-5.7-5.7c0-3.1,2.5-5.7,5.7-5.7s5.7,2.5,5.7,5.7
			C127,104.9,124.4,107.4,121.3,107.4z"/>
	</g>
</g>
</svg>
