<?xml version="1.0" encoding="utf-8"?>
<!-- Generator: Adobe Illustrator 18.0.0, SVG Export Plug-In . SVG Version: 6.00 Build 0)  -->
<!DOCTYPE svg PUBLIC "-//W3C//DTD SVG 1.1//EN" "http://www.w3.org/Graphics/SVG/1.1/DTD/svg11.dtd">
<svg version="1.1" id="Layer_1" xmlns="http://www.w3.org/2000/svg" xmlns:xlink="http://www.w3.org/1999/xlink" x="0px" y="0px"
	 viewBox="0 0 200 200" enable-background="new 0 0 200 200" xml:space="preserve">
<g id="Layer_2" display="none">
	<g display="inline">
		<path fill="#777777" d="M1047.6,262.8c-199.1,42.6-414.8,242.6-617.3,242.6c-304.4,0-356.5-224.3-627.8-242.6
			C-496.7,248-782.7,367.1-871.4,401c-88.7,33.9-77.4,75.7-72.2,88.7c11.3,25.2,20.9,37.4,83.4,27c0,0,410.4-170.4,692.1-141.7
			c140.9,20,296.5,242.6,595.6,245.2C638.9,622,858.8,412.4,1066.7,368c315.6-67,604.3,163.4,604.3,163.4c34.8,0,80-34.8,36.5-97.4
			C1686.6,404.6,1378,192.4,1047.6,262.8z"/>
	</g>
	<g display="inline">
		<path fill="#777777" d="M1048.4,541c-199.1,42.6-414.8,242.6-617.3,242.6c-304.3,0-356.5-224.3-627.8-242.6
			c-299.1-14.8-585.2,104.3-673.9,138.2c-88.7,33.9-77.4,75.7-72.2,88.7c11.3,25.2,20,40.9,83.4,27c0,0,410.4-170.4,692.1-141.7
			c140.9,20,296.5,242.6,595.6,245.2c211.3,1.8,431.2-207.8,639.1-252.2c315.6-67,604.3,163.4,604.3,163.4c34.8,0,80-34.8,36.5-97.4
			C1687.5,682.8,1378.8,470.6,1048.4,541z"/>
	</g>
</g>
<g id="Capa_1">
	<circle fill="none" stroke="#78A04D" stroke-width="12" stroke-miterlimit="10" cx="100.1" cy="100.1" r="91.2"/>
	<path fill="none" stroke="#78A04D" stroke-width="12" stroke-miterlimit="10" d="M49.3,110.4c-3.7-3,53.6,44.6,42.8,35.7"/>
	<path fill="none" stroke="#78A04D" stroke-width="12" stroke-miterlimit="10" d="M93.7,146.9c-1.6,1.6,59.5-76.4,55.5-71.4"/>
</g>
</svg>
