<?xml version="1.0" encoding="utf-8"?>
<!-- Generator: Adobe Illustrator 18.0.0, SVG Export Plug-In . SVG Version: 6.00 Build 0)  -->
<!DOCTYPE svg PUBLIC "-//W3C//DTD SVG 1.1//EN" "http://www.w3.org/Graphics/SVG/1.1/DTD/svg11.dtd">
<svg version="1.1" id="Capa_1" xmlns="http://www.w3.org/2000/svg" xmlns:xlink="http://www.w3.org/1999/xlink" x="0px" y="0px"
	 viewBox="0 0 50 50" enable-background="new 0 0 50 50" xml:space="preserve">
<path fill="#5BBF43" stroke="#498E3A" stroke-width="2" stroke-miterlimit="10" d="M47.2,27.7l-0.9-1.2c-0.7-1-0.7-2.3,0-3.3
	l0.9-1.2c1-1.4,0.5-3.4-1-4.2l-1.3-0.7c-1.1-0.6-1.7-1.8-1.5-3l0.2-1.5c0.3-1.7-1-3.3-2.7-3.3l-1.5-0.1c-1.2,0-2.3-0.9-2.6-2.1
	l-0.4-1.4c-0.5-1.7-2.3-2.5-3.9-1.8l-1.4,0.6c-1.1,0.5-2.4,0.2-3.3-0.7l-1-1.1c-1.1-1.3-3.2-1.3-4.3,0l-1,1.1
	c-0.8,0.9-2.1,1.2-3.2,0.8l-1.4-0.6c-1.6-0.7-3.4,0.2-3.8,1.9l-0.4,1.4c-0.3,1.2-1.3,2-2.6,2.1L8.8,9.6c-1.7,0.1-3,1.7-2.6,3.4
	l0.3,1.5c0.2,1.2-0.4,2.4-1.4,3l-1.3,0.7c-1.5,0.8-1.9,2.8-0.9,4.2l0.9,1.2c0.7,1,0.7,2.3,0,3.3L2.8,28c-1,1.4-0.5,3.4,1,4.2
	l1.3,0.7c1.1,0.6,1.7,1.8,1.5,3l-0.3,1.5c-0.3,1.7,1,3.3,2.7,3.3l1.5,0.1c1.2,0,2.3,0.9,2.6,2.1l0.4,1.4c0.5,1.7,2.3,2.5,3.9,1.8
	l1.4-0.6c1.1-0.5,2.4-0.2,3.3,0.7l1,1.1c1.1,1.3,3.2,1.3,4.3,0l1-1.1c0.8-0.9,2.1-1.2,3.2-0.8l1.4,0.6c1.6,0.7,3.4-0.2,3.8-1.9
	l0.4-1.4c0.3-1.2,1.4-2,2.6-2.1l1.5-0.1c1.7-0.1,3-1.7,2.6-3.4l-0.3-1.5c-0.2-1.2,0.4-2.4,1.4-3l1.3-0.7
	C47.8,31.1,48.2,29.1,47.2,27.7z M37,21.4l-10.1,10L24,34.3c-1.5,1.5-4,1.5-5.5,0l-2.9-2.9L13,28.8c-1.5-1.6-1.5-4.1,0-5.6
	c1.6-1.5,4.1-1.5,5.6,0l2.6,2.6l10.1-10c1.6-1.5,4.1-1.5,5.6,0C38.5,17.3,38.5,19.8,37,21.4z"/>
</svg>
